<svg width="24" height="24" viewBox="0 0 24 24" fill="none" xmlns="http://www.w3.org/2000/svg">
<mask id="path-1-inside-1_815_2702" fill="white">
<path d="M14.4291 18.8201C14.2391 18.8201 14.0491 18.7501 13.8991 18.6001C13.6091 18.3101 13.6091 17.8301 13.8991 17.5401L19.4391 12.0001L13.8991 6.46012C13.6091 6.17012 13.6091 5.69012 13.8991 5.40012C14.1891 5.11012 14.6691 5.11012 14.9591 5.40012L21.0291 11.4701C21.3191 11.7601 21.3191 12.2401 21.0291 12.5301L14.9591 18.6001C14.8091 18.7501 14.6191 18.8201 14.4291 18.8201Z"/>
</mask>
<path d="M13.8991 17.5401L12.4849 16.1259L13.8991 17.5401ZM19.4391 12.0001L20.8534 13.4143L22.2676 12.0001L20.8534 10.5859L19.4391 12.0001ZM13.8991 6.46012L12.4849 7.87433H12.4849L13.8991 6.46012ZM14.9591 5.40012L13.5449 6.81433L13.5449 6.81433L14.9591 5.40012ZM21.0291 11.4701L22.4434 10.0559L21.0291 11.4701ZM21.0291 12.5301L22.4434 13.9443L21.0291 12.5301ZM14.9591 18.6001L13.5449 17.1859L14.9591 18.6001ZM14.4291 16.8201C14.7409 16.8201 15.0685 16.9411 15.3134 17.1859L12.4849 20.0143C13.0298 20.5592 13.7373 20.8201 14.4291 20.8201V16.8201ZM15.3134 17.1859C15.8044 17.677 15.8044 18.4633 15.3134 18.9543L12.4849 16.1259C11.4139 17.197 11.4139 18.9433 12.4849 20.0143L15.3134 17.1859ZM15.3134 18.9543L20.8534 13.4143L18.0249 10.5859L12.4849 16.1259L15.3134 18.9543ZM20.8534 10.5859L15.3134 5.0459L12.4849 7.87433L18.0249 13.4143L20.8534 10.5859ZM15.3134 5.0459C15.8044 5.53695 15.8044 6.32328 15.3134 6.81433L12.4849 3.9859C11.4139 5.05695 11.4139 6.80328 12.4849 7.87433L15.3134 5.0459ZM15.3134 6.81433C14.8223 7.30538 14.036 7.30538 13.5449 6.81433L16.3734 3.9859C15.3023 2.91486 13.556 2.91486 12.4849 3.9859L15.3134 6.81433ZM13.5449 6.81433L19.6149 12.8843L22.4434 10.0559L16.3734 3.9859L13.5449 6.81433ZM19.6149 12.8843C19.1239 12.3933 19.1239 11.607 19.6149 11.1159L22.4434 13.9443C23.5144 12.8733 23.5144 11.127 22.4434 10.0559L19.6149 12.8843ZM19.6149 11.1159L13.5449 17.1859L16.3734 20.0143L22.4434 13.9443L19.6149 11.1159ZM13.5449 17.1859C13.7898 16.9411 14.1173 16.8201 14.4291 16.8201V20.8201C15.1209 20.8201 15.8285 20.5592 16.3734 20.0143L13.5449 17.1859Z" fill="#FAFAFA" mask="url(#path-1-inside-1_815_2702)"/>
<path d="M20.33 12.75H3.5C3.09 12.75 2.75 12.41 2.75 12C2.75 11.59 3.09 11.25 3.5 11.25H20.33C20.74 11.25 21.08 11.59 21.08 12C21.08 12.41 20.74 12.75 20.33 12.75Z" fill="#FAFAFA"/>
</svg>
