<svg width="20" height="20" viewBox="0 0 20 20" fill="none" xmlns="http://www.w3.org/2000/svg">
<path fill-rule="evenodd" clip-rule="evenodd" d="M10 0.25C4.615 0.25 0.25 4.615 0.25 10C0.25 15.385 4.615 19.75 10 19.75C15.385 19.75 19.75 15.385 19.75 10C19.75 4.615 15.385 0.25 10 0.25ZM8.28 7.22C8.21134 7.14631 8.12854 7.08721 8.03654 7.04622C7.94454 7.00523 7.84522 6.98318 7.74452 6.98141C7.64382 6.97963 7.54379 6.99816 7.4504 7.03588C7.35701 7.0736 7.27218 7.12974 7.20096 7.20096C7.12974 7.27218 7.0736 7.35701 7.03588 7.4504C6.99816 7.54379 6.97963 7.64382 6.98141 7.74452C6.98318 7.84522 7.00523 7.94454 7.04622 8.03654C7.08721 8.12854 7.14631 8.21134 7.22 8.28L8.94 10L7.22 11.72C7.14631 11.7887 7.08721 11.8715 7.04622 11.9635C7.00523 12.0555 6.98318 12.1548 6.98141 12.2555C6.97963 12.3562 6.99816 12.4562 7.03588 12.5496C7.0736 12.643 7.12974 12.7278 7.20096 12.799C7.27218 12.8703 7.35701 12.9264 7.4504 12.9641C7.54379 13.0018 7.64382 13.0204 7.74452 13.0186C7.84522 13.0168 7.94454 12.9948 8.03654 12.9538C8.12854 12.9128 8.21134 12.8537 8.28 12.78L10 11.06L11.72 12.78C11.7887 12.8537 11.8715 12.9128 11.9635 12.9538C12.0555 12.9948 12.1548 13.0168 12.2555 13.0186C12.3562 13.0204 12.4562 13.0018 12.5496 12.9641C12.643 12.9264 12.7278 12.8703 12.799 12.799C12.8703 12.7278 12.9264 12.643 12.9641 12.5496C13.0018 12.4562 13.0204 12.3562 13.0186 12.2555C13.0168 12.1548 12.9948 12.0555 12.9538 11.9635C12.9128 11.8715 12.8537 11.7887 12.78 11.72L11.06 10L12.78 8.28C12.8537 8.21134 12.9128 8.12854 12.9538 8.03654C12.9948 7.94454 13.0168 7.84522 13.0186 7.74452C13.0204 7.64382 13.0018 7.54379 12.9641 7.4504C12.9264 7.35701 12.8703 7.27218 12.799 7.20096C12.7278 7.12974 12.643 7.0736 12.5496 7.03588C12.4562 6.99816 12.3562 6.97963 12.2555 6.98141C12.1548 6.98318 12.0555 7.00523 11.9635 7.04622C11.8715 7.08721 11.7887 7.14631 11.72 7.22L10 8.94L8.28 7.22Z" fill="#C9EC81"/>
<path d="M8.28 7.22C8.21134 7.14631 8.12854 7.08721 8.03654 7.04622C7.94454 7.00523 7.84522 6.98318 7.74452 6.98141C7.64382 6.97963 7.54379 6.99816 7.4504 7.03588C7.35701 7.0736 7.27218 7.12974 7.20096 7.20096C7.12974 7.27218 7.0736 7.35701 7.03588 7.4504C6.99816 7.54379 6.97963 7.64382 6.98141 7.74452C6.98318 7.84522 7.00523 7.94454 7.04622 8.03654C7.08721 8.12854 7.14631 8.21134 7.22 8.28L8.94 10L7.22 11.72C7.14631 11.7887 7.08721 11.8715 7.04622 11.9635C7.00523 12.0555 6.98318 12.1548 6.98141 12.2555C6.97963 12.3562 6.99816 12.4562 7.03588 12.5496C7.0736 12.643 7.12974 12.7278 7.20096 12.799C7.27218 12.8703 7.35701 12.9264 7.4504 12.9641C7.54379 13.0018 7.64382 13.0204 7.74452 13.0186C7.84522 13.0168 7.94454 12.9948 8.03654 12.9538C8.12854 12.9128 8.21134 12.8537 8.28 12.78L10 11.06L11.72 12.78C11.7887 12.8537 11.8715 12.9128 11.9635 12.9538C12.0555 12.9948 12.1548 13.0168 12.2555 13.0186C12.3562 13.0204 12.4562 13.0018 12.5496 12.9641C12.643 12.9264 12.7278 12.8703 12.799 12.799C12.8703 12.7278 12.9264 12.643 12.9641 12.5496C13.0018 12.4562 13.0204 12.3562 13.0186 12.2555C13.0168 12.1548 12.9948 12.0555 12.9538 11.9635C12.9128 11.8715 12.8537 11.7887 12.78 11.72L11.06 10L12.78 8.28C12.8537 8.21134 12.9128 8.12854 12.9538 8.03654C12.9948 7.94454 13.0168 7.84522 13.0186 7.74452C13.0204 7.64382 13.0018 7.54379 12.9641 7.4504C12.9264 7.35701 12.8703 7.27218 12.799 7.20096C12.7278 7.12974 12.643 7.0736 12.5496 7.03588C12.4562 6.99816 12.3562 6.97963 12.2555 6.98141C12.1548 6.98318 12.0555 7.00523 11.9635 7.04622C11.8715 7.08721 11.7887 7.14631 11.72 7.22L10 8.94L8.28 7.22Z" fill="#333431"/>
<path d="M8.0971 7.39043L8.09698 7.39054L8.10322 7.39678L9.82322 9.11678L10 9.29355L10.1768 9.11678L11.8968 7.39678L11.8969 7.39689L11.9029 7.39043C11.9487 7.34131 12.0039 7.3019 12.0652 7.27458C12.1265 7.24725 12.1928 7.23255 12.2599 7.23137C12.327 7.23018 12.3937 7.24253 12.456 7.26768C12.5182 7.29283 12.5748 7.33026 12.6223 7.37774C12.6697 7.42522 12.7072 7.48178 12.7323 7.54403C12.7575 7.60629 12.7698 7.67298 12.7686 7.74011C12.7674 7.80725 12.7528 7.87346 12.7254 7.93479C12.6981 7.99612 12.6587 8.05132 12.6096 8.0971L12.6095 8.09698L12.6032 8.10322L10.8832 9.82322L10.7064 10L10.8832 10.1768L12.6032 11.8968L12.6031 11.8969L12.6096 11.9029C12.6587 11.9487 12.6981 12.0039 12.7254 12.0652C12.7528 12.1265 12.7674 12.1928 12.7686 12.2599C12.7698 12.327 12.7575 12.3937 12.7323 12.456C12.7072 12.5182 12.6697 12.5748 12.6223 12.6223C12.5748 12.6697 12.5182 12.7072 12.456 12.7323C12.3937 12.7575 12.327 12.7698 12.2599 12.7686C12.1928 12.7674 12.1265 12.7528 12.0652 12.7254C12.0039 12.6981 11.9487 12.6587 11.9029 12.6096L11.903 12.6095L11.8968 12.6032L10.1768 10.8832L10 10.7064L9.82322 10.8832L8.10322 12.6032L8.10311 12.6031L8.0971 12.6096C8.05132 12.6587 7.99612 12.6981 7.93479 12.7254C7.87346 12.7528 7.80725 12.7674 7.74011 12.7686C7.67298 12.7698 7.60629 12.7575 7.54403 12.7323C7.48178 12.7072 7.42522 12.6697 7.37774 12.6223C7.33026 12.5748 7.29283 12.5182 7.26768 12.456C7.24253 12.3937 7.23018 12.327 7.23137 12.2599C7.23255 12.1928 7.24725 12.1265 7.27458 12.0652C7.3019 12.0039 7.34131 11.9487 7.39043 11.9029L7.39054 11.903L7.39678 11.8968L9.11678 10.1768L9.29355 10L9.11678 9.82322L7.39678 8.10322L7.39689 8.10311L7.39043 8.0971C7.34131 8.05132 7.3019 7.99612 7.27458 7.93479C7.24725 7.87346 7.23255 7.80725 7.23137 7.74011C7.23018 7.67298 7.24253 7.60629 7.26768 7.54403C7.29283 7.48177 7.33026 7.42522 7.37774 7.37774C7.42522 7.33026 7.48177 7.29283 7.54403 7.26768C7.60629 7.24253 7.67298 7.23018 7.74011 7.23137C7.80725 7.23255 7.87346 7.24725 7.93479 7.27458C7.99612 7.3019 8.05132 7.34131 8.0971 7.39043ZM0.5 10C0.5 4.75307 4.75307 0.5 10 0.5C15.2469 0.5 19.5 4.75307 19.5 10C19.5 15.2469 15.2469 19.5 10 19.5C4.75307 19.5 0.5 15.2469 0.5 10ZM10 8.58645L8.45967 7.04611C8.36876 6.94947 8.25951 6.87188 8.13829 6.81786C8.01562 6.76321 7.8832 6.73382 7.74893 6.73145C7.61466 6.72908 7.48129 6.75378 7.35677 6.80407C7.23225 6.85437 7.11914 6.92923 7.02419 7.02419C6.92923 7.11914 6.85437 7.23225 6.80407 7.35677C6.75378 7.48129 6.72908 7.61466 6.73145 7.74893C6.73382 7.8832 6.76321 8.01562 6.81786 8.13829C6.87188 8.25951 6.94947 8.36876 7.04611 8.45967L8.58645 10L7.04611 11.5403C6.94947 11.6312 6.87187 11.7405 6.81786 11.8617C6.76321 11.9844 6.73382 12.1168 6.73145 12.2511C6.72908 12.3853 6.75378 12.5187 6.80407 12.6432C6.85437 12.7677 6.92923 12.8809 7.02419 12.9758C7.11914 13.0708 7.23225 13.1456 7.35677 13.1959C7.48129 13.2462 7.61466 13.2709 7.74893 13.2686C7.8832 13.2662 8.01562 13.2368 8.13829 13.1821C8.25951 13.1281 8.36876 13.0505 8.45967 12.9539L10 11.4136L11.5403 12.9539C11.6312 13.0505 11.7405 13.1281 11.8617 13.1821C11.9844 13.2368 12.1168 13.2662 12.2511 13.2686C12.3853 13.2709 12.5187 13.2462 12.6432 13.1959C12.7677 13.1456 12.8809 13.0708 12.9758 12.9758C13.0708 12.8809 13.1456 12.7677 13.1959 12.6432C13.2462 12.5187 13.2709 12.3853 13.2686 12.2511C13.2662 12.1168 13.2368 11.9844 13.1821 11.8617C13.1281 11.7405 13.0505 11.6312 12.9539 11.5403L11.4136 10L12.9539 8.45967C13.0505 8.36876 13.1281 8.25951 13.1821 8.13829C13.2368 8.01562 13.2662 7.8832 13.2686 7.74893C13.2709 7.61466 13.2462 7.48129 13.1959 7.35677C13.1456 7.23225 13.0708 7.11914 12.9758 7.02419C12.8809 6.92923 12.7677 6.85437 12.6432 6.80407C12.5187 6.75378 12.3853 6.72908 12.2511 6.73145C12.1168 6.73382 11.9844 6.76321 11.8617 6.81786C11.7405 6.87187 11.6312 6.94947 11.5403 7.04611L10 8.58645Z" stroke="#333431" stroke-width="0.5"/>
</svg>
