<svg width="73" height="24" viewBox="0 0 73 24" fill="none" xmlns="http://www.w3.org/2000/svg">
<path d="M0.281923 9.57047V9.39494C0.488329 9.33155 0.629725 9.19666 0.706653 8.98971C0.78304 8.78168 0.821504 8.40354 0.821504 7.85421V2.36738C0.821504 1.85326 0.789541 1.45454 0.726156 1.1712C0.663855 0.886784 0.5723 0.681461 0.450948 0.555775C0.329597 0.43009 0.178449 0.34016 -0.00195312 0.284901V0.109375H1.63413L5.15982 5.93425L8.62051 0.109375H10.1482V0.284901C9.96729 0.34016 9.81669 0.43009 9.69534 0.555775C9.57399 0.681461 9.48135 0.886784 9.41796 1.1712C9.35404 1.45454 9.32261 1.85326 9.32261 2.36738V7.85421C9.32261 8.40354 9.36054 8.78168 9.43747 8.98971C9.51385 9.19666 9.65633 9.33155 9.86436 9.39494V9.57047H7.67353V9.39494C7.88156 9.33155 8.0235 9.19666 8.10043 8.98971C8.17682 8.78168 8.21528 8.40354 8.21528 7.85421V1.20371L4.78277 7.00258H4.52489L1.06637 1.31206V7.31246C1.06637 7.82712 1.10159 8.22422 1.17256 8.5043C1.24461 8.78331 1.34808 8.98754 1.48244 9.11756C1.61787 9.24758 1.78582 9.34022 1.98518 9.39494V9.57047H0.281923Z" fill="white"/>
<path d="M11.5293 9.57047V9.39494C11.7373 9.33155 11.8793 9.19666 11.9562 8.98971C12.0326 8.78168 12.071 8.40354 12.071 7.85421V1.82563C12.071 1.26817 12.0326 0.888409 11.9562 0.685795C11.8793 0.482098 11.7373 0.348828 11.5293 0.284901V0.109375H17.8136L17.9631 1.86681L17.8136 1.90798C17.5795 1.31314 17.2529 0.89816 16.8341 0.664125C16.4148 0.43009 15.8589 0.313072 15.1655 0.313072H13.1784V4.40652H14.9076C15.4218 4.40652 15.8205 4.37348 16.1038 4.30684C16.3882 4.23912 16.5957 4.13565 16.7257 3.99696C16.8568 3.85719 16.9495 3.68708 17.0031 3.48772H17.1656V5.52902H17.0031C16.9495 5.32262 16.8568 5.15197 16.7257 5.01761C16.5957 4.88218 16.3882 4.78033 16.1038 4.71207C15.8205 4.64435 15.4218 4.61022 14.9076 4.61022H13.1784V8.76001C13.1784 9.1647 13.381 9.36677 13.7873 9.36677H15.5426C16.1927 9.36677 16.729 9.25517 17.1526 9.03088C17.5757 8.80552 17.9089 8.37754 18.1516 7.74586L18.3011 7.77186L18.1928 9.57047H11.5293Z" fill="white"/>
<path d="M19.4753 9.57047V9.39494C19.6817 9.33155 19.8231 9.19666 19.9 8.98971C19.9764 8.78168 20.0149 8.40354 20.0149 7.85421V2.36738C20.0149 1.85326 19.9829 1.45454 19.9195 1.1712C19.8572 0.886784 19.7657 0.681461 19.6443 0.555775C19.523 0.43009 19.3718 0.34016 19.1914 0.284901V0.109375H20.8275L24.3532 5.93425L27.8139 0.109375H29.3416V0.284901C29.1607 0.34016 29.01 0.43009 28.8887 0.555775C28.7673 0.681461 28.6747 0.886784 28.6113 1.1712C28.5474 1.45454 28.516 1.85326 28.516 2.36738V7.85421C28.516 8.40354 28.5539 8.78168 28.6308 8.98971C28.7072 9.19666 28.8497 9.33155 29.0577 9.39494V9.57047H26.8669V9.39494C27.0749 9.33155 27.2169 9.19666 27.2938 8.98971C27.3702 8.78168 27.4086 8.40354 27.4086 7.85421V1.20371L23.9761 7.00258H23.7183L20.2597 1.31206V7.31246C20.2597 7.82712 20.2949 8.22422 20.3659 8.5043C20.438 8.78331 20.5414 8.98754 20.6758 9.11756C20.8112 9.24758 20.9792 9.34022 21.1785 9.39494V9.57047H19.4753Z" fill="white"/>
<path d="M30.7227 9.57047V9.39494C30.9307 9.33155 31.0726 9.19666 31.1496 8.98971C31.2259 8.78168 31.2644 8.40354 31.2644 7.85421V1.82563C31.2644 1.26817 31.2259 0.888409 31.1496 0.685795C31.0726 0.482098 30.9307 0.348828 30.7227 0.284901V0.109375H37.0069L37.1565 1.86681L37.0069 1.90798C36.7729 1.31314 36.4462 0.89816 36.0275 0.664125C35.6081 0.43009 35.0523 0.313072 34.3589 0.313072H32.3717V4.40652H34.101C34.6151 4.40652 35.0138 4.37348 35.2972 4.30684C35.5816 4.23912 35.7891 4.13565 35.9191 3.99696C36.0502 3.85719 36.1428 3.68708 36.1965 3.48772H36.359V5.52902H36.1965C36.1428 5.32262 36.0502 5.15197 35.9191 5.01761C35.7891 4.88218 35.5816 4.78033 35.2972 4.71207C35.0138 4.64435 34.6151 4.61022 34.101 4.61022H32.3717V8.76001C32.3717 9.1647 32.5744 9.36677 32.9807 9.36677H34.7359C35.386 9.36677 35.9224 9.25517 36.346 9.03088C36.7691 8.80552 37.1023 8.37754 37.345 7.74586L37.4945 7.77186L37.3862 9.57047H30.7227Z" fill="white"/>
<path d="M45.8186 9.67881L39.4542 1.3944V7.31246C39.4542 7.82712 39.4894 8.22422 39.5604 8.5043C39.6324 8.7833 39.7386 8.98754 39.8789 9.11756C40.0187 9.24758 40.1877 9.34022 40.386 9.39494V9.57046H38.6957V9.39494C38.9038 9.33155 39.0457 9.19666 39.1226 8.98971C39.199 8.78168 39.2375 8.40354 39.2375 7.85421V1.82563C39.2375 1.26817 39.1876 0.888409 39.088 0.685795C38.9894 0.482098 38.8046 0.348828 38.5332 0.284901V0.109375H39.8594L45.7645 7.75886V2.36738C45.7645 1.85326 45.7282 1.45454 45.6561 1.1712C45.5835 0.886784 45.4795 0.681461 45.3441 0.555775C45.2097 0.43009 45.0391 0.34016 44.8326 0.284901V0.109375H46.5359V0.284901C46.3279 0.348828 46.1854 0.482098 46.109 0.685795C46.0321 0.888409 45.9942 1.26817 45.9942 1.82563V9.67881H45.8186Z" fill="white"/>
<path d="M49.7655 9.57047V9.39494C49.9735 9.33155 50.1155 9.19666 50.1924 8.98971C50.2688 8.78168 50.3073 8.40354 50.3073 7.85421V0.326074H49.6442C49.0401 0.326074 48.5807 0.42088 48.2659 0.60995C47.9507 0.799562 47.6754 1.13761 47.4403 1.6241L47.293 1.59593L47.3731 0.109375H54.3335L54.4159 1.59593L54.2664 1.6241C54.041 1.13761 53.7707 0.799562 53.4559 0.60995C53.1406 0.42088 52.6763 0.326074 52.0625 0.326074H51.4276V7.85421C51.4276 8.40354 51.4655 8.78168 51.5424 8.98971C51.6188 9.19666 51.7613 9.33155 51.9693 9.39494V9.57047H49.7655Z" fill="white"/>
<path d="M60.1586 9.70379C59.5822 9.70379 59.0101 9.60682 58.4423 9.41342C57.8746 9.22001 57.3556 8.92313 56.8864 8.52278C56.4184 8.12135 56.044 7.61427 55.7639 7.00155C55.4849 6.38938 55.3457 5.66398 55.3457 4.82589C55.3457 3.89734 55.5483 3.07009 55.9546 2.34469C56.3604 1.61983 56.9238 1.04774 57.6449 0.628428C58.3654 0.209657 59.2035 0 60.1586 0C60.7263 0 61.293 0.0996817 61.8597 0.299045C62.4274 0.497325 62.9432 0.796912 63.4069 1.19835C63.8717 1.5987 64.2439 2.10523 64.5229 2.71741C64.803 3.33013 64.9433 4.05119 64.9433 4.88007C64.9433 5.71815 64.803 6.43922 64.5229 7.04273C64.2439 7.64677 63.8696 8.14681 63.4004 8.54228C62.9323 8.9383 62.4166 9.23085 61.8532 9.41992C61.2908 9.60899 60.7263 9.70379 60.1586 9.70379ZM56.427 4.04144C56.4541 4.71754 56.5787 5.3736 56.7998 6.00907C57.0208 6.64346 57.3225 7.21338 57.7056 7.71883C58.088 8.2232 58.5361 8.62409 59.0491 8.92151C59.5632 9.21784 60.1223 9.36574 60.7263 9.36574C61.4469 9.36574 62.046 9.20863 62.5228 8.89334C63.0006 8.57858 63.3549 8.14898 63.5846 7.60398C63.8143 7.05789 63.9151 6.4468 63.888 5.7707C63.8604 5.0686 63.7363 4.39141 63.5153 3.73806C63.2953 3.08526 62.9963 2.50233 62.6181 1.9893C62.2394 1.47518 61.793 1.06724 61.2789 0.764948C60.7659 0.463195 60.2074 0.312047 59.6038 0.312047C58.9191 0.312047 58.3351 0.469696 57.8529 0.784451C57.3718 1.09975 57.0067 1.5364 56.7586 2.09548C56.5115 2.65457 56.401 3.30358 56.427 4.04144Z" fill="white"/>
<path d="M69.4852 9.70642C68.7728 9.70642 68.133 9.60294 67.5653 9.39654C66.9975 9.1885 66.556 8.97289 66.2412 8.7486L66.1719 6.86982L66.3214 6.84165C66.5018 7.30972 66.738 7.74475 67.03 8.14618C67.3231 8.54816 67.6953 8.86779 68.146 9.10616C68.5967 9.34453 69.1325 9.46371 69.7539 9.46371C70.1147 9.46371 70.4484 9.38949 70.7551 9.24051C71.0612 9.09207 71.3066 8.88242 71.4918 8.61208C71.6766 8.34229 71.7692 8.027 71.7692 7.66728C71.7692 7.32489 71.6787 7.02747 71.4983 6.77447C71.3174 6.52202 71.0828 6.30099 70.7941 6.11137C70.5064 5.92231 70.2025 5.75816 69.8818 5.61947C69.5621 5.4797 69.2588 5.35076 68.9716 5.23374C68.4396 5.01704 67.9775 4.79926 67.5848 4.57931C67.1931 4.35828 66.8913 4.09282 66.679 3.78186C66.4677 3.46981 66.3626 3.07542 66.3626 2.59868C66.3626 2.06723 66.4996 1.60999 66.7743 1.22697C67.0484 0.8445 67.4336 0.546538 67.9293 0.334173C68.4245 0.121808 69.002 0.015625 69.6607 0.015625C70.2729 0.015625 70.7995 0.0838853 71.2405 0.219322C71.6825 0.355301 72.0341 0.49453 72.2958 0.637552L72.35 2.20645L72.2134 2.24763C71.9621 1.66146 71.5948 1.17876 71.1126 0.800076C70.6299 0.421936 70.0015 0.232324 69.2273 0.232324C68.8676 0.232324 68.5317 0.302751 68.2197 0.442523C67.9087 0.582835 67.6611 0.783824 67.4764 1.04495C67.2911 1.30499 67.199 1.62949 67.199 2.01793C67.199 2.33322 67.2754 2.60735 67.4287 2.84138C67.5831 3.07542 67.7863 3.27857 68.0377 3.45031C68.2901 3.62096 68.5648 3.77211 68.8611 3.90321C69.1585 4.03323 69.4516 4.15675 69.7409 4.27377C70.2447 4.47204 70.7182 4.68333 71.1603 4.90869C71.6024 5.13406 71.9605 5.40927 72.2351 5.73432C72.5092 6.05828 72.6468 6.47706 72.6468 6.99117C72.6468 7.54917 72.4935 8.03296 72.1874 8.44306C71.8808 8.8537 71.4864 9.16683 71.0043 9.38353C70.5232 9.59861 70.0167 9.70642 69.4852 9.70642Z" fill="white"/>
<path d="M19.8788 24.0028C19.7211 24.0028 19.609 23.9042 19.5429 23.708C19.5299 23.6544 19.5196 23.6084 19.5126 23.5694C19.5066 23.5304 19.5104 23.4838 19.5234 23.4307C19.5234 23.312 19.5169 23.2335 19.5039 23.1945C19.583 22.1803 19.7379 21.1337 19.9676 20.0545C20.1984 18.9753 20.478 17.9027 20.8063 16.8365C21.1357 15.7704 21.5008 14.7237 21.9028 13.6965C22.3042 12.6694 22.7089 11.7018 23.1163 10.7928C23.1564 10.7278 23.1965 10.6628 23.2355 10.5977C23.2756 10.5317 23.3156 10.465 23.3547 10.3984C23.3807 10.3724 23.4132 10.3594 23.4522 10.3594C23.6109 10.3594 23.6905 10.4255 23.6905 10.5566C23.6905 10.6492 23.6699 10.7484 23.6299 10.8534C23.6039 10.9461 23.5714 11.0349 23.5323 11.12C23.4933 11.2056 23.4532 11.2944 23.4132 11.3865C23.3742 11.4792 23.3341 11.5718 23.294 11.6639C23.255 11.7549 23.216 11.847 23.177 11.9391C22.8346 12.7295 22.4987 13.5622 22.1693 14.4377C21.8399 15.3131 21.5371 16.1983 21.2613 17.0922C20.985 18.0013 20.7445 18.9136 20.5397 19.8291C20.336 20.7436 20.1876 21.6353 20.0955 22.5032C20.0825 22.5292 20.076 22.5948 20.076 22.7004C20.076 22.7795 20.089 22.8326 20.115 22.8586C20.1291 22.8716 20.1497 22.8781 20.1757 22.8781C20.2147 22.8781 20.2472 22.8445 20.2732 22.7784C20.3393 22.6598 20.4054 22.5411 20.4704 22.423C20.5365 22.3044 20.6031 22.1792 20.6697 22.0481C20.8935 21.5876 21.1833 21.008 21.5387 20.3102C22.2625 18.9017 23.1174 17.3821 24.1044 15.7509C24.6039 14.961 25.0975 14.2296 25.5845 13.5579C26.0856 12.9007 26.5732 12.3389 27.0472 11.8719C27.5207 11.4039 27.9617 11.1173 28.3691 11.0116C28.4352 10.9986 28.4948 10.9889 28.5468 10.9813C28.5999 10.9743 28.6399 10.9705 28.6659 10.9705C29.0083 10.9705 29.2581 11.1492 29.4157 11.5057C29.4558 11.6097 29.4921 11.7148 29.5241 11.8199C29.5571 11.9256 29.5674 12.0312 29.5544 12.1363C29.5544 12.2029 29.5544 12.2723 29.5544 12.3443C29.5544 12.4169 29.5609 12.4852 29.5739 12.5502C29.5739 12.6168 29.5701 12.6862 29.5631 12.7582C29.5571 12.8308 29.5479 12.9002 29.5349 12.9663C29.4163 13.8087 29.212 14.6121 28.9217 15.376C28.6324 16.1387 28.238 16.869 27.7385 17.5668C27.5532 17.8171 27.2964 18.1102 26.967 18.4466C26.6387 18.7819 26.2871 19.0718 25.9117 19.3156C25.5357 19.5583 25.1836 19.6796 24.8542 19.6796C24.4078 19.6796 24.151 19.4689 24.0849 19.0468C23.9793 18.4953 24.1044 18.0148 24.4598 17.6058C24.5649 17.4617 24.6901 17.3431 24.8347 17.2504C24.9788 17.1583 25.1305 17.0727 25.2898 16.9947C25.3028 16.9817 25.3223 16.9752 25.3483 16.9752H25.4285C25.5325 16.9752 25.598 17.0077 25.6257 17.0727C25.7037 17.1914 25.6896 17.2905 25.5845 17.3696C25.5455 17.3956 25.5054 17.4254 25.4653 17.4584C25.4263 17.492 25.3873 17.5213 25.3483 17.5473C25.3093 17.5733 25.2692 17.5993 25.2291 17.6253C25.1901 17.6513 25.1511 17.6784 25.1121 17.7055C24.9138 17.8371 24.7751 17.998 24.696 18.1887C24.618 18.3794 24.5725 18.5869 24.5595 18.8106C24.5595 18.9553 24.5985 19.0506 24.6765 19.0967C24.7556 19.1433 24.8613 19.166 24.9929 19.166C25.124 19.14 25.2454 19.0945 25.357 19.0295C25.4696 18.9634 25.5785 18.8968 25.6842 18.8301C26.3429 18.4087 26.902 17.8691 27.3614 17.2114C27.8219 16.5526 28.1903 15.8386 28.4666 15.0682C28.744 14.2984 28.9352 13.5449 29.0408 12.8081C29.0798 12.4787 29.0733 12.1959 29.0213 11.9586C28.9693 11.6422 28.8442 11.484 28.6464 11.484C28.5538 11.484 28.4352 11.5241 28.2911 11.6032C28.1058 11.6959 27.9118 11.8243 27.7081 11.989C27.5044 12.1536 27.2905 12.3481 27.0667 12.5719C26.6317 13.0183 26.1967 13.5449 25.7622 14.1516C25.3288 14.7573 24.9008 15.402 24.4793 16.0867C24.0719 16.7704 23.6775 17.4411 23.2961 18.0999C23.0979 18.4683 22.8833 18.8664 22.6525 19.2939C22.4228 19.7219 22.2126 20.1271 22.022 20.5096C21.8313 20.891 21.6698 21.2003 21.5387 21.437C21.4591 21.5947 21.3794 21.7529 21.3003 21.9116C21.2223 22.0693 21.1432 22.2264 21.0641 22.384C20.9845 22.5427 20.9049 22.7009 20.8258 22.8586C20.7478 23.0157 20.6622 23.1668 20.5701 23.3115C20.5441 23.3646 20.5143 23.4177 20.4812 23.4697C20.4476 23.5228 20.4184 23.5759 20.3924 23.6279C20.3404 23.72 20.2613 23.8061 20.1562 23.8857C20.0765 23.9638 19.9839 24.0028 19.8788 24.0028Z" fill="white"/>
<path d="M30.3241 22.5007C30.3111 22.5007 30.3014 22.5007 30.2938 22.5007C30.2868 22.5007 30.2765 22.5007 30.2635 22.5007C30.2635 22.4877 30.2505 22.4812 30.2245 22.4812C30.0934 22.4406 30.0143 22.3414 29.9883 22.1843C29.9883 22.1453 29.9883 22.1063 29.9883 22.0673C29.9883 22.0272 29.9818 21.9806 29.9688 21.9286C29.9688 21.8885 29.9688 21.8484 29.9688 21.8094C29.9688 21.7704 29.9753 21.7244 29.9883 21.6707C30.1199 20.7898 30.3171 19.9935 30.5798 19.2827C30.8426 18.5719 31.1454 17.8216 31.4878 17.0312C31.5138 16.9781 31.5398 16.9288 31.5658 16.8838C31.5929 16.8378 31.62 16.7945 31.646 16.7538C31.6861 16.7148 31.7457 16.6953 31.8237 16.6953H31.8844C31.9884 16.7343 32.0339 16.8004 32.0209 16.8925C32.0209 17.0112 31.9884 17.1563 31.9234 17.3281C31.8437 17.5247 31.7614 17.7219 31.6763 17.9197C31.5907 18.1179 31.5019 18.3151 31.4098 18.5113C31.2782 18.8146 31.1595 19.118 31.0544 19.4214C30.9488 19.7237 30.8561 20.026 30.777 20.3294C30.751 20.4334 30.7277 20.5385 30.7077 20.6436C30.6887 20.7492 30.7055 20.8549 30.7575 20.96H30.738L30.7575 20.9795L31.5268 19.4192C31.6855 19.1175 31.8833 18.8119 32.1206 18.5026C32.3573 18.1938 32.6266 17.9468 32.9289 17.7615C33.008 17.7225 33.0876 17.703 33.1672 17.703C33.3243 17.703 33.4495 17.7821 33.5421 17.9392C33.5681 17.9652 33.5903 17.9988 33.6093 18.0388C33.6293 18.0779 33.6467 18.1169 33.6613 18.1559C33.6743 18.2355 33.7068 18.3151 33.7588 18.3942C33.9029 18.6315 34.0611 18.7496 34.2334 18.7496C34.3515 18.7496 34.4961 18.6971 34.6668 18.5914C34.8385 18.4863 35.0135 18.3677 35.1912 18.236C35.3689 18.1049 35.5103 17.9928 35.6159 17.9002C35.6939 17.8211 35.779 17.755 35.8716 17.703C35.8846 17.69 35.9112 17.6835 35.9518 17.6835C36.0038 17.6835 36.0558 17.703 36.1078 17.742C36.1869 17.8216 36.2075 17.9002 36.1685 17.9782C36.1149 18.0838 36.0558 18.17 35.9908 18.236C35.8722 18.3547 35.7075 18.4961 35.4967 18.6608C35.2855 18.8255 35.0682 18.9674 34.8445 19.0855C34.6202 19.2041 34.4165 19.2632 34.2334 19.2632C33.904 19.2632 33.6337 19.118 33.4229 18.8276C33.3969 18.7886 33.3709 18.7496 33.3449 18.7106C33.3189 18.6705 33.2918 18.6304 33.2647 18.5914C33.2517 18.5513 33.2322 18.5113 33.2062 18.4722C33.1802 18.4332 33.1542 18.3937 33.1282 18.3531C33.0356 18.3531 32.9662 18.3736 32.9202 18.4137C32.8736 18.4527 32.8313 18.4993 32.7923 18.5524C32.6071 18.7361 32.4424 18.9371 32.2983 19.1548C32.1536 19.3715 32.022 19.592 31.9039 19.8158C31.8242 19.9734 31.7446 20.1316 31.6655 20.2904C31.5875 20.448 31.5149 20.6056 31.4488 20.7628C31.3692 20.9204 31.2895 21.0786 31.2104 21.2373C31.1324 21.395 31.0468 21.5597 30.9547 21.7314C30.9027 21.8354 30.8469 21.9373 30.7879 22.0369C30.7283 22.1355 30.6654 22.2369 30.5993 22.3425C30.5343 22.4476 30.4422 22.5007 30.3241 22.5007Z" fill="white"/>
<path d="M37.4706 21.4539C37.1022 21.4539 36.8448 21.2632 36.6991 20.8818C36.6601 20.7767 36.6368 20.6683 36.6298 20.5567C36.6238 20.444 36.6211 20.3157 36.6211 20.171C36.6731 19.8806 36.7322 19.535 36.7988 19.133C36.8649 18.7316 36.9537 18.3502 37.0653 17.9888C37.1764 17.6264 37.3178 17.3599 37.4901 17.1892C37.5551 17.1491 37.6076 17.1286 37.6482 17.1286C37.6613 17.1286 37.7073 17.1426 37.7869 17.1697C37.8779 17.2087 37.9105 17.2813 37.8845 17.3864C37.7138 17.8214 37.5621 18.2792 37.4294 18.7603C37.2977 19.2403 37.1997 19.7105 37.1347 20.171C37.1217 20.3157 37.1347 20.4868 37.1737 20.6846C37.1997 20.7886 37.2452 20.8547 37.3102 20.8818C37.3763 20.9078 37.4624 20.9208 37.5681 20.9208C37.7138 20.8948 37.846 20.8493 37.9646 20.7843C38.0827 20.7182 38.2014 20.6385 38.32 20.5459C38.5828 20.3222 38.8358 20.0919 39.0785 19.8546C39.3222 19.6179 39.5563 19.3681 39.7806 19.1048C39.8597 19.0128 39.9388 18.9201 40.0168 18.8275C40.0959 18.7354 40.1685 18.6433 40.2335 18.5523C40.2996 18.4602 40.3722 18.3675 40.4502 18.2749C40.5293 18.1828 40.6089 18.0902 40.6885 17.9975C40.7275 17.9455 40.7698 17.9 40.8164 17.861C40.8624 17.8209 40.9123 17.7808 40.9659 17.7418C40.9919 17.7158 41.0244 17.7028 41.0634 17.7028C41.1165 17.7028 41.1631 17.7223 41.2021 17.7613C41.2812 17.8133 41.3072 17.8924 41.2801 17.9975C41.2671 18.0772 41.2281 18.1503 41.1631 18.2164C40.8207 18.6628 40.468 19.0973 40.1056 19.5187C39.7443 19.9408 39.3461 20.3357 38.9116 20.7041C38.7263 20.8747 38.5053 21.0421 38.2485 21.2068C37.9928 21.3715 37.7333 21.4539 37.4706 21.4539ZM37.9841 16.4178C37.7859 16.4454 37.6743 16.3203 37.6482 16.0429C37.6482 15.8061 37.7663 15.6875 38.0036 15.6875C38.2534 15.6875 38.385 15.7931 38.398 16.0039C38.398 16.1095 38.3552 16.2049 38.2702 16.2899C38.1846 16.3755 38.0892 16.4178 37.9841 16.4178Z" fill="white"/>
<path d="M41.6189 21.9673C41.4618 21.9673 41.3697 21.8752 41.3437 21.69C41.3307 21.651 41.3242 21.5659 41.3242 21.4343C41.3632 21.0919 41.4293 20.756 41.5214 20.4266C41.6141 20.0972 41.7132 19.7689 41.8183 19.4406C41.9093 19.1893 42.0009 18.9422 42.0935 18.6995C42.1856 18.4557 42.2782 18.2087 42.3709 17.9584C42.4619 17.7087 42.5534 17.4622 42.6461 17.2195C42.7382 16.9757 42.8308 16.7286 42.9235 16.4784C42.9885 16.3863 43.0632 16.2443 43.1488 16.0536C43.2355 15.8629 43.3314 15.7676 43.437 15.7676C43.437 15.7676 43.476 15.7806 43.5541 15.8066C43.6868 15.8862 43.7198 15.9984 43.6537 16.1425L43.5346 16.3787C43.4435 16.629 43.3482 16.8792 43.2485 17.1306C43.1499 17.3809 43.0546 17.6306 42.9625 17.8804C42.8698 18.1307 42.7745 18.3842 42.6764 18.641C42.5778 18.8967 42.476 19.1497 42.3709 19.3995C42.3579 19.4531 42.3411 19.5094 42.321 19.5685C42.3004 19.6281 42.2777 19.6898 42.2517 19.7548C42.1997 19.8605 42.2062 19.9856 42.2712 20.1297C42.3503 19.9596 42.4949 19.7169 42.7046 19.4016C42.9153 19.0852 43.1521 18.7559 43.4154 18.4135C43.6797 18.0711 43.943 17.7818 44.2063 17.5445C44.4691 17.3078 44.6993 17.1891 44.8976 17.1891C45.1213 17.1891 45.266 17.2818 45.331 17.4665C45.3971 17.6502 45.4437 17.8273 45.4697 17.9974C45.4827 18.0901 45.4924 18.1762 45.5 18.2553C45.5071 18.3333 45.5173 18.4124 45.5304 18.4915C45.5304 18.5711 45.5331 18.6508 45.539 18.7299C45.5461 18.8079 45.5564 18.887 45.5694 18.9661C45.5824 19.1903 45.6414 19.394 45.747 19.5772C45.7861 19.6828 45.8646 19.7353 45.9833 19.7353C46.0093 19.7353 46.0293 19.7288 46.0439 19.7158C46.0439 19.7158 46.0466 19.7158 46.0526 19.7158C46.0596 19.7158 46.0699 19.7158 46.0829 19.7158C46.201 19.6768 46.3132 19.6216 46.4188 19.549C46.5239 19.4769 46.629 19.3946 46.733 19.3019C46.8251 19.2228 46.9113 19.1438 46.9909 19.0657C47.07 18.9866 47.1556 18.9005 47.2466 18.8079C47.3257 18.7288 47.408 18.6497 47.4936 18.5717C47.5787 18.4926 47.6675 18.4129 47.7602 18.3333C47.8653 18.2412 47.9541 18.1621 48.0267 18.0971C48.0988 18.031 48.1486 17.9844 48.1762 17.9584C48.2023 17.9324 48.2283 17.9064 48.2543 17.8804C48.2803 17.8533 48.2998 17.8327 48.3128 17.8197C48.3529 17.7807 48.3994 17.7612 48.4515 17.7612C48.5045 17.7612 48.5511 17.7807 48.5901 17.8197C48.6822 17.8994 48.7082 17.992 48.6682 18.0971C48.6291 18.2027 48.5696 18.2943 48.4905 18.3723C48.4385 18.4259 48.3366 18.5218 48.1849 18.6605C48.0332 18.7981 47.8685 18.9487 47.6908 19.1134C47.5131 19.2781 47.3485 19.4265 47.1968 19.5576C47.0462 19.6893 46.9443 19.7819 46.8912 19.835C46.6539 20.0593 46.3912 20.1969 46.1024 20.2489C46.0894 20.2489 46.0764 20.2489 46.0634 20.2489C46.0504 20.2489 46.0363 20.2489 46.0223 20.2489C45.9963 20.2619 45.9637 20.2684 45.9247 20.2684C45.6615 20.2684 45.4507 20.1308 45.292 19.8545C45.1733 19.6308 45.1013 19.3875 45.0753 19.1242C45.0623 19.0192 45.052 18.9173 45.0449 18.8187C45.039 18.719 45.0298 18.6231 45.0168 18.5305C45.0038 18.4395 44.9897 18.3452 44.9756 18.2466C44.9626 18.1469 44.9496 18.051 44.9366 17.9584C44.9106 17.8533 44.864 17.8002 44.7979 17.8002C44.7459 17.8002 44.7004 17.8208 44.6614 17.8609C44.1467 18.3219 43.6955 18.842 43.307 19.4211C42.9197 19.9992 42.5746 20.5978 42.2712 21.2176C42.2452 21.2696 42.2154 21.3254 42.1823 21.3844C42.1488 21.444 42.1195 21.5069 42.0935 21.573C42.0675 21.638 42.0312 21.6976 41.9852 21.7506C41.9386 21.8027 41.8833 21.8557 41.8183 21.9088C41.7647 21.9478 41.6986 21.9673 41.6189 21.9673Z" fill="white"/>
<path d="M49.477 23.5676C49.2267 23.5676 49.0598 23.429 48.9742 23.1516C48.8876 22.8753 48.8442 22.6255 48.8442 22.4018C48.8442 21.7707 48.9239 21.0702 49.0826 20.2998C49.2397 19.53 49.4336 18.7699 49.6633 18.0201C49.8941 17.2693 50.1152 16.5975 50.3264 16.0048C50.3915 15.8201 50.4532 15.6462 50.5128 15.4826C50.5719 15.3179 50.6347 15.15 50.7013 14.9777C50.7533 14.8336 50.7691 14.7317 50.749 14.6721C50.7301 14.6131 50.6612 14.5833 50.5431 14.5833H50.385C50.2533 14.5963 50.1217 14.6093 49.9906 14.6223C49.8589 14.6353 49.7273 14.6559 49.5962 14.683C49.4645 14.696 49.3296 14.7128 49.1909 14.7328C49.0523 14.7518 48.9174 14.7675 48.7857 14.7805C48.7066 14.7935 48.6243 14.8065 48.5387 14.8195C48.4536 14.8325 48.3713 14.839 48.2916 14.839C48.1865 14.839 48.1139 14.8325 48.0749 14.8195C48.0099 14.8065 47.9639 14.7675 47.9363 14.7025C47.9103 14.5714 47.9438 14.4982 48.0359 14.4836C48.0879 14.4706 48.1345 14.4576 48.1746 14.4446C48.2136 14.4316 48.2526 14.4186 48.2916 14.4056C48.3453 14.3926 48.3951 14.3834 48.4412 14.3774C48.4878 14.3704 48.5365 14.3601 48.5885 14.3471C48.7738 14.32 48.9547 14.2929 49.1324 14.2669C49.3101 14.2409 49.484 14.2214 49.6547 14.2084C49.8394 14.1824 50.0171 14.1596 50.1878 14.1391C50.3595 14.119 50.5307 14.1022 50.7013 14.0892C50.9381 14.0762 51.1028 13.9646 51.1954 13.7533L51.7285 12.5702C51.7805 12.4911 51.826 12.412 51.865 12.334C51.9051 12.2549 51.9517 12.1752 52.0037 12.0956C52.0438 12.0165 52.0866 11.9374 52.1316 11.8594C52.1776 11.7803 52.2274 11.7006 52.2811 11.621C52.4252 11.3843 52.5633 11.2656 52.695 11.2656C52.7741 11.2656 52.8337 11.3122 52.8727 11.4043C52.8998 11.536 52.8672 11.6806 52.7751 11.8377C52.6695 12.1021 52.5541 12.3659 52.4284 12.6287C52.3038 12.892 52.176 13.1547 52.0449 13.4174C52.0302 13.4451 52.0167 13.4781 52.0037 13.5171C51.9907 13.5561 51.9777 13.5897 51.9647 13.6168C51.9257 13.6948 51.9062 13.7869 51.9062 13.892C51.9582 13.905 52.0037 13.9153 52.0427 13.9224C52.0828 13.9283 52.1229 13.931 52.1619 13.931C52.215 13.931 52.2551 13.9245 52.2811 13.9115C52.3071 13.9115 52.3266 13.9115 52.3396 13.9115C52.3526 13.9115 52.3656 13.9115 52.3786 13.9115C52.656 13.8855 52.9425 13.8563 53.2389 13.8227C53.5347 13.7896 53.8478 13.7598 54.1772 13.7338C54.505 13.7078 54.817 13.6818 55.1133 13.6558C55.4108 13.6298 55.6973 13.6033 55.9736 13.5756H56.6844C56.7765 13.5756 56.8296 13.6417 56.8426 13.7728C56.8426 13.8785 56.8025 13.9451 56.7234 13.9722C56.6714 13.9852 56.6248 13.9955 56.5847 14.0025C56.5457 14.0085 56.5067 14.0112 56.4677 14.0112C56.4271 14.0242 56.3875 14.0307 56.3485 14.0307C56.3095 14.0307 56.2629 14.0372 56.2098 14.0502L51.9647 14.4251C51.6754 14.4511 51.4847 14.5827 51.3926 14.8195C51.274 15.0698 51.1326 15.4284 50.9679 15.8965C50.8032 16.3635 50.632 16.8668 50.4543 17.4069C50.2766 17.9475 50.1152 18.4611 49.9711 18.9476C49.8264 19.4346 49.7208 19.8225 49.6547 20.1113C49.575 20.4407 49.5122 20.7673 49.4662 21.0908C49.4212 21.4131 49.3849 21.7452 49.3578 22.0876C49.3448 22.2317 49.3345 22.3866 49.3275 22.5513C49.3215 22.716 49.3908 22.8574 49.5355 22.9761C49.6812 22.9614 49.8134 22.8948 49.9321 22.7767C49.9841 22.7117 50.0328 22.6494 50.0794 22.5903C50.1255 22.5307 50.1748 22.4744 50.2268 22.4213C50.4375 22.1586 50.691 21.82 50.9874 21.405C51.2832 20.9905 51.586 20.5664 51.8954 20.133C52.2041 19.6985 52.4902 19.303 52.7535 18.9476C53.0179 18.5922 53.2221 18.3419 53.3667 18.1957C53.3927 18.1567 53.4252 18.1177 53.4643 18.0786C53.5043 18.0386 53.5379 17.9985 53.5639 17.9595C53.63 17.8945 53.7097 17.8419 53.8023 17.8013C53.8153 17.8013 53.8283 17.7948 53.8413 17.7818C53.8543 17.7818 53.8608 17.7818 53.8608 17.7818C53.8608 17.7818 53.8673 17.7818 53.8803 17.7818C53.8933 17.7818 53.9394 17.7948 54.019 17.8208C54.1241 17.9004 54.1436 17.9996 54.0775 18.1177C54.0775 18.1567 54.058 18.1968 54.019 18.2368C53.8207 18.4741 53.5607 18.81 53.2389 19.2445C52.9165 19.6779 52.617 20.0853 52.3396 20.4667C52.0102 20.9147 51.6743 21.366 51.3319 21.821C50.9906 22.2745 50.6623 22.6857 50.346 23.0541C50.2533 23.1722 50.1249 23.287 49.9602 23.3986C49.7955 23.5113 49.6341 23.5676 49.477 23.5676Z" fill="white"/>
</svg>
