<svg xmlns="http://www.w3.org/2000/svg" xmlns:xlink="http://www.w3.org/1999/xlink" width="500" zoomAndPan="magnify" viewBox="0 0 375 374.999991" height="500" preserveAspectRatio="xMidYMid meet" version="1.0"><defs><g/></defs><g fill="#000000" fill-opacity="1"><g transform="translate(94.420458, 210.361858)"><g><path d="M 3.0625 0.359375 C 2.15625 0.359375 1.601562 0.296875 1.40625 0.171875 C 0.976562 -0.253906 0.644531 -1.078125 0.40625 -2.296875 L 0.296875 -4.359375 C 0.140625 -5.773438 0.03125 -7.21875 -0.03125 -8.6875 C -0.09375 -10.15625 -0.125 -11.65625 -0.125 -13.1875 C -0.125 -13.9375 -0.09375 -14.566406 -0.03125 -15.078125 C 0.03125 -15.585938 0.0976562 -16 0.171875 -16.3125 C 0.328125 -16.707031 0.679688 -17.023438 1.234375 -17.265625 C 1.898438 -17.535156 2.644531 -17.671875 3.46875 -17.671875 C 4.613281 -17.671875 5.1875 -17.4375 5.1875 -16.96875 L 5.1875 -16.90625 C 5.0625 -16.28125 4.929688 -15.316406 4.796875 -14.015625 C 4.660156 -12.722656 4.515625 -11.09375 4.359375 -9.125 L 4.296875 -8.59375 L 6.125 -11.84375 C 6.789062 -13.0625 7.546875 -14.226562 8.390625 -15.34375 C 9.234375 -16.46875 10.007812 -17.164062 10.71875 -17.4375 C 11.070312 -17.550781 11.40625 -17.609375 11.71875 -17.609375 C 12.9375 -17.609375 13.878906 -16.863281 14.546875 -15.375 C 14.742188 -14.90625 15.007812 -14.109375 15.34375 -12.984375 C 15.675781 -11.867188 16.039062 -10.40625 16.4375 -8.59375 L 16.96875 -6.359375 C 18.34375 -9.859375 19.816406 -12.664062 21.390625 -14.78125 C 21.546875 -15.09375 21.757812 -15.40625 22.03125 -15.71875 C 22.300781 -16.039062 22.632812 -16.335938 23.03125 -16.609375 C 23.5 -16.960938 24.066406 -17.140625 24.734375 -17.140625 C 25.835938 -17.140625 26.625 -16.507812 27.09375 -15.25 C 27.445312 -13.957031 27.625 -12.25 27.625 -10.125 C 27.625 -8.75 27.660156 -7.441406 27.734375 -6.203125 C 27.816406 -4.972656 27.992188 -3.960938 28.265625 -3.171875 C 28.546875 -2.390625 29 -1.941406 29.625 -1.828125 C 30.414062 -1.867188 31.65625 -3.179688 33.34375 -5.765625 L 34.21875 -7.015625 L 34.453125 -7.125 C 34.648438 -7.125 34.75 -7.023438 34.75 -6.828125 C 34.75 -6.796875 34.734375 -6.757812 34.703125 -6.71875 C 34.617188 -6.632812 34.519531 -6.476562 34.40625 -6.25 C 34.050781 -5.695312 33.628906 -5.046875 33.140625 -4.296875 C 32.648438 -3.554688 32.109375 -2.898438 31.515625 -2.328125 C 30.921875 -1.753906 30.289062 -1.445312 29.625 -1.40625 C 29 -1.488281 28.453125 -1.960938 27.984375 -2.828125 C 27.515625 -3.691406 27.109375 -4.757812 26.765625 -6.03125 C 26.429688 -7.3125 26.128906 -8.597656 25.859375 -9.890625 C 25.390625 -12.566406 24.976562 -13.921875 24.625 -13.953125 C 24.226562 -13.953125 23.539062 -12.875 22.5625 -10.71875 L 22.328125 -10.125 C 21.929688 -9.34375 21.578125 -8.539062 21.265625 -7.71875 C 20.953125 -6.894531 20.640625 -6.050781 20.328125 -5.1875 C 19.660156 -3.257812 19.109375 -2.082031 18.671875 -1.65625 C 18.160156 -1.144531 17.613281 -0.890625 17.03125 -0.890625 C 16.789062 -0.890625 16.515625 -0.945312 16.203125 -1.0625 C 15.492188 -1.375 14.941406 -1.84375 14.546875 -2.46875 C 14.148438 -2.90625 13.757812 -3.769531 13.375 -5.0625 C 13.09375 -5.570312 12.816406 -6.492188 12.546875 -7.828125 C 12.347656 -8.847656 12.140625 -9.835938 11.921875 -10.796875 C 11.710938 -11.765625 11.507812 -12.703125 11.3125 -13.609375 C 10.914062 -12.816406 10.40625 -11.664062 9.78125 -10.15625 C 9.15625 -8.644531 8.347656 -6.847656 7.359375 -4.765625 L 5.1875 0 C 5.03125 0.238281 4.320312 0.359375 3.0625 0.359375 Z M 3.0625 0.359375 "/></g></g></g><g fill="#000000" fill-opacity="1"><g transform="translate(125.818214, 210.361858)"><g><path d="M 7.78125 -0.40625 C 4.4375 -0.6875 2.117188 -1.984375 0.828125 -4.296875 C 0.117188 -5.671875 -0.234375 -7.265625 -0.234375 -9.078125 C -0.234375 -10.921875 0.429688 -12.804688 1.765625 -14.734375 C 2.671875 -15.984375 3.734375 -16.921875 4.953125 -17.546875 C 5.691406 -17.941406 6.515625 -18.140625 7.421875 -18.140625 C 8.484375 -18.140625 9.503906 -17.847656 10.484375 -17.265625 C 11.191406 -16.710938 11.601562 -16.082031 11.71875 -15.375 C 11.71875 -14.550781 11.328125 -13.507812 10.546875 -12.25 C 8.890625 -10.007812 6.867188 -8.085938 4.484375 -6.484375 C 4.515625 -6.203125 4.550781 -5.941406 4.59375 -5.703125 C 4.632812 -5.472656 4.691406 -5.257812 4.765625 -5.0625 C 5.003906 -4.351562 5.5 -3.726562 6.25 -3.1875 C 7.144531 -2.394531 8.179688 -2 9.359375 -2 C 9.992188 -2 10.820312 -2.15625 11.84375 -2.46875 C 11.957031 -2.507812 12.070312 -2.550781 12.1875 -2.59375 C 12.3125 -2.632812 12.429688 -2.671875 12.546875 -2.703125 C 12.628906 -2.742188 12.726562 -2.785156 12.84375 -2.828125 C 12.957031 -2.867188 13.070312 -2.910156 13.1875 -2.953125 C 14.09375 -3.378906 14.84375 -3.828125 15.4375 -4.296875 L 15.734375 -4.484375 L 17.203125 -6.015625 C 17.867188 -6.796875 18.28125 -7.1875 18.4375 -7.1875 C 18.519531 -7.1875 18.5625 -7.109375 18.5625 -6.953125 C 18.5625 -6.867188 18.539062 -6.8125 18.5 -6.78125 C 17.863281 -5.675781 17.3125 -4.847656 16.84375 -4.296875 C 16.53125 -3.941406 16.1875 -3.609375 15.8125 -3.296875 C 15.4375 -2.984375 15.035156 -2.671875 14.609375 -2.359375 C 14.140625 -2.003906 13.609375 -1.6875 13.015625 -1.40625 C 12.429688 -1.132812 11.804688 -0.921875 11.140625 -0.765625 C 10.078125 -0.523438 9.148438 -0.40625 8.359375 -0.40625 Z M 4.53125 -10.65625 C 5.789062 -11.5625 6.753906 -12.445312 7.421875 -13.3125 C 7.816406 -13.820312 8.015625 -14.195312 8.015625 -14.4375 C 8.015625 -14.664062 7.859375 -14.78125 7.546875 -14.78125 C 6.992188 -14.78125 6.460938 -14.410156 5.953125 -13.671875 C 5.316406 -12.804688 4.84375 -11.800781 4.53125 -10.65625 Z M 4.53125 -10.65625 "/></g></g></g><g fill="#000000" fill-opacity="1"><g transform="translate(141.311931, 210.361858)"><g><path d="M 3.0625 0.359375 C 2.15625 0.359375 1.601562 0.296875 1.40625 0.171875 C 0.976562 -0.253906 0.644531 -1.078125 0.40625 -2.296875 L 0.296875 -4.359375 C 0.140625 -5.773438 0.03125 -7.21875 -0.03125 -8.6875 C -0.09375 -10.15625 -0.125 -11.65625 -0.125 -13.1875 C -0.125 -13.9375 -0.09375 -14.566406 -0.03125 -15.078125 C 0.03125 -15.585938 0.0976562 -16 0.171875 -16.3125 C 0.328125 -16.707031 0.679688 -17.023438 1.234375 -17.265625 C 1.898438 -17.535156 2.644531 -17.671875 3.46875 -17.671875 C 4.613281 -17.671875 5.1875 -17.4375 5.1875 -16.96875 L 5.1875 -16.90625 C 5.0625 -16.28125 4.929688 -15.316406 4.796875 -14.015625 C 4.660156 -12.722656 4.515625 -11.09375 4.359375 -9.125 L 4.296875 -8.59375 L 6.125 -11.84375 C 6.789062 -13.0625 7.546875 -14.226562 8.390625 -15.34375 C 9.234375 -16.46875 10.007812 -17.164062 10.71875 -17.4375 C 11.070312 -17.550781 11.40625 -17.609375 11.71875 -17.609375 C 12.9375 -17.609375 13.878906 -16.863281 14.546875 -15.375 C 14.742188 -14.90625 15.007812 -14.109375 15.34375 -12.984375 C 15.675781 -11.867188 16.039062 -10.40625 16.4375 -8.59375 L 16.96875 -6.359375 C 18.34375 -9.859375 19.816406 -12.664062 21.390625 -14.78125 C 21.546875 -15.09375 21.757812 -15.40625 22.03125 -15.71875 C 22.300781 -16.039062 22.632812 -16.335938 23.03125 -16.609375 C 23.5 -16.960938 24.066406 -17.140625 24.734375 -17.140625 C 25.835938 -17.140625 26.625 -16.507812 27.09375 -15.25 C 27.445312 -13.957031 27.625 -12.25 27.625 -10.125 C 27.625 -8.75 27.660156 -7.441406 27.734375 -6.203125 C 27.816406 -4.972656 27.992188 -3.960938 28.265625 -3.171875 C 28.546875 -2.390625 29 -1.941406 29.625 -1.828125 C 30.414062 -1.867188 31.65625 -3.179688 33.34375 -5.765625 L 34.21875 -7.015625 L 34.453125 -7.125 C 34.648438 -7.125 34.75 -7.023438 34.75 -6.828125 C 34.75 -6.796875 34.734375 -6.757812 34.703125 -6.71875 C 34.617188 -6.632812 34.519531 -6.476562 34.40625 -6.25 C 34.050781 -5.695312 33.628906 -5.046875 33.140625 -4.296875 C 32.648438 -3.554688 32.109375 -2.898438 31.515625 -2.328125 C 30.921875 -1.753906 30.289062 -1.445312 29.625 -1.40625 C 29 -1.488281 28.453125 -1.960938 27.984375 -2.828125 C 27.515625 -3.691406 27.109375 -4.757812 26.765625 -6.03125 C 26.429688 -7.3125 26.128906 -8.597656 25.859375 -9.890625 C 25.390625 -12.566406 24.976562 -13.921875 24.625 -13.953125 C 24.226562 -13.953125 23.539062 -12.875 22.5625 -10.71875 L 22.328125 -10.125 C 21.929688 -9.34375 21.578125 -8.539062 21.265625 -7.71875 C 20.953125 -6.894531 20.640625 -6.050781 20.328125 -5.1875 C 19.660156 -3.257812 19.109375 -2.082031 18.671875 -1.65625 C 18.160156 -1.144531 17.613281 -0.890625 17.03125 -0.890625 C 16.789062 -0.890625 16.515625 -0.945312 16.203125 -1.0625 C 15.492188 -1.375 14.941406 -1.84375 14.546875 -2.46875 C 14.148438 -2.90625 13.757812 -3.769531 13.375 -5.0625 C 13.09375 -5.570312 12.816406 -6.492188 12.546875 -7.828125 C 12.347656 -8.847656 12.140625 -9.835938 11.921875 -10.796875 C 11.710938 -11.765625 11.507812 -12.703125 11.3125 -13.609375 C 10.914062 -12.816406 10.40625 -11.664062 9.78125 -10.15625 C 9.15625 -8.644531 8.347656 -6.847656 7.359375 -4.765625 L 5.1875 0 C 5.03125 0.238281 4.320312 0.359375 3.0625 0.359375 Z M 3.0625 0.359375 "/></g></g></g><g fill="#000000" fill-opacity="1"><g transform="translate(172.709687, 210.361858)"><g><path d="M 7.78125 -0.40625 C 4.4375 -0.6875 2.117188 -1.984375 0.828125 -4.296875 C 0.117188 -5.671875 -0.234375 -7.265625 -0.234375 -9.078125 C -0.234375 -10.921875 0.429688 -12.804688 1.765625 -14.734375 C 2.671875 -15.984375 3.734375 -16.921875 4.953125 -17.546875 C 5.691406 -17.941406 6.515625 -18.140625 7.421875 -18.140625 C 8.484375 -18.140625 9.503906 -17.847656 10.484375 -17.265625 C 11.191406 -16.710938 11.601562 -16.082031 11.71875 -15.375 C 11.71875 -14.550781 11.328125 -13.507812 10.546875 -12.25 C 8.890625 -10.007812 6.867188 -8.085938 4.484375 -6.484375 C 4.515625 -6.203125 4.550781 -5.941406 4.59375 -5.703125 C 4.632812 -5.472656 4.691406 -5.257812 4.765625 -5.0625 C 5.003906 -4.351562 5.5 -3.726562 6.25 -3.1875 C 7.144531 -2.394531 8.179688 -2 9.359375 -2 C 9.992188 -2 10.820312 -2.15625 11.84375 -2.46875 C 11.957031 -2.507812 12.070312 -2.550781 12.1875 -2.59375 C 12.3125 -2.632812 12.429688 -2.671875 12.546875 -2.703125 C 12.628906 -2.742188 12.726562 -2.785156 12.84375 -2.828125 C 12.957031 -2.867188 13.070312 -2.910156 13.1875 -2.953125 C 14.09375 -3.378906 14.84375 -3.828125 15.4375 -4.296875 L 15.734375 -4.484375 L 17.203125 -6.015625 C 17.867188 -6.796875 18.28125 -7.1875 18.4375 -7.1875 C 18.519531 -7.1875 18.5625 -7.109375 18.5625 -6.953125 C 18.5625 -6.867188 18.539062 -6.8125 18.5 -6.78125 C 17.863281 -5.675781 17.3125 -4.847656 16.84375 -4.296875 C 16.53125 -3.941406 16.1875 -3.609375 15.8125 -3.296875 C 15.4375 -2.984375 15.035156 -2.671875 14.609375 -2.359375 C 14.140625 -2.003906 13.609375 -1.6875 13.015625 -1.40625 C 12.429688 -1.132812 11.804688 -0.921875 11.140625 -0.765625 C 10.078125 -0.523438 9.148438 -0.40625 8.359375 -0.40625 Z M 4.53125 -10.65625 C 5.789062 -11.5625 6.753906 -12.445312 7.421875 -13.3125 C 7.816406 -13.820312 8.015625 -14.195312 8.015625 -14.4375 C 8.015625 -14.664062 7.859375 -14.78125 7.546875 -14.78125 C 6.992188 -14.78125 6.460938 -14.410156 5.953125 -13.671875 C 5.316406 -12.804688 4.84375 -11.800781 4.53125 -10.65625 Z M 4.53125 -10.65625 "/></g></g></g><g fill="#000000" fill-opacity="1"><g transform="translate(188.203405, 210.361858)"><g><path d="M 3.71875 0 C 3.320312 0 2.90625 -0.117188 2.46875 -0.359375 C 0.707031 -1.378906 -0.171875 -3.753906 -0.171875 -7.484375 C -0.171875 -8.035156 -0.148438 -8.613281 -0.109375 -9.21875 C -0.078125 -9.820312 -0.0195312 -10.476562 0.0625 -11.1875 C 0.289062 -13.3125 0.46875 -14.492188 0.59375 -14.734375 C 0.707031 -15.398438 1.039062 -15.945312 1.59375 -16.375 C 1.976562 -16.644531 2.445312 -16.78125 3 -16.78125 C 3.820312 -16.78125 4.472656 -16.429688 4.953125 -15.734375 C 5.265625 -15.296875 5.421875 -14.820312 5.421875 -14.3125 C 5.421875 -14 5.378906 -13.765625 5.296875 -13.609375 C 5.222656 -13.140625 5.125 -12.539062 5 -11.8125 C 4.882812 -11.082031 4.769531 -10.207031 4.65625 -9.1875 C 4.613281 -8.757812 4.582031 -8.335938 4.5625 -7.921875 C 4.539062 -7.503906 4.53125 -7.101562 4.53125 -6.71875 L 4.53125 -5.953125 C 4.613281 -6.023438 4.703125 -6.117188 4.796875 -6.234375 C 4.898438 -6.359375 4.988281 -6.476562 5.0625 -6.59375 C 6.082031 -8.007812 7.101562 -9.382812 8.125 -10.71875 C 9.144531 -12.050781 10.148438 -13.328125 11.140625 -14.546875 C 12.671875 -16.359375 14.082031 -17.265625 15.375 -17.265625 C 15.84375 -17.265625 16.273438 -17.144531 16.671875 -16.90625 C 18.117188 -16.15625 18.84375 -14.367188 18.84375 -11.546875 C 18.84375 -11.035156 18.820312 -10.503906 18.78125 -9.953125 C 18.75 -9.398438 18.691406 -8.832031 18.609375 -8.25 C 18.609375 -8.09375 18.597656 -7.9375 18.578125 -7.78125 C 18.566406 -7.625 18.539062 -7.445312 18.5 -7.25 C 18.414062 -6.65625 18.351562 -6.125 18.3125 -5.65625 C 18.28125 -5.1875 18.265625 -4.796875 18.265625 -4.484375 C 18.265625 -3.890625 18.34375 -3.414062 18.5 -3.0625 C 18.925781 -1.800781 19.632812 -1.171875 20.625 -1.171875 C 21.132812 -1.171875 21.722656 -1.390625 22.390625 -1.828125 C 23.765625 -2.734375 24.921875 -4.382812 25.859375 -6.78125 C 25.972656 -7.007812 26.09375 -7.125 26.21875 -7.125 C 26.375 -7.050781 26.472656 -6.953125 26.515625 -6.828125 C 25.765625 -4.828125 24.847656 -3.265625 23.765625 -2.140625 C 22.691406 -1.023438 21.601562 -0.46875 20.5 -0.46875 C 19.28125 -0.46875 18.238281 -1.132812 17.375 -2.46875 C 17.101562 -2.863281 16.878906 -3.304688 16.703125 -3.796875 C 16.523438 -4.285156 16.378906 -4.804688 16.265625 -5.359375 C 16.222656 -5.796875 16.125 -6.1875 15.96875 -6.53125 C 15.8125 -6.96875 15.703125 -7.398438 15.640625 -7.828125 C 15.578125 -8.265625 15.507812 -8.859375 15.4375 -9.609375 C 15.4375 -9.878906 15.425781 -10.128906 15.40625 -10.359375 C 15.382812 -10.597656 15.351562 -10.816406 15.3125 -11.015625 C 15.238281 -12.117188 15.140625 -12.785156 15.015625 -13.015625 L 15.015625 -13.078125 C 14.898438 -12.921875 14.722656 -12.65625 14.484375 -12.28125 C 14.253906 -11.90625 13.941406 -11.425781 13.546875 -10.84375 C 12.097656 -8.601562 10.800781 -6.707031 9.65625 -5.15625 C 8.519531 -3.601562 7.5625 -2.375 6.78125 -1.46875 C 5.675781 -0.488281 4.65625 0 3.71875 0 Z M 3.71875 0 "/></g></g></g><g fill="#000000" fill-opacity="1"><g transform="translate(211.590238, 210.361858)"><g><path d="M 3.296875 15.84375 C 2.390625 15.84375 1.523438 12.503906 0.703125 5.828125 C 0.316406 2.648438 0.0351562 -0.769531 -0.140625 -4.4375 C -0.316406 -8.113281 -0.40625 -12.035156 -0.40625 -16.203125 C -0.40625 -22.171875 -0.382812 -27.253906 -0.34375 -31.453125 C -0.3125 -35.660156 -0.253906 -38.960938 -0.171875 -41.359375 C -2.921875 -40.878906 -5.71875 -40.304688 -8.5625 -39.640625 C -11.414062 -38.972656 -14.195312 -38.273438 -16.90625 -37.546875 C -19.613281 -36.828125 -22.113281 -36.101562 -24.40625 -35.375 C -26.707031 -34.644531 -28.679688 -34.003906 -30.328125 -33.453125 C -31.984375 -32.910156 -33.164062 -32.476562 -33.875 -32.15625 C -33.519531 -30.394531 -34.421875 -29.726562 -36.578125 -30.15625 C -37.210938 -30.3125 -37.820312 -30.523438 -38.40625 -30.796875 C -39 -31.078125 -39.390625 -31.453125 -39.578125 -31.921875 C -39.859375 -32.753906 -39.78125 -33.59375 -39.34375 -34.4375 C -38.914062 -35.28125 -38.148438 -35.894531 -37.046875 -36.28125 C -35.085938 -36.988281 -32.625 -37.722656 -29.65625 -38.484375 C -26.695312 -39.253906 -23.488281 -39.984375 -20.03125 -40.671875 C -16.570312 -41.359375 -13.113281 -41.992188 -9.65625 -42.578125 C -6.207031 -43.171875 -3.007812 -43.644531 -0.0625 -44 C 0.132812 -49.695312 0.367188 -54.332031 0.640625 -57.90625 C 1.585938 -59.082031 2.515625 -59.671875 3.421875 -59.671875 C 3.734375 -59.671875 4.125 -59.519531 4.59375 -59.21875 C 5.0625 -58.925781 5.296875 -58.507812 5.296875 -57.96875 C 5.140625 -56.28125 4.984375 -54.316406 4.828125 -52.078125 C 4.671875 -49.835938 4.515625 -47.320312 4.359375 -44.53125 C 6.953125 -44.96875 9.726562 -45.359375 12.6875 -45.703125 C 15.65625 -46.054688 18.640625 -46.351562 21.640625 -46.59375 C 24.648438 -46.832031 27.53125 -47.019531 30.28125 -47.15625 C 33.03125 -47.289062 35.503906 -47.367188 37.703125 -47.390625 C 39.898438 -47.410156 41.628906 -47.378906 42.890625 -47.296875 C 43.273438 -47.265625 43.476562 -47.0625 43.5 -46.6875 C 43.519531 -46.3125 43.351562 -46.125 43 -46.125 C 41.738281 -46.125 40.019531 -46.082031 37.84375 -46 C 35.664062 -45.925781 33.203125 -45.789062 30.453125 -45.59375 C 27.703125 -45.394531 24.804688 -45.148438 21.765625 -44.859375 C 18.722656 -44.566406 15.695312 -44.210938 12.6875 -43.796875 C 9.6875 -43.378906 6.851562 -42.898438 4.1875 -42.359375 C 3.875 -37.441406 3.632812 -28.9375 3.46875 -16.84375 C 3.4375 -13.15625 3.359375 -9.71875 3.234375 -6.53125 C 3.117188 -3.351562 3.0625 -0.453125 3.0625 2.171875 L 3.0625 5.53125 C 3.0625 6.75 3.085938 7.992188 3.140625 9.265625 C 3.203125 10.546875 3.3125 11.835938 3.46875 13.140625 C 3.632812 13.804688 3.71875 14.414062 3.71875 14.96875 C 3.71875 15.4375 3.617188 15.726562 3.421875 15.84375 Z M 3.296875 15.84375 "/></g></g></g><g fill="#000000" fill-opacity="1"><g transform="translate(219.308647, 210.361858)"><g><path d="M 6.359375 0.234375 C 5.960938 0.234375 5.550781 0.175781 5.125 0.0625 C 3.082031 -0.488281 1.492188 -2.082031 0.359375 -4.71875 C -0.234375 -6.320312 -0.53125 -8.242188 -0.53125 -10.484375 C -0.53125 -11.035156 -0.507812 -11.578125 -0.46875 -12.109375 C -0.425781 -12.640625 -0.367188 -13.160156 -0.296875 -13.671875 C -0.179688 -14.253906 0.0820312 -14.691406 0.5 -14.984375 C 0.914062 -15.285156 1.359375 -15.4375 1.828125 -15.4375 L 2.125 -15.4375 C 2.675781 -16.21875 3.285156 -16.804688 3.953125 -17.203125 C 4.847656 -17.671875 5.769531 -17.90625 6.71875 -17.90625 C 8.320312 -17.90625 9.695312 -17.335938 10.84375 -16.203125 C 12.375 -14.703125 13.21875 -12.738281 13.375 -10.3125 L 13.375 -9.71875 C 13.375 -8.300781 13.140625 -6.90625 12.671875 -5.53125 L 12.375 -4.828125 L 13.078125 -4.765625 C 16.097656 -4.765625 17.84375 -6.492188 18.3125 -9.953125 C 18.3125 -10.109375 18.410156 -10.1875 18.609375 -10.1875 C 18.734375 -10.1875 18.796875 -10.109375 18.796875 -9.953125 C 18.597656 -7.640625 17.847656 -6.03125 16.546875 -5.125 C 15.566406 -4.375 14.367188 -4 12.953125 -4 L 12.015625 -4.0625 C 11.742188 -3.507812 11.441406 -3.007812 11.109375 -2.5625 C 10.773438 -2.113281 10.410156 -1.691406 10.015625 -1.296875 C 8.753906 -0.273438 7.535156 0.234375 6.359375 0.234375 Z M 3.71875 -8.359375 C 3.945312 -6.085938 4.628906 -4.597656 5.765625 -3.890625 C 5.960938 -3.773438 6.160156 -3.71875 6.359375 -3.71875 C 6.984375 -3.71875 7.59375 -4.164062 8.1875 -5.0625 C 6.5 -5.851562 5.007812 -6.953125 3.71875 -8.359375 Z M 3.765625 -11.484375 C 3.765625 -10.617188 4.140625 -9.738281 4.890625 -8.84375 C 5.867188 -7.625 7.144531 -6.640625 8.71875 -5.890625 C 9.382812 -7.304688 9.71875 -8.738281 9.71875 -10.1875 C 9.675781 -11.363281 9.367188 -12.375 8.796875 -13.21875 C 8.234375 -14.0625 7.5 -14.503906 6.59375 -14.546875 C 5.769531 -14.546875 5.144531 -14.253906 4.71875 -13.671875 C 4.082031 -13.035156 3.765625 -12.304688 3.765625 -11.484375 Z M 3.765625 -11.484375 "/></g></g></g><g fill="#000000" fill-opacity="1"><g transform="translate(234.566757, 210.361858)"><g><path d="M 16.140625 7.953125 C 14.015625 7.953125 12.953125 7.050781 12.953125 5.25 C 12.953125 4.382812 13.328125 3.632812 14.078125 3 C 14.347656 2.769531 14.671875 2.535156 15.046875 2.296875 C 15.421875 2.054688 15.84375 1.800781 16.3125 1.53125 C 17.332031 1.019531 18.5625 0.472656 20 -0.109375 C 21.4375 -0.703125 23.078125 -1.332031 24.921875 -2 C 25.148438 -2.4375 25.265625 -2.8125 25.265625 -3.125 C 25.265625 -3.632812 25.085938 -4.085938 24.734375 -4.484375 C 24.109375 -5.421875 22.207031 -5.890625 19.03125 -5.890625 C 18.519531 -5.890625 18 -5.878906 17.46875 -5.859375 C 16.9375 -5.835938 16.394531 -5.804688 15.84375 -5.765625 L 6.828125 -5.296875 L 4 -5.296875 C 2.75 -5.378906 1.71875 -5.675781 0.90625 -6.1875 C 0.101562 -6.695312 -0.296875 -7.460938 -0.296875 -8.484375 L -0.296875 -8.71875 C -0.0976562 -9.695312 0.375 -10.5625 1.125 -11.3125 C 1.632812 -11.738281 2.113281 -12.128906 2.5625 -12.484375 C 3.007812 -12.835938 3.453125 -13.113281 3.890625 -13.3125 C 5.222656 -14.21875 6.535156 -14.925781 7.828125 -15.4375 L 9.609375 -16.140625 L 9.609375 -16.203125 C 11.609375 -17.023438 13.664062 -17.613281 15.78125 -17.96875 C 16.375 -18.039062 16.9375 -18.109375 17.46875 -18.171875 C 18 -18.234375 18.5 -18.265625 18.96875 -18.265625 C 20.226562 -18.265625 21.171875 -18.085938 21.796875 -17.734375 C 22.578125 -17.265625 23.054688 -16.78125 23.234375 -16.28125 C 23.410156 -15.789062 23.519531 -15.273438 23.5625 -14.734375 C 23.5625 -13.941406 22.816406 -12.859375 21.328125 -11.484375 C 20.890625 -11.210938 20.394531 -11.078125 19.84375 -11.078125 C 19.65625 -11.078125 19.34375 -11.132812 18.90625 -11.25 C 18.394531 -11.332031 17.941406 -11.6875 17.546875 -12.3125 C 17.273438 -12.738281 17.140625 -13.226562 17.140625 -13.78125 L 17.140625 -14.078125 C 16.554688 -14.316406 15.632812 -14.4375 14.375 -14.4375 C 13.707031 -14.4375 13.03125 -14.40625 12.34375 -14.34375 C 11.65625 -14.28125 10.976562 -14.171875 10.3125 -14.015625 C 8.5 -13.503906 6.789062 -12.679688 5.1875 -11.546875 L 4.890625 -11.3125 C 3.273438 -10.289062 2.410156 -9.347656 2.296875 -8.484375 L 2.65625 -8.3125 C 2.925781 -8.269531 3.175781 -8.238281 3.40625 -8.21875 C 3.644531 -8.195312 3.882812 -8.1875 4.125 -8.1875 C 4.90625 -8.1875 5.671875 -8.242188 6.421875 -8.359375 L 6.65625 -8.421875 C 8.851562 -8.703125 10.707031 -8.9375 12.21875 -9.125 C 13.726562 -9.320312 14.878906 -9.460938 15.671875 -9.546875 C 16.453125 -9.617188 17.242188 -9.6875 18.046875 -9.75 C 18.859375 -9.8125 19.695312 -9.84375 20.5625 -9.84375 C 24.007812 -9.84375 26.460938 -8.957031 27.921875 -7.1875 C 28.828125 -6.164062 29.335938 -5.085938 29.453125 -3.953125 C 30.828125 -4.578125 31.992188 -5.234375 32.953125 -5.921875 C 33.921875 -6.609375 34.660156 -7.34375 35.171875 -8.125 C 35.203125 -8.28125 35.335938 -8.359375 35.578125 -8.359375 C 35.617188 -8.359375 35.6875 -8.328125 35.78125 -8.265625 C 35.882812 -8.210938 35.9375 -8.109375 35.9375 -7.953125 L 35.875 -7.71875 C 34.769531 -5.945312 32.648438 -4.359375 29.515625 -2.953125 C 29.316406 -0.867188 28.351562 1.078125 26.625 2.890625 C 25.71875 3.867188 24.738281 4.710938 23.6875 5.421875 C 20.9375 7.109375 18.421875 7.953125 16.140625 7.953125 Z M 15.3125 4.828125 C 15.3125 4.867188 15.351562 5.007812 15.4375 5.25 L 15.5 5.1875 C 15.84375 5.1875 16.078125 5.125 16.203125 5 C 16.785156 4.8125 17.398438 4.53125 18.046875 4.15625 C 18.703125 3.78125 19.398438 3.316406 20.140625 2.765625 L 21.140625 1.9375 C 21.460938 1.75 21.804688 1.484375 22.171875 1.140625 C 22.546875 0.804688 22.96875 0.40625 23.4375 -0.0625 L 23.6875 -0.359375 C 22.425781 0.148438 21.265625 0.660156 20.203125 1.171875 C 19.140625 1.679688 18.175781 2.210938 17.3125 2.765625 C 15.976562 3.585938 15.3125 4.273438 15.3125 4.828125 Z M 15.3125 4.828125 "/></g></g></g><g fill="#000000" fill-opacity="1"><g transform="translate(266.789174, 210.361858)"><g><path d="M 6.65625 -6.421875 C 5.988281 -6.421875 5.425781 -6.65625 4.96875 -7.125 C 4.519531 -7.59375 4.296875 -8.144531 4.296875 -8.78125 C 4.296875 -9.445312 4.519531 -10.003906 4.96875 -10.453125 C 5.425781 -10.910156 5.988281 -11.140625 6.65625 -11.140625 C 7.320312 -11.140625 7.878906 -10.910156 8.328125 -10.453125 C 8.785156 -10.003906 9.015625 -9.445312 9.015625 -8.78125 C 9.015625 -8.144531 8.785156 -7.59375 8.328125 -7.125 C 7.878906 -6.65625 7.320312 -6.421875 6.65625 -6.421875 Z M 6.65625 -6.421875 "/></g></g></g></svg>