<svg width="74" height="24" viewBox="0 0 74 24" fill="none" xmlns="http://www.w3.org/2000/svg">
<path d="M0.2867 9.66457V9.4873C0.495159 9.42328 0.637961 9.28705 0.715655 9.07804C0.792801 8.86794 0.831648 8.48604 0.831648 7.93124V2.38984C0.831648 1.87061 0.799367 1.46792 0.735352 1.18176C0.672431 0.894516 0.579965 0.687151 0.457406 0.560216C0.334848 0.43328 0.182197 0.342455 0 0.286647V0.109375H1.65235L5.21312 5.99219L8.70823 0.109375H10.2512V0.286647C10.0684 0.342455 9.91631 0.43328 9.79375 0.560216C9.67119 0.687151 9.57763 0.894516 9.51361 1.18176C9.44905 1.46792 9.41732 1.87061 9.41732 2.38984V7.93124C9.41732 8.48604 9.45562 8.86794 9.53331 9.07804C9.61046 9.28705 9.75435 9.42328 9.96445 9.4873V9.66457H7.75183V9.4873C7.96193 9.42328 8.10528 9.28705 8.18298 9.07804C8.26012 8.86794 8.29897 8.48604 8.29897 7.93124V1.21459L4.83231 7.07114H4.57187L1.07895 1.32402V7.38411C1.07895 7.90389 1.11452 8.30494 1.18619 8.58781C1.25896 8.86958 1.36346 9.07585 1.49915 9.20716C1.63594 9.33848 1.80555 9.43204 2.0069 9.4873V9.66457H0.2867Z" fill="#333431"/>
<path d="M11.6426 9.66457V9.4873C11.8527 9.42328 11.996 9.28705 12.0737 9.07804C12.1509 8.86794 12.1897 8.48604 12.1897 7.93124V1.8427C12.1897 1.2797 12.1509 0.896158 12.0737 0.691528C11.996 0.485805 11.8527 0.351209 11.6426 0.286647V0.109375H17.9894L18.1404 1.88429L17.9894 1.92587C17.753 1.32511 17.4231 0.906006 17.0001 0.669643C16.5767 0.43328 16.0153 0.315098 15.315 0.315098H13.3081V4.44926H15.0545C15.5738 4.44926 15.9764 4.41589 16.2626 4.34859C16.5498 4.2802 16.7594 4.1757 16.8907 4.03563C17.0231 3.89447 17.1167 3.72267 17.1708 3.52132H17.335V5.58293H17.1708C17.1167 5.37447 17.0231 5.20212 16.8907 5.06643C16.7594 4.92965 16.5498 4.82679 16.2626 4.75785C15.9764 4.68946 15.5738 4.65499 15.0545 4.65499H13.3081V8.84606C13.3081 9.25477 13.5127 9.45885 13.923 9.45885H15.6958C16.3523 9.45885 16.894 9.34614 17.3219 9.11962C17.7492 8.89201 18.0857 8.45978 18.3308 7.82182L18.4818 7.84808L18.3724 9.66457H11.6426Z" fill="#333431"/>
<path d="M19.6695 9.66457V9.4873C19.878 9.42328 20.0208 9.28705 20.0985 9.07804C20.1756 8.86794 20.2145 8.48604 20.2145 7.93124V2.38984C20.2145 1.87061 20.1822 1.46792 20.1182 1.18176C20.0552 0.894516 19.9628 0.687151 19.8402 0.560216C19.7177 0.43328 19.565 0.342455 19.3828 0.286647V0.109375H21.0352L24.5959 5.99219L28.091 0.109375H29.634V0.286647C29.4512 0.342455 29.2991 0.43328 29.1766 0.560216C29.054 0.687151 28.9604 0.894516 28.8964 1.18176C28.8319 1.46792 28.8001 1.87061 28.8001 2.38984V7.93124C28.8001 8.48604 28.8384 8.86794 28.9161 9.07804C28.9933 9.28705 29.1372 9.42328 29.3473 9.4873V9.66457H27.1346V9.4873C27.3447 9.42328 27.4881 9.28705 27.5658 9.07804C27.6429 8.86794 27.6818 8.48604 27.6818 7.93124V1.21459L24.2151 7.07114H23.9547L20.4618 1.32402V7.38411C20.4618 7.90389 20.4973 8.30494 20.569 8.58781C20.6418 8.86958 20.7463 9.07585 20.882 9.20716C21.0188 9.33848 21.1884 9.43204 21.3897 9.4873V9.66457H19.6695Z" fill="#333431"/>
<path d="M31.0273 9.66457V9.4873C31.2374 9.42328 31.3808 9.28705 31.4585 9.07804C31.5356 8.86794 31.5745 8.48604 31.5745 7.93124V1.8427C31.5745 1.2797 31.5356 0.896158 31.4585 0.691528C31.3808 0.485805 31.2374 0.351209 31.0273 0.286647V0.109375H37.3741L37.5251 1.88429L37.3741 1.92587C37.1378 1.32511 36.8078 0.906006 36.3849 0.669643C35.9614 0.43328 35.4001 0.315098 34.6997 0.315098H32.6928V4.44926H34.4393C34.9585 4.44926 35.3612 4.41589 35.6474 4.34859C35.9346 4.2802 36.1442 4.1757 36.2755 4.03563C36.4079 3.89447 36.5014 3.72267 36.5556 3.52132H36.7198V5.58293H36.5556C36.5014 5.37447 36.4079 5.20212 36.2755 5.06643C36.1442 4.92965 35.9346 4.82679 35.6474 4.75785C35.3612 4.68946 34.9585 4.65499 34.4393 4.65499H32.6928V8.84606C32.6928 9.25477 32.8975 9.45885 33.3078 9.45885H35.0805C35.7371 9.45885 36.2788 9.34614 36.7066 9.11962C37.1339 8.89201 37.4704 8.45978 37.7155 7.82182L37.8666 7.84808L37.7571 9.66457H31.0273Z" fill="#333431"/>
<path d="M46.2739 9.774L39.8461 1.40718V7.38411C39.8461 7.90389 39.8817 8.30494 39.9534 8.58781C40.0262 8.86958 40.1334 9.07585 40.2751 9.20716C40.4163 9.33848 40.587 9.43204 40.7872 9.4873V9.66457H39.0802V9.4873C39.2903 9.42328 39.4336 9.28705 39.5113 9.07804C39.5884 8.86794 39.6273 8.48604 39.6273 7.93124V1.8427C39.6273 1.2797 39.577 0.896158 39.4763 0.691528C39.3767 0.485805 39.1901 0.351209 38.916 0.286647V0.109375H40.2554L46.2192 7.83495V2.38984C46.2192 1.87061 46.1825 1.46792 46.1098 1.18176C46.0365 0.894516 45.9314 0.687151 45.7946 0.560216C45.6589 0.43328 45.4866 0.342455 45.2781 0.286647V0.109375H46.9983V0.286647C46.7882 0.351209 46.6443 0.485805 46.5672 0.691528C46.4895 0.896158 46.4512 1.2797 46.4512 1.8427V9.774H46.2739Z" fill="#333431"/>
<path d="M50.2608 9.66262V9.48535C50.4709 9.42133 50.6143 9.28509 50.6919 9.07609C50.7691 8.86599 50.8079 8.48409 50.8079 7.92929V0.326277H50.1382C49.5282 0.326277 49.0642 0.422026 48.7463 0.612976C48.4279 0.804474 48.15 1.14589 47.9125 1.63722L47.7637 1.60877L47.8446 0.107422H54.8743L54.9574 1.60877L54.8064 1.63722C54.5788 1.14589 54.3058 0.804474 53.9879 0.612976C53.6695 0.422026 53.2006 0.326277 52.5807 0.326277H51.9394V7.92929C51.9394 8.48409 51.9777 8.86599 52.0554 9.07609C52.1326 9.28509 52.2765 9.42133 52.4866 9.48535V9.66262H50.2608Z" fill="#333431"/>
<path d="M60.7612 9.80031C60.179 9.80031 59.6012 9.70238 59.0278 9.50705C58.4544 9.31172 57.9303 9.01189 57.4564 8.60756C56.9837 8.20213 56.6056 7.69001 56.3228 7.0712C56.041 6.45293 55.9004 5.72031 55.9004 4.87389C55.9004 3.9361 56.105 3.10062 56.5154 2.36801C56.9252 1.63594 57.4942 1.05816 58.2224 0.634679C58.9501 0.211742 59.7966 0 60.7612 0C61.3346 0 61.9069 0.100673 62.4792 0.30202C63.0526 0.502272 63.5734 0.804838 64.0418 1.21027C64.5112 1.6146 64.8871 2.12617 65.1689 2.74444C65.4518 3.36325 65.5935 4.09149 65.5935 4.92861C65.5935 5.77503 65.4518 6.50327 65.1689 7.11278C64.8871 7.72284 64.509 8.22784 64.0352 8.62725C63.5625 9.02721 63.0416 9.32266 62.4726 9.51361C61.9047 9.70457 61.3346 9.80031 60.7612 9.80031ZM56.9925 4.08164C57.0198 4.76447 57.1457 5.42705 57.3689 6.06884C57.5921 6.70954 57.8969 7.28513 58.2837 7.7956C58.67 8.30499 59.1225 8.70987 59.6406 9.01025C60.1599 9.30953 60.7245 9.4589 61.3346 9.4589C62.0622 9.4589 62.6674 9.30023 63.1489 8.9818C63.6314 8.66391 63.9893 8.23003 64.2212 7.67961C64.4532 7.1281 64.555 6.51093 64.5276 5.8281C64.4997 5.11901 64.3744 4.43509 64.1512 3.77524C63.9291 3.11594 63.6271 2.52722 63.2452 2.00909C62.8627 1.48985 62.4119 1.07786 61.8926 0.772557C61.3745 0.467802 60.8104 0.315151 60.2009 0.315151C59.5093 0.315151 58.9195 0.474368 58.4325 0.792254C57.9467 1.11069 57.5779 1.55168 57.3273 2.11632C57.0778 2.68097 56.9662 3.33644 56.9925 4.08164Z" fill="#333431"/>
<path d="M70.1764 9.7989C69.4569 9.7989 68.8107 9.6944 68.2373 9.48594C67.6639 9.27584 67.218 9.05808 66.9001 8.83156L66.8301 6.93409L66.9811 6.90564C67.1633 7.37837 67.4018 7.81772 67.6967 8.22315C67.9927 8.62912 68.3686 8.95193 68.8238 9.19267C69.2791 9.43341 69.8202 9.55379 70.4477 9.55379C70.8121 9.55379 71.1492 9.47883 71.4589 9.32836C71.768 9.17845 72.0158 8.96671 72.203 8.69369C72.3895 8.42121 72.4831 8.10278 72.4831 7.73948C72.4831 7.39369 72.3917 7.09331 72.2095 6.8378C72.0268 6.58283 71.7899 6.3596 71.4982 6.1681C71.2077 5.97715 70.9008 5.81137 70.5769 5.6713C70.2541 5.53014 69.9477 5.39992 69.6577 5.28174C69.1204 5.06289 68.6537 4.84294 68.257 4.6208C67.8614 4.39757 67.5567 4.12947 67.3422 3.81541C67.1288 3.50026 67.0227 3.10195 67.0227 2.62047C67.0227 2.08373 67.1611 1.62194 67.4385 1.23512C67.7153 0.848838 68.1044 0.547913 68.605 0.333435C69.1051 0.118958 69.6883 0.0117188 70.3536 0.0117188C70.9719 0.0117188 71.5037 0.0806581 71.9491 0.217442C72.3956 0.354774 72.7506 0.495388 73.0149 0.639832L73.0696 2.22434L72.9317 2.26592C72.6779 1.67392 72.3069 1.18642 71.82 0.803973C71.3325 0.422071 70.6978 0.230573 69.9159 0.230573C69.5526 0.230573 69.2134 0.301701 68.8983 0.442863C68.5842 0.584571 68.3342 0.787559 68.1476 1.05128C67.9605 1.3139 67.8674 1.64164 67.8674 2.03394C67.8674 2.35237 67.9446 2.62922 68.0994 2.86558C68.2554 3.10195 68.4605 3.30712 68.7144 3.48057C68.9694 3.65291 69.2468 3.80557 69.5461 3.93797C69.8464 4.06929 70.1424 4.19403 70.4346 4.31221C70.9435 4.51247 71.4216 4.72585 71.8681 4.95346C72.3146 5.18107 72.6762 5.45901 72.9536 5.78729C73.2305 6.11448 73.3695 6.53742 73.3695 7.05665C73.3695 7.6202 73.2146 8.1088 72.9055 8.52298C72.5958 8.93771 72.1975 9.25395 71.7105 9.47281C71.2247 9.69002 70.7131 9.7989 70.1764 9.7989Z" fill="#333431"/>
<path d="M20.0817 24.0017C19.9225 24.0017 19.8093 23.9022 19.7425 23.7041C19.7294 23.6499 19.719 23.6034 19.7119 23.564C19.7059 23.5246 19.7097 23.4776 19.7228 23.424C19.7228 23.3041 19.7163 23.2248 19.7031 23.1854C19.783 22.1612 19.9395 21.1041 20.1715 20.0142C20.4046 18.9243 20.6869 17.841 21.0184 16.7642C21.3511 15.6875 21.7199 14.6304 22.1258 13.593C22.5313 12.5556 22.94 11.5785 23.3514 10.6604C23.3919 10.5947 23.4324 10.5291 23.4718 10.4634C23.5123 10.3966 23.5528 10.3293 23.5922 10.2621C23.6184 10.2358 23.6513 10.2227 23.6907 10.2227C23.851 10.2227 23.9314 10.2894 23.9314 10.4218C23.9314 10.5154 23.9106 10.6155 23.8701 10.7216C23.8439 10.8152 23.811 10.9049 23.7716 10.9908C23.7322 11.0773 23.6918 11.167 23.6513 11.26C23.6119 11.3536 23.5714 11.4471 23.5309 11.5402C23.4915 11.6321 23.4521 11.7251 23.4127 11.8181C23.0669 12.6164 22.7277 13.4573 22.395 14.3415C22.0624 15.2257 21.7565 16.1197 21.478 17.0225C21.199 17.9406 20.9561 18.8619 20.7493 19.7866C20.5435 20.7102 20.3936 21.6108 20.3006 22.4873C20.2875 22.5135 20.2809 22.5797 20.2809 22.6864C20.2809 22.7663 20.294 22.8199 20.3203 22.8462C20.3345 22.8593 20.3553 22.8659 20.3816 22.8659C20.421 22.8659 20.4538 22.832 20.4801 22.7652C20.5468 22.6454 20.6136 22.5256 20.6792 22.4063C20.746 22.2865 20.8133 22.1601 20.8806 22.0277C21.1065 21.5626 21.3992 20.9772 21.7582 20.2725C22.4891 18.8499 23.3525 17.3152 24.3494 15.6678C24.8539 14.87 25.3523 14.1314 25.8442 13.453C26.3503 12.7893 26.8427 12.2219 27.3215 11.7503C27.7997 11.2775 28.245 10.9881 28.6565 10.8814C28.7232 10.8683 28.7834 10.8584 28.8359 10.8508C28.8896 10.8437 28.93 10.8398 28.9563 10.8398C29.3021 10.8398 29.5543 11.0204 29.7135 11.3804C29.754 11.4854 29.7907 11.5916 29.823 11.6977C29.8563 11.8044 29.8667 11.9111 29.8536 12.0173C29.8536 12.0846 29.8536 12.1546 29.8536 12.2274C29.8536 12.3007 29.8602 12.3696 29.8733 12.4353C29.8733 12.5026 29.8695 12.5726 29.8624 12.6454C29.8563 12.7187 29.847 12.7887 29.8339 12.8555C29.7141 13.7063 29.5078 14.5177 29.2145 15.2891C28.9224 16.0595 28.5241 16.7971 28.0196 17.5018C27.8325 17.7545 27.5731 18.0505 27.2405 18.3903C26.9089 18.729 26.5538 19.0217 26.1747 19.2679C25.7949 19.513 25.4393 19.6356 25.1066 19.6356C24.6558 19.6356 24.3965 19.4228 24.3297 18.9965C24.223 18.4396 24.3494 17.9542 24.7083 17.5412C24.8145 17.3956 24.9409 17.2758 25.087 17.1822C25.2325 17.0892 25.3857 17.0028 25.5465 16.924C25.5597 16.9109 25.5794 16.9043 25.6056 16.9043H25.6866C25.7917 16.9043 25.8579 16.9371 25.8858 17.0028C25.9646 17.1226 25.9503 17.2227 25.8442 17.3026C25.8048 17.3289 25.7643 17.359 25.7238 17.3923C25.6844 17.4263 25.645 17.4558 25.6056 17.4821C25.5662 17.5083 25.5258 17.5346 25.4853 17.5609C25.4459 17.5871 25.4065 17.6145 25.3671 17.6418C25.1668 17.7748 25.0268 17.9373 24.9469 18.1299C24.8681 18.3225 24.8221 18.532 24.809 18.758C24.809 18.9041 24.8484 19.0004 24.9272 19.0469C25.0071 19.0939 25.1138 19.1169 25.2467 19.1169C25.3791 19.0906 25.5017 19.0447 25.6144 18.979C25.7282 18.9123 25.8382 18.845 25.9449 18.7777C26.6102 18.352 27.1748 17.8071 27.6388 17.1428C28.1039 16.4775 28.4759 15.7564 28.755 14.9784C29.0351 14.2009 29.2282 13.4398 29.3349 12.6957C29.3743 12.3631 29.3677 12.0774 29.3152 11.8378C29.2627 11.5183 29.1363 11.3585 28.9366 11.3585C28.843 11.3585 28.7232 11.399 28.5777 11.4789C28.3906 11.5724 28.1947 11.7021 27.989 11.8684C27.7832 12.0348 27.5671 12.2312 27.3412 12.4572C26.9018 12.908 26.4625 13.4398 26.0236 14.0526C25.5859 14.6643 25.1537 15.3154 24.728 16.007C24.3166 16.6975 23.9183 17.3748 23.5331 18.0401C23.3328 18.4122 23.1162 18.8143 22.8831 19.246C22.6511 19.6783 22.4388 20.0875 22.2462 20.4738C22.0536 20.859 21.8906 21.1714 21.7582 21.4105C21.6777 21.5697 21.5973 21.7295 21.5174 21.8898C21.4386 22.049 21.3588 22.2077 21.2789 22.3669C21.1984 22.5272 21.118 22.687 21.0381 22.8462C20.9594 23.0049 20.8729 23.1575 20.7799 23.3036C20.7536 23.3572 20.7235 23.4108 20.6902 23.4634C20.6562 23.517 20.6267 23.5706 20.6004 23.6231C20.5479 23.7161 20.468 23.8031 20.3619 23.8836C20.2814 23.9624 20.1879 24.0017 20.0817 24.0017Z" fill="#333431"/>
<path d="M30.6324 22.4862C30.6192 22.4862 30.6094 22.4862 30.6017 22.4862C30.5946 22.4862 30.5842 22.4862 30.5711 22.4862C30.5711 22.473 30.5579 22.4665 30.5317 22.4665C30.3993 22.4254 30.3194 22.3253 30.2931 22.1666C30.2931 22.1272 30.2931 22.0878 30.2931 22.0485C30.2931 22.008 30.2866 21.9609 30.2734 21.9084C30.2734 21.8679 30.2734 21.8274 30.2734 21.788C30.2734 21.7486 30.28 21.7021 30.2931 21.648C30.4261 20.7583 30.6252 19.954 30.8906 19.2362C31.156 18.5183 31.4618 17.7605 31.8076 16.9623C31.8339 16.9087 31.8601 16.8589 31.8864 16.8135C31.9138 16.7669 31.9411 16.7232 31.9674 16.6821C32.0079 16.6427 32.068 16.623 32.1468 16.623H32.2081C32.3132 16.6624 32.3591 16.7292 32.346 16.8222C32.346 16.942 32.3132 17.0887 32.2475 17.2621C32.1671 17.4607 32.0839 17.6599 31.998 17.8596C31.9116 18.0598 31.8218 18.259 31.7288 18.457C31.5959 18.7634 31.476 19.0698 31.3699 19.3762C31.2632 19.6815 31.1696 19.9868 31.0898 20.2932C31.0635 20.3983 31.04 20.5044 31.0197 20.6106C31.0006 20.7173 31.0175 20.824 31.0701 20.9301H31.0504L31.0701 20.9498L31.847 19.3741C32.0073 19.0693 32.207 18.7607 32.4467 18.4483C32.6858 18.1364 32.9577 17.8869 33.263 17.6998C33.3429 17.6604 33.4233 17.6407 33.5037 17.6407C33.6624 17.6407 33.7888 17.7206 33.8824 17.8793C33.9086 17.9055 33.931 17.9395 33.9502 17.9799C33.9704 18.0193 33.9879 18.0587 34.0027 18.0981C34.0159 18.1786 34.0487 18.259 34.1012 18.3389C34.2467 18.5785 34.4065 18.6978 34.5805 18.6978C34.6998 18.6978 34.8459 18.6447 35.0182 18.538C35.1916 18.4319 35.3684 18.3121 35.5478 18.1791C35.7273 18.0467 35.8701 17.9334 35.9768 17.8399C36.0556 17.76 36.1415 17.6932 36.235 17.6407C36.2482 17.6276 36.275 17.621 36.316 17.621C36.3685 17.621 36.4211 17.6407 36.4736 17.6801C36.5535 17.7605 36.5743 17.8399 36.5349 17.9187C36.4807 18.0254 36.4211 18.1124 36.3554 18.1791C36.2356 18.2989 36.0693 18.4417 35.8564 18.6081C35.643 18.7744 35.4236 18.9177 35.1977 19.037C34.9712 19.1568 34.7654 19.2165 34.5805 19.2165C34.2478 19.2165 33.9748 19.0698 33.762 18.7766C33.7357 18.7372 33.7095 18.6978 33.6832 18.6584C33.6569 18.6179 33.6296 18.5774 33.6022 18.538C33.5891 18.4975 33.5694 18.457 33.5431 18.4177C33.5169 18.3783 33.4906 18.3383 33.4643 18.2973C33.3708 18.2973 33.3007 18.3181 33.2542 18.3586C33.2072 18.398 33.1645 18.445 33.1251 18.4986C32.938 18.6841 32.7717 18.8871 32.6261 19.107C32.48 19.3259 32.3471 19.5486 32.2278 19.7746C32.1474 19.9338 32.067 20.0935 31.9871 20.2538C31.9083 20.4131 31.835 20.5723 31.7682 20.7309C31.6878 20.8902 31.6074 21.0499 31.5275 21.2102C31.4487 21.3695 31.3622 21.5358 31.2692 21.7092C31.2167 21.8143 31.1603 21.9171 31.1007 22.0178C31.0405 22.1174 30.9771 22.2197 30.9103 22.3264C30.8446 22.4325 30.7516 22.4862 30.6324 22.4862Z" fill="#333431"/>
<path d="M37.8481 21.4272C37.4761 21.4272 37.2162 21.2346 37.069 20.8495C37.0296 20.7433 37.0061 20.6339 36.999 20.5212C36.993 20.4074 36.9902 20.2777 36.9902 20.1316C37.0428 19.8384 37.1024 19.4893 37.1697 19.0833C37.2364 18.6779 37.3262 18.2927 37.4389 17.9278C37.551 17.5617 37.6939 17.2925 37.8678 17.1202C37.9335 17.0797 37.9866 17.0589 38.0276 17.0589C38.0407 17.0589 38.0872 17.0731 38.1677 17.1005C38.2596 17.1399 38.2924 17.2132 38.2662 17.3193C38.0938 17.7587 37.9406 18.221 37.8066 18.7069C37.6736 19.1916 37.5746 19.6666 37.5089 20.1316C37.4958 20.2777 37.5089 20.4506 37.5483 20.6503C37.5746 20.7554 37.6205 20.8221 37.6862 20.8495C37.7529 20.8757 37.8399 20.8889 37.9466 20.8889C38.0938 20.8626 38.2273 20.8166 38.3471 20.751C38.4664 20.6842 38.5862 20.6038 38.7061 20.5102C38.9714 20.2843 39.2269 20.0517 39.472 19.8121C39.7183 19.573 39.9546 19.3208 40.1811 19.0549C40.261 18.9618 40.3409 18.8683 40.4197 18.7747C40.4996 18.6817 40.5729 18.5887 40.6385 18.4968C40.7053 18.4038 40.7786 18.3102 40.8574 18.2166C40.9373 18.1236 41.0177 18.0301 41.0981 17.9365C41.1375 17.884 41.1802 17.838 41.2273 17.7986C41.2738 17.7581 41.3241 17.7177 41.3783 17.6783C41.4045 17.652 41.4374 17.6389 41.4768 17.6389C41.5304 17.6389 41.5774 17.6586 41.6168 17.698C41.6967 17.7505 41.723 17.8304 41.6956 17.9365C41.6825 18.0169 41.6431 18.0908 41.5774 18.1576C41.2316 18.6084 40.8755 19.0472 40.5094 19.4729C40.1445 19.8991 39.7423 20.2979 39.3035 20.67C39.1164 20.8424 38.8932 21.0114 38.6338 21.1777C38.3756 21.3441 38.1135 21.4272 37.8481 21.4272ZM38.3668 16.3411C38.1666 16.369 38.0539 16.2426 38.0276 15.9624C38.0276 15.7233 38.1469 15.6035 38.3865 15.6035C38.6388 15.6035 38.7717 15.7102 38.7848 15.923C38.7848 16.0297 38.7416 16.126 38.6557 16.2119C38.5693 16.2984 38.473 16.3411 38.3668 16.3411Z" fill="#333431"/>
<path d="M42.0379 21.947C41.8792 21.947 41.7862 21.854 41.7599 21.6668C41.7468 21.6275 41.7402 21.5416 41.7402 21.4086C41.7796 21.0628 41.8464 20.7236 41.9394 20.3909C42.033 20.0583 42.1331 19.7267 42.2392 19.3951C42.3311 19.1413 42.4236 18.8918 42.5172 18.6467C42.6102 18.4004 42.7037 18.1509 42.7973 17.8982C42.8892 17.6459 42.9817 17.397 43.0752 17.1519C43.1683 16.9057 43.2618 16.6562 43.3554 16.4034C43.421 16.3104 43.4965 16.167 43.583 15.9744C43.6705 15.7818 43.7674 15.6855 43.8741 15.6855C43.8741 15.6855 43.9135 15.6987 43.9922 15.7249C44.1263 15.8054 44.1597 15.9186 44.0929 16.0642L43.9726 16.3027C43.8806 16.5555 43.7843 16.8083 43.6837 17.0621C43.5841 17.3149 43.4878 17.5672 43.3948 17.8194C43.3012 18.0722 43.2049 18.3282 43.1059 18.5876C43.0063 18.8458 42.9034 19.1013 42.7973 19.3536C42.7842 19.4077 42.7672 19.4646 42.747 19.5243C42.7262 19.5844 42.7032 19.6468 42.6769 19.7125C42.6244 19.8192 42.631 19.9456 42.6966 20.0911C42.7765 19.9193 42.9226 19.6742 43.1343 19.3557C43.3472 19.0362 43.5863 18.7036 43.8522 18.3578C44.1192 18.012 44.3851 17.7198 44.651 17.4802C44.9164 17.2411 45.1489 17.1212 45.3491 17.1212C45.5751 17.1212 45.7212 17.2148 45.7869 17.4014C45.8536 17.5868 45.9007 17.7658 45.9269 17.9376C45.9401 18.0311 45.9499 18.1181 45.9576 18.198C45.9647 18.2768 45.9751 18.3567 45.9882 18.4366C45.9882 18.517 45.9909 18.5974 45.997 18.6773C46.0041 18.7561 46.0145 18.836 46.0276 18.9158C46.0407 19.1424 46.1004 19.3481 46.2071 19.533C46.2465 19.6397 46.3258 19.6928 46.4456 19.6928C46.4719 19.6928 46.4921 19.6862 46.5069 19.6731C46.5069 19.6731 46.5096 19.6731 46.5156 19.6731C46.5228 19.6731 46.5332 19.6731 46.5463 19.6731C46.6656 19.6337 46.7788 19.5779 46.8855 19.5046C46.9917 19.4318 47.0978 19.3486 47.2028 19.2551C47.2959 19.1752 47.3829 19.0953 47.4633 19.0165C47.5432 18.9366 47.6296 18.8496 47.7215 18.7561C47.8014 18.6762 47.8846 18.5963 47.971 18.5175C48.0569 18.4376 48.1467 18.3572 48.2402 18.2768C48.3464 18.1838 48.4361 18.1039 48.5094 18.0382C48.5822 17.9715 48.6325 17.9244 48.6604 17.8982C48.6867 17.8719 48.7129 17.8456 48.7392 17.8194C48.7655 17.792 48.7852 17.7712 48.7983 17.7581C48.8388 17.7187 48.8858 17.699 48.9384 17.699C48.992 17.699 49.039 17.7187 49.0784 17.7581C49.1714 17.8385 49.1977 17.9321 49.1572 18.0382C49.1178 18.1449 49.0576 18.2374 48.9778 18.3162C48.9252 18.3703 48.8224 18.4672 48.6692 18.6073C48.516 18.7462 48.3496 18.8983 48.1702 19.0647C47.9907 19.231 47.8244 19.3809 47.6712 19.5133C47.5191 19.6463 47.4162 19.7398 47.3626 19.7934C47.123 20.02 46.8576 20.1589 46.566 20.2115C46.5528 20.2115 46.5397 20.2115 46.5266 20.2115C46.5135 20.2115 46.4992 20.2115 46.485 20.2115C46.4587 20.2246 46.4259 20.2312 46.3865 20.2312C46.1206 20.2312 45.9078 20.0922 45.7475 19.8131C45.6276 19.5872 45.5549 19.3415 45.5286 19.0756C45.5155 18.9695 45.5051 18.8666 45.498 18.767C45.492 18.6663 45.4827 18.5695 45.4695 18.4759C45.4564 18.384 45.4422 18.2888 45.4279 18.1892C45.4148 18.0886 45.4017 17.9917 45.3885 17.8982C45.3623 17.792 45.3152 17.7384 45.2485 17.7384C45.196 17.7384 45.15 17.7592 45.1106 17.7997C44.5908 18.2653 44.1351 18.7905 43.7428 19.3754C43.3516 19.9592 43.003 20.5638 42.6966 21.1897C42.6704 21.2423 42.6403 21.2986 42.6069 21.3583C42.573 21.4184 42.5434 21.4819 42.5172 21.5487C42.4909 21.6143 42.4542 21.6745 42.4077 21.7281C42.3607 21.7807 42.3049 21.8343 42.2392 21.8879C42.1851 21.9273 42.1183 21.947 42.0379 21.947Z" fill="#333431"/>
<path d="M49.9729 23.5631C49.7201 23.5631 49.5516 23.423 49.4651 23.1429C49.3776 22.8638 49.3338 22.6116 49.3338 22.3856C49.3338 21.7482 49.4142 21.0408 49.5746 20.2627C49.7332 19.4852 49.9291 18.7176 50.1611 17.9604C50.3942 17.202 50.6174 16.5236 50.8308 15.925C50.8964 15.7385 50.9588 15.5628 51.019 15.3976C51.0786 15.2313 51.1421 15.0616 51.2094 14.8877C51.2619 14.7421 51.2778 14.6393 51.2575 14.5791C51.2384 14.5194 51.1689 14.4893 51.0496 14.4893H50.8899C50.7569 14.5025 50.624 14.5156 50.4916 14.5287C50.3586 14.5419 50.2256 14.5627 50.0932 14.59C49.9603 14.6031 49.824 14.6201 49.684 14.6403C49.5439 14.6595 49.4077 14.6754 49.2747 14.6885C49.1948 14.7016 49.1117 14.7148 49.0252 14.7279C48.9393 14.741 48.8562 14.7476 48.7757 14.7476C48.6696 14.7476 48.5963 14.741 48.5569 14.7279C48.4912 14.7148 48.4447 14.6754 48.4168 14.6097C48.3905 14.4773 48.4245 14.4034 48.5175 14.3887C48.57 14.3755 48.6171 14.3624 48.6575 14.3493C48.6969 14.3361 48.7363 14.323 48.7757 14.3099C48.8299 14.2967 48.8802 14.2874 48.9267 14.2814C48.9738 14.2743 49.023 14.2639 49.0756 14.2508C49.2627 14.2234 49.4454 14.1961 49.6249 14.1698C49.8043 14.1435 49.98 14.1239 50.1523 14.1107C50.3389 14.0845 50.5184 14.0615 50.6907 14.0407C50.8642 14.0204 51.037 14.0035 51.2094 13.9903C51.4485 13.9772 51.6148 13.8645 51.7084 13.6511L52.2468 12.4562C52.2993 12.3763 52.3453 12.2964 52.3846 12.2176C52.4251 12.1377 52.4722 12.0573 52.5247 11.9769C52.5652 11.897 52.6084 11.8171 52.6538 11.7383C52.7003 11.6585 52.7507 11.578 52.8048 11.4976C52.9504 11.2585 53.0899 11.1387 53.2229 11.1387C53.3027 11.1387 53.3629 11.1857 53.4023 11.2787C53.4297 11.4117 53.3968 11.5578 53.3038 11.7164C53.1971 11.9835 53.0806 12.2499 52.9537 12.5153C52.8278 12.7812 52.6987 13.0465 52.5663 13.3119C52.5515 13.3398 52.5378 13.3732 52.5247 13.4126C52.5116 13.452 52.4984 13.4859 52.4853 13.5132C52.4459 13.592 52.4262 13.685 52.4262 13.7912C52.4788 13.8043 52.5247 13.8147 52.5641 13.8218C52.6046 13.8278 52.6451 13.8306 52.6845 13.8306C52.7381 13.8306 52.7786 13.824 52.8048 13.8109C52.8311 13.8109 52.8508 13.8109 52.8639 13.8109C52.8771 13.8109 52.8902 13.8109 52.9033 13.8109C53.1835 13.7846 53.4729 13.7551 53.7722 13.7212C54.0709 13.6878 54.3872 13.6577 54.7198 13.6314C55.0508 13.6052 55.366 13.5789 55.6653 13.5526C55.9657 13.5264 56.2551 13.4996 56.5341 13.4717H57.252C57.345 13.4717 57.3986 13.5384 57.4117 13.6708C57.4117 13.7775 57.3712 13.8448 57.2914 13.8722C57.2388 13.8853 57.1918 13.8957 57.1513 13.9028C57.1119 13.9088 57.0725 13.9116 57.0331 13.9116C56.9921 13.9247 56.9521 13.9313 56.9127 13.9313C56.8734 13.9313 56.8263 13.9378 56.7727 13.951L52.4853 14.3296C52.1931 14.3558 52.0006 14.4888 51.9075 14.7279C51.7877 14.9807 51.6449 15.3429 51.4786 15.8156C51.3123 16.2872 51.1394 16.7955 50.9599 17.341C50.7804 17.8871 50.6174 18.4057 50.4719 18.8971C50.3258 19.3889 50.2191 19.7807 50.1523 20.0723C50.0719 20.405 50.0084 20.7349 49.9619 21.0615C49.9165 21.3871 49.8799 21.7225 49.8525 22.0683C49.8394 22.2138 49.829 22.3703 49.8219 22.5366C49.8158 22.703 49.8859 22.8458 50.032 22.9656C50.1791 22.9508 50.3126 22.8835 50.4325 22.7642C50.485 22.6986 50.5342 22.6357 50.5813 22.576C50.6278 22.5158 50.6776 22.4589 50.7301 22.4053C50.9429 22.14 51.199 21.798 51.4983 21.3789C51.797 20.9603 52.1029 20.5319 52.4153 20.0942C52.7272 19.6554 53.016 19.256 53.2819 18.8971C53.549 18.5381 53.7552 18.2854 53.9013 18.1376C53.9276 18.0983 53.9604 18.0589 53.9998 18.0195C54.0403 17.979 54.0742 17.9385 54.1005 17.8991C54.1672 17.8334 54.2476 17.7804 54.3412 17.7393C54.3543 17.7393 54.3675 17.7328 54.3806 17.7196C54.3937 17.7196 54.4003 17.7196 54.4003 17.7196C54.4003 17.7196 54.4069 17.7196 54.42 17.7196C54.4331 17.7196 54.4796 17.7328 54.5601 17.759C54.6662 17.8395 54.6859 17.9396 54.6192 18.0589C54.6192 18.0983 54.5995 18.1387 54.5601 18.1792C54.3598 18.4189 54.0972 18.7581 53.7722 19.1969C53.4466 19.6346 53.1441 20.0461 52.8639 20.4312C52.5313 20.8837 52.1921 21.3395 51.8463 21.7991C51.5016 22.257 51.17 22.6723 50.8505 23.0444C50.7569 23.1636 50.6272 23.2796 50.4609 23.3923C50.2946 23.5062 50.1315 23.5631 49.9729 23.5631Z" fill="#333431"/>
</svg>
