<svg xmlns="http://www.w3.org/2000/svg" xmlns:xlink="http://www.w3.org/1999/xlink" width="500" zoomAndPan="magnify" viewBox="0 0 375 374.999991" height="500" preserveAspectRatio="xMidYMid meet" version="1.0"><defs><g/><clipPath id="c51640f671"><path d="M 152.054688 152.054688 L 222.945312 152.054688 L 222.945312 222.945312 L 152.054688 222.945312 Z M 152.054688 152.054688 " clip-rule="nonzero"/></clipPath></defs><g clip-path="url(#c51640f671)"><path fill="#000000" d="M 152.054688 152.054688 L 222.945312 152.054688 L 222.945312 222.945312 L 152.054688 222.945312 Z M 152.054688 152.054688 " fill-opacity="1" fill-rule="nonzero"/></g><g fill="#ffffff" fill-opacity="1"><g transform="translate(162.412583, 198.470922)"><g><path d="M 41.53125 -11.984375 C 41.53125 -9.847656 42.203125 -8.78125 43.546875 -8.78125 C 44.472656 -8.78125 46.082031 -9.59375 48.375 -11.21875 C 50.445312 -12.75 51.679688 -13.710938 52.078125 -14.109375 C 52.984375 -14.867188 53.929688 -15.25 54.921875 -15.25 C 55.347656 -15.25 55.707031 -15.101562 56 -14.8125 C 56.300781 -14.53125 56.453125 -14.101562 56.453125 -13.53125 C 56.453125 -12.96875 56.3125 -12.453125 56.03125 -11.984375 C 55.757812 -11.523438 55.40625 -11.046875 54.96875 -10.546875 C 54.539062 -10.046875 54.007812 -9.488281 53.375 -8.875 C 52.738281 -8.269531 52.007812 -7.628906 51.1875 -6.953125 C 50.375 -6.273438 49.484375 -5.597656 48.515625 -4.921875 C 47.546875 -4.253906 46.546875 -3.648438 45.515625 -3.109375 C 43.179688 -1.910156 41.070312 -1.3125 39.1875 -1.3125 C 37.03125 -1.3125 35.566406 -2.289062 34.796875 -4.25 C 34.335938 -5.375 34.109375 -6.722656 34.109375 -8.296875 L 27.75 -3.984375 C 23.382812 -0.921875 20.785156 0.703125 19.953125 0.890625 C 19.535156 0.992188 19.109375 1.046875 18.671875 1.046875 C 18.242188 1.046875 17.835938 1.003906 17.453125 0.921875 C 17.078125 0.847656 16.742188 0.71875 16.453125 0.53125 C 15.785156 0.132812 15.453125 -0.445312 15.453125 -1.21875 C 15.453125 -1.53125 15.65625 -2.273438 16.0625 -3.453125 L 17.9375 -8.625 C 18.519531 -10.28125 18.8125 -11.28125 18.8125 -11.625 C 18.8125 -11.738281 18.738281 -11.796875 18.59375 -11.796875 C 18.445312 -11.796875 18.175781 -11.640625 17.78125 -11.328125 C 17.394531 -11.023438 16.921875 -10.632812 16.359375 -10.15625 L 11.15625 -5.609375 L 8.421875 -3.328125 C 5.617188 -1.097656 3.335938 0.015625 1.578125 0.015625 C 0.742188 0.015625 -0.09375 -0.351562 -0.9375 -1.09375 C -1.851562 -1.882812 -2.3125 -2.832031 -2.3125 -3.9375 C -2.3125 -5.050781 -2.207031 -6.265625 -2 -7.578125 C -1.789062 -8.890625 -1.488281 -10.148438 -1.09375 -11.359375 C -0.695312 -12.578125 -0.207031 -13.722656 0.375 -14.796875 C 0.957031 -15.867188 1.617188 -16.800781 2.359375 -17.59375 C 3.960938 -19.3125 5.851562 -20.171875 8.03125 -20.171875 C 10.21875 -20.171875 11.3125 -19.53125 11.3125 -18.25 C 11.3125 -17.695312 11.015625 -16.847656 10.421875 -15.703125 C 9.148438 -13.203125 8.515625 -11.851562 8.515625 -11.65625 C 8.515625 -11.457031 8.578125 -11.300781 8.703125 -11.1875 C 8.828125 -11.082031 8.960938 -11.03125 9.109375 -11.03125 C 9.410156 -11.03125 9.847656 -11.273438 10.421875 -11.765625 C 14.160156 -15.046875 16.515625 -17.082031 17.484375 -17.875 C 18.460938 -18.664062 19.40625 -19.359375 20.3125 -19.953125 C 22.375 -21.304688 24.019531 -21.984375 25.25 -21.984375 C 26.257812 -21.984375 27.078125 -21.828125 27.703125 -21.515625 C 28.796875 -20.941406 29.34375 -20.296875 29.34375 -19.578125 C 29.34375 -18.867188 29.242188 -18.0625 29.046875 -17.15625 C 28.847656 -16.25 28.632812 -15.375 28.40625 -14.53125 L 27.75 -12.296875 C 27.539062 -11.648438 27.4375 -11.15625 27.4375 -10.8125 C 27.4375 -10.476562 27.582031 -10.3125 27.875 -10.3125 C 28.570312 -10.3125 29.96875 -11.300781 32.0625 -13.28125 L 34.171875 -15.265625 C 36.609375 -17.460938 38.457031 -18.5625 39.71875 -18.5625 C 40.3125 -18.5625 40.84375 -18.328125 41.3125 -17.859375 C 42.125 -17.035156 42.53125 -16.316406 42.53125 -15.703125 C 42.53125 -15.367188 42.414062 -14.921875 42.1875 -14.359375 C 41.75 -13.285156 41.53125 -12.492188 41.53125 -11.984375 Z M 41.53125 -11.984375 "/></g></g></g></svg>