<svg width="123" height="40" viewBox="0 0 123 40" fill="none" xmlns="http://www.w3.org/2000/svg">
<path d="M0.479786 16.107V15.8115C0.827218 15.7048 1.06522 15.4778 1.19471 15.1294C1.32329 14.7792 1.38803 14.1427 1.38803 13.2181V3.98242C1.38803 3.11703 1.33423 2.44587 1.22754 1.96895C1.12267 1.49021 0.968561 1.1446 0.764297 0.933042C0.560033 0.721482 0.305614 0.570108 0.00195312 0.477094V0.181641H2.75587L8.69048 9.98633L14.5157 0.181641H17.0872V0.477094C16.7826 0.570108 16.5291 0.721482 16.3249 0.933042C16.1206 1.1446 15.9647 1.49021 15.858 1.96895C15.7504 2.44587 15.6975 3.11703 15.6975 3.98242V13.2181C15.6975 14.1427 15.7613 14.7792 15.8908 15.1294C16.0194 15.4778 16.2592 15.7048 16.6094 15.8115V16.107H12.9217V15.8115C13.2718 15.7048 13.5108 15.4778 13.6402 15.1294C13.7688 14.7792 13.8336 14.1427 13.8336 13.2181V2.02367L8.05581 11.7846H7.62174L1.80021 2.20605V12.3062C1.80021 13.1725 1.85948 13.8409 1.97894 14.3124C2.10022 14.782 2.27439 15.1258 2.50054 15.3446C2.72852 15.5635 3.01121 15.7194 3.34678 15.8115V16.107H0.479786Z" fill="#333431"/>
<path d="M19.4062 16.107V15.8115C19.7564 15.7048 19.9953 15.4778 20.1248 15.1294C20.2534 14.7792 20.3181 14.1427 20.3181 13.2181V3.07052C20.3181 2.13218 20.2534 1.49295 20.1248 1.1519C19.9953 0.809024 19.7564 0.584698 19.4062 0.477094V0.181641H29.9842L30.2359 3.13983L29.9842 3.20913C29.5903 2.20787 29.0404 1.50936 28.3355 1.11542C27.6297 0.721482 26.6941 0.524513 25.5269 0.524513H22.1821V7.41479H25.0928C25.9582 7.41479 26.6294 7.35916 27.1063 7.247C27.585 7.13301 27.9343 6.95884 28.1531 6.7254C28.3738 6.49013 28.5298 6.20379 28.62 5.86822H28.8936V9.30423H28.62C28.5298 8.9568 28.3738 8.66956 28.1531 8.44341C27.9343 8.21543 27.585 8.044 27.1063 7.9291C26.6294 7.81511 25.9582 7.75766 25.0928 7.75766H22.1821V14.7428C22.1821 15.424 22.5231 15.7641 23.207 15.7641H26.1616C27.2558 15.7641 28.1586 15.5762 28.8717 15.1987C29.5839 14.8194 30.1447 14.099 30.5533 13.0357L30.8049 13.0795L30.6226 16.107H19.4062Z" fill="#333431"/>
<path d="M32.7845 16.107V15.8115C33.1319 15.7048 33.3699 15.4778 33.4994 15.1294C33.628 14.7792 33.6927 14.1427 33.6927 13.2181V3.98242C33.6927 3.11703 33.6389 2.44587 33.5322 1.96895C33.4274 1.49021 33.2732 1.1446 33.069 0.933042C32.8647 0.721482 32.6103 0.570108 32.3066 0.477094V0.181641H35.0606L40.9952 9.98633L46.8204 0.181641H49.3919V0.477094C49.0873 0.570108 48.8338 0.721482 48.6296 0.933042C48.4253 1.1446 48.2694 1.49021 48.1627 1.96895C48.0551 2.44587 48.0022 3.11703 48.0022 3.98242V13.2181C48.0022 14.1427 48.066 14.7792 48.1955 15.1294C48.3241 15.4778 48.5639 15.7048 48.9141 15.8115V16.107H45.2264V15.8115C45.5765 15.7048 45.8154 15.4778 45.9449 15.1294C46.0735 14.7792 46.1383 14.1427 46.1383 13.2181V2.02367L40.3605 11.7846H39.9264L34.1049 2.20605V12.3062C34.1049 13.1725 34.1642 13.8409 34.2836 14.3124C34.4049 14.782 34.5791 15.1258 34.8052 15.3446C35.0332 15.5635 35.3159 15.7194 35.6515 15.8115V16.107H32.7845Z" fill="#333431"/>
<path d="M51.709 16.107V15.8115C52.0592 15.7048 52.2981 15.4778 52.4276 15.1294C52.5561 14.7792 52.6209 14.1427 52.6209 13.2181V3.07052C52.6209 2.13218 52.5561 1.49295 52.4276 1.1519C52.2981 0.809024 52.0592 0.584698 51.709 0.477094V0.181641H62.287L62.5386 3.13983L62.287 3.20913C61.893 2.20787 61.3432 1.50936 60.6383 1.11542C59.9325 0.721482 58.9968 0.524513 57.8296 0.524513H54.4848V7.41479H57.3956C58.2609 7.41479 58.9321 7.35916 59.409 7.247C59.8878 7.13301 60.237 6.95884 60.4559 6.7254C60.6766 6.49013 60.8325 6.20379 60.9228 5.86822H61.1963V9.30423H60.9228C60.8325 8.9568 60.6766 8.66956 60.4559 8.44341C60.237 8.21543 59.8878 8.044 59.409 7.9291C58.9321 7.81511 58.2609 7.75766 57.3956 7.75766H54.4848V14.7428C54.4848 15.424 54.8258 15.7641 55.5098 15.7641H58.4643C59.5586 15.7641 60.4613 15.5762 61.1745 15.1987C61.8866 14.8194 62.4475 14.099 62.856 13.0357L63.1077 13.0795L62.9253 16.107H51.709Z" fill="#333431"/>
<path d="M77.1206 16.2893L66.4076 2.34465V12.3062C66.4076 13.1725 66.4669 13.8409 66.5864 14.3124C66.7077 14.782 66.8864 15.1258 67.1226 15.3446C67.3578 15.5635 67.6423 15.7194 67.9761 15.8115V16.107H65.131V15.8115C65.4812 15.7048 65.7201 15.4778 65.8496 15.1294C65.9781 14.7792 66.0429 14.1427 66.0429 13.2181V3.07052C66.0429 2.13218 65.959 1.49295 65.7912 1.1519C65.6252 0.809024 65.3143 0.584698 64.8574 0.477094V0.181641H67.0897L77.0294 13.0576V3.98242C77.0294 3.11703 76.9683 2.44587 76.847 1.96895C76.7248 1.49021 76.5497 1.1446 76.3218 0.933042C76.0956 0.721482 75.8084 0.570108 75.4609 0.477094V0.181641H78.3279V0.477094C77.9778 0.584698 77.7379 0.809024 77.6094 1.1519C77.4799 1.49295 77.416 2.13218 77.416 3.07052V16.2893H77.1206Z" fill="#333431"/>
<path d="M83.7674 16.107V15.8115C84.1175 15.7048 84.3564 15.4778 84.4859 15.1294C84.6145 14.7792 84.6793 14.1427 84.6793 13.2181V0.546398H83.5631C82.5463 0.546398 81.773 0.70598 81.2432 1.02423C80.7125 1.34339 80.2493 1.91242 79.8535 2.7313L79.6055 2.68388L79.7404 0.181641H91.4565L91.5951 2.68388L91.3434 2.7313C90.964 1.91242 90.509 1.34339 89.9792 1.02423C89.4485 0.70598 88.667 0.546398 87.6338 0.546398H86.565V13.2181C86.565 14.1427 86.6289 14.7792 86.7584 15.1294C86.8869 15.4778 87.1268 15.7048 87.4769 15.8115V16.107H83.7674Z" fill="#333431"/>
<path d="M101.265 16.3319C100.295 16.3319 99.3321 16.1687 98.3765 15.8431C97.4208 15.5176 96.5472 15.0179 95.7575 14.344C94.9696 13.6683 94.3395 12.8147 93.868 11.7834C93.3984 10.7529 93.1641 9.53191 93.1641 8.1212C93.1641 6.55822 93.5051 5.16575 94.189 3.94473C94.872 2.72461 95.8204 1.76165 97.0341 1.05584C98.247 0.35095 99.6577 -0.00195312 101.265 -0.00195312C102.221 -0.00195312 103.175 0.165835 104.129 0.501413C105.084 0.835166 105.952 1.33944 106.733 2.01516C107.515 2.68905 108.142 3.54167 108.612 4.57211C109.083 5.60346 109.319 6.81719 109.319 8.21239C109.319 9.62309 109.083 10.8368 108.612 11.8527C108.142 12.8694 107.512 13.7111 106.722 14.3768C105.934 15.0434 105.066 15.5358 104.118 15.8541C103.171 16.1723 102.221 16.3319 101.265 16.3319ZM94.9842 6.80078C95.0298 7.93883 95.2395 9.04313 95.6116 10.1128C95.9836 11.1806 96.4916 12.1399 97.1363 12.9907C97.7801 13.8397 98.5342 14.5145 99.3978 15.0151C100.263 15.5139 101.204 15.7629 102.221 15.7629C103.434 15.7629 104.442 15.4984 105.245 14.9677C106.049 14.4379 106.646 13.7148 107.032 12.7974C107.419 11.8782 107.588 10.8496 107.543 9.71155C107.496 8.52973 107.287 7.38986 106.915 6.29012C106.545 5.19129 106.042 4.21009 105.405 3.34652C104.768 2.48114 104.017 1.79448 103.151 1.28564C102.288 0.777717 101.347 0.523298 100.332 0.523298C99.1789 0.523298 98.1959 0.78866 97.3843 1.31847C96.5745 1.84919 95.9599 2.58418 95.5423 3.52526C95.1265 4.46633 94.9404 5.55878 94.9842 6.80078Z" fill="#333431"/>
<path d="M116.96 16.3335C115.761 16.3335 114.684 16.1593 113.728 15.8119C112.773 15.4617 112.029 15.0988 111.5 14.7212L111.383 11.5588L111.634 11.5114C111.938 12.2992 112.336 13.0315 112.827 13.7072C113.321 14.3838 113.947 14.9218 114.706 15.3231C115.464 15.7243 116.366 15.9249 117.412 15.9249C118.02 15.9249 118.581 15.8 119.097 15.5492C119.613 15.2994 120.026 14.9465 120.338 14.4914C120.649 14.0373 120.805 13.5066 120.805 12.9011C120.805 12.3248 120.652 11.8241 120.349 11.3983C120.044 10.9733 119.649 10.6013 119.163 10.2821C118.679 9.96387 118.167 9.68757 117.627 9.45412C117.089 9.21885 116.579 9.00182 116.095 8.80485C115.2 8.4401 114.422 8.07351 113.761 7.70329C113.102 7.33123 112.594 6.8844 112.236 6.36098C111.881 5.83572 111.704 5.17187 111.704 4.3694C111.704 3.47483 111.935 2.70519 112.397 2.06048C112.858 1.41668 113.507 0.915141 114.341 0.557678C115.174 0.200216 116.147 0.0214844 117.255 0.0214844C118.286 0.0214844 119.172 0.136383 119.914 0.364357C120.659 0.593242 121.25 0.827599 121.691 1.06834L121.782 3.70919L121.552 3.77849C121.129 2.79182 120.511 1.97932 119.699 1.34191C118.887 0.705405 117.829 0.386242 116.526 0.386242C115.92 0.386242 115.355 0.504788 114.83 0.740057C114.306 0.976238 113.89 1.31455 113.579 1.75408C113.267 2.19179 113.112 2.73802 113.112 3.39185C113.112 3.92257 113.24 4.38399 113.498 4.77793C113.758 5.17187 114.1 5.51383 114.523 5.8029C114.948 6.09014 115.411 6.34456 115.909 6.56524C116.41 6.7841 116.903 6.99201 117.39 7.18898C118.238 7.52273 119.035 7.87837 119.78 8.25772C120.524 8.63706 121.126 9.10031 121.589 9.64744C122.05 10.1928 122.282 10.8977 122.282 11.763C122.282 12.7023 122.024 13.5166 121.508 14.2069C120.992 14.8981 120.328 15.4252 119.517 15.79C118.707 16.152 117.855 16.3335 116.96 16.3335Z" fill="#333431"/>
<path d="M33.467 40.0003C33.2016 40.0003 33.0128 39.8343 32.9016 39.5042C32.8797 39.414 32.8624 39.3365 32.8505 39.2708C32.8405 39.2051 32.8469 39.1267 32.8688 39.0373C32.8688 38.8376 32.8578 38.7054 32.8359 38.6398C32.9691 36.9327 33.2299 35.1709 33.6165 33.3544C34.005 31.5379 34.4755 29.7324 35.0281 27.9378C35.5826 26.1432 36.1972 24.3814 36.8738 22.6524C37.5495 20.9235 38.2307 19.2948 38.9165 17.7647C38.9839 17.6552 39.0514 17.5458 39.1171 17.4364C39.1845 17.3251 39.252 17.213 39.3177 17.1008C39.3615 17.057 39.4162 17.0352 39.4818 17.0352C39.749 17.0352 39.8831 17.1464 39.8831 17.3671C39.8831 17.523 39.8484 17.6899 39.7809 17.8668C39.7372 18.0227 39.6824 18.1723 39.6168 18.3155C39.5511 18.4595 39.4836 18.6091 39.4162 18.7641C39.3505 18.92 39.283 19.076 39.2156 19.231C39.1499 19.3842 39.0842 19.5392 39.0186 19.6942C38.4423 21.0247 37.8769 22.4263 37.3225 23.8999C36.768 25.3735 36.2583 26.8636 35.7941 28.3682C35.3291 29.8983 34.9242 31.434 34.5795 32.9751C34.2366 34.5144 33.9867 36.0153 33.8317 37.4762C33.8098 37.52 33.7989 37.6303 33.7989 37.8081C33.7989 37.9413 33.8208 38.0306 33.8646 38.0744C33.8883 38.0963 33.9229 38.1072 33.9667 38.1072C34.0323 38.1072 34.0871 38.0507 34.1308 37.9394C34.2421 37.7397 34.3533 37.54 34.4628 37.3412C34.574 37.1415 34.6862 36.9309 34.7983 36.7102C35.1749 35.9351 35.6628 34.9594 36.261 33.7848C37.4793 31.4139 38.9183 28.856 40.5797 26.1103C41.4205 24.7808 42.2512 23.5497 43.071 22.419C43.9145 21.3129 44.7353 20.3672 45.5332 19.5812C46.3302 18.7933 47.0724 18.3109 47.7582 18.1331C47.8694 18.1112 47.9697 18.0948 48.0573 18.082C48.1466 18.0702 48.2141 18.0638 48.2579 18.0638C48.8342 18.0638 49.2546 18.3647 49.52 18.9647C49.5874 19.1398 49.6485 19.3167 49.7023 19.4936C49.758 19.6714 49.7753 19.8493 49.7534 20.0262C49.7534 20.1383 49.7534 20.2551 49.7534 20.3763C49.7534 20.4985 49.7643 20.6134 49.7862 20.7229C49.7862 20.835 49.7799 20.9517 49.768 21.073C49.758 21.1952 49.7425 21.3119 49.7206 21.4232C49.5209 22.8412 49.1771 24.1935 48.6883 25.4793C48.2014 26.7632 47.5375 27.9925 46.6967 29.167C46.3849 29.5883 45.9526 30.0816 45.3982 30.6479C44.8456 31.2124 44.2538 31.7002 43.6218 32.1106C42.989 32.5191 42.3962 32.7234 41.8418 32.7234C41.0904 32.7234 40.6582 32.3687 40.5469 31.6583C40.3691 30.73 40.5797 29.9211 41.1779 29.2327C41.3549 28.9901 41.5655 28.7904 41.809 28.6345C42.0515 28.4794 42.3069 28.3354 42.575 28.204C42.5969 28.1822 42.6297 28.1712 42.6735 28.1712H42.8084C42.9835 28.1712 43.0938 28.2259 43.1403 28.3354C43.2717 28.5351 43.2479 28.7019 43.071 28.8351C43.0054 28.8788 42.9379 28.929 42.8704 28.9846C42.8048 29.0412 42.7391 29.0904 42.6735 29.1342C42.6078 29.1779 42.5403 29.2217 42.4728 29.2655C42.4072 29.3093 42.3415 29.3549 42.2759 29.4004C41.9421 29.622 41.7087 29.8929 41.5755 30.2139C41.4442 30.5348 41.3676 30.8841 41.3457 31.2607C41.3457 31.5042 41.4114 31.6647 41.5427 31.7422C41.6758 31.8206 41.8537 31.8589 42.0753 31.8589C42.2959 31.8151 42.5002 31.7385 42.688 31.6291C42.8777 31.5179 43.061 31.4057 43.2388 31.2935C44.3477 30.5841 45.2888 29.6758 46.0621 28.5688C46.8372 27.4599 47.4573 26.2581 47.9223 24.9613C48.3892 23.6655 48.7111 22.3971 48.8889 21.1569C48.9546 20.6025 48.9436 20.1265 48.8561 19.7271C48.7686 19.1945 48.5579 18.9282 48.2251 18.9282C48.0691 18.9282 47.8694 18.9957 47.6269 19.1289C47.315 19.2848 46.9885 19.5009 46.6457 19.7781C46.3028 20.0554 45.9426 20.3827 45.566 20.7593C44.8337 21.5107 44.1015 22.3971 43.3701 23.4184C42.6406 24.4379 41.9202 25.5231 41.2108 26.6757C40.525 27.8265 39.8612 28.9554 39.2192 30.0643C38.8854 30.6844 38.5243 31.3546 38.1359 32.0741C37.7492 32.7945 37.3954 33.4766 37.0744 34.1204C36.7534 34.7624 36.4817 35.2831 36.261 35.6816C36.127 35.9469 35.9929 36.2132 35.8598 36.4804C35.7285 36.7458 35.5953 37.0102 35.4622 37.2756C35.3281 37.5428 35.1941 37.809 35.061 38.0744C34.9296 38.3388 34.7856 38.5933 34.6305 38.8367C34.5868 38.9261 34.5366 39.0155 34.481 39.103C34.4245 39.1924 34.3752 39.2817 34.3314 39.3693C34.2439 39.5243 34.1108 39.6693 33.9339 39.8033C33.7998 39.9347 33.6439 40.0003 33.467 40.0003Z" fill="#333431"/>
<path d="M51.0552 37.4769C51.0333 37.4769 51.0169 37.4769 51.0042 37.4769C50.9923 37.4769 50.975 37.4769 50.9531 37.4769C50.9531 37.4551 50.9312 37.4441 50.8874 37.4441C50.6668 37.3757 50.5336 37.2088 50.4899 36.9444C50.4899 36.8787 50.4899 36.8131 50.4899 36.7474C50.4899 36.6799 50.4789 36.6015 50.457 36.514C50.457 36.4465 50.457 36.379 50.457 36.3134C50.457 36.2477 50.468 36.1702 50.4899 36.0799C50.7114 34.5972 51.0434 33.2567 51.4856 32.0603C51.9279 30.8639 52.4377 29.6009 53.014 28.2705C53.0578 28.1811 53.1015 28.0981 53.1453 28.0224C53.1909 27.9449 53.2365 27.872 53.2803 27.8036C53.3477 27.7379 53.448 27.7051 53.5794 27.7051H53.6815C53.8566 27.7707 53.9332 27.882 53.9113 28.037C53.9113 28.2367 53.8566 28.4811 53.7471 28.7702C53.6131 29.1012 53.4745 29.4331 53.3313 29.766C53.1872 30.0997 53.0377 30.4316 52.8827 30.7617C52.6611 31.2724 52.4614 31.7831 52.2845 32.2937C52.1066 32.8026 51.9507 33.3114 51.8176 33.8221C51.7738 33.9972 51.7346 34.1741 51.7009 34.351C51.6689 34.5288 51.6972 34.7066 51.7847 34.8835H51.7519L51.7847 34.9163L53.0796 32.2901C53.3468 31.7822 53.6797 31.2679 54.0791 30.7472C54.4776 30.2274 54.9308 29.8116 55.4396 29.4997C55.5728 29.434 55.7068 29.4012 55.8409 29.4012C56.1053 29.4012 56.316 29.5343 56.4719 29.7988C56.5157 29.8426 56.553 29.8991 56.585 29.9666C56.6187 30.0322 56.6479 30.0979 56.6725 30.1635C56.6944 30.2976 56.7491 30.4316 56.8366 30.5648C57.0792 30.9642 57.3455 31.163 57.6355 31.163C57.8343 31.163 58.0777 31.0745 58.365 30.8967C58.6541 30.7198 58.9486 30.5201 59.2477 30.2985C59.5468 30.0778 59.7848 29.8891 59.9626 29.7331C60.0939 29.6 60.2371 29.4887 60.393 29.4012C60.4149 29.3793 60.4596 29.3684 60.528 29.3684C60.6155 29.3684 60.7031 29.4012 60.7906 29.4669C60.9238 29.6009 60.9584 29.7331 60.8928 29.8644C60.8025 30.0423 60.7031 30.1873 60.5937 30.2985C60.3939 30.4982 60.1167 30.7362 59.762 31.0134C59.4064 31.2906 59.0407 31.5296 58.6641 31.7284C58.2866 31.9281 57.9437 32.0275 57.6355 32.0275C57.081 32.0275 56.626 31.7831 56.2713 31.2943C56.2275 31.2286 56.1837 31.163 56.14 31.0973C56.0962 31.0298 56.0506 30.9624 56.005 30.8967C55.9831 30.8292 55.9503 30.7617 55.9065 30.6961C55.8627 30.6304 55.819 30.5639 55.7752 30.4955C55.6193 30.4955 55.5025 30.5301 55.425 30.5976C55.3466 30.6633 55.2755 30.7417 55.2098 30.8311C54.898 31.1402 54.6207 31.4785 54.3782 31.8451C54.1347 32.2098 53.9131 32.581 53.7143 32.9576C53.5803 33.223 53.4462 33.4892 53.3131 33.7564C53.1818 34.0218 53.0596 34.2871 52.9483 34.5516C52.8143 34.8169 52.6802 35.0832 52.5471 35.3504C52.4158 35.6158 52.2717 35.893 52.1167 36.182C52.0291 36.3571 51.9352 36.5286 51.8358 36.6964C51.7355 36.8623 51.6297 37.0328 51.5185 37.2107C51.409 37.3876 51.254 37.4769 51.0552 37.4769Z" fill="#333431"/>
<path d="M63.0822 35.7121C62.4621 35.7121 62.029 35.3911 61.7837 34.7491C61.718 34.5722 61.6788 34.3898 61.6669 34.202C61.6569 34.0123 61.6523 33.7962 61.6523 33.5527C61.7399 33.0639 61.8393 32.4821 61.9514 31.8055C62.0627 31.1298 62.2122 30.4878 62.4001 29.8796C62.587 29.2695 62.825 28.8209 63.115 28.5336C63.2244 28.4662 63.3129 28.4315 63.3813 28.4315C63.4032 28.4315 63.4807 28.4552 63.6147 28.5008C63.7679 28.5665 63.8227 28.6887 63.7789 28.8656C63.4916 29.5978 63.2363 30.3684 63.0129 31.1781C62.7913 31.9861 62.6262 32.7776 62.5168 33.5527C62.4949 33.7962 62.5168 34.0843 62.5825 34.4172C62.6262 34.5923 62.7028 34.7035 62.8123 34.7491C62.9235 34.7929 63.0685 34.8148 63.2463 34.8148C63.4916 34.771 63.7141 34.6944 63.9138 34.585C64.1126 34.4737 64.3123 34.3397 64.512 34.1837C64.9543 33.8071 65.3802 33.4196 65.7887 33.0202C66.199 32.6217 66.593 32.2013 66.9705 31.7581C67.1036 31.6031 67.2368 31.4471 67.3681 31.2912C67.5012 31.1362 67.6234 30.9812 67.7329 30.828C67.8441 30.6729 67.9663 30.517 68.0976 30.3611C68.2308 30.206 68.3648 30.0501 68.4988 29.8942C68.5645 29.8066 68.6356 29.73 68.7141 29.6644C68.7916 29.5969 68.8755 29.5294 68.9657 29.4638C69.0095 29.42 69.0642 29.3981 69.1299 29.3981C69.2192 29.3981 69.2977 29.4309 69.3633 29.4966C69.4965 29.5841 69.5402 29.7173 69.4946 29.8942C69.4728 30.0282 69.4071 30.1513 69.2977 30.2626C68.7214 31.014 68.1277 31.7453 67.5176 32.4548C66.9094 33.1651 66.2392 33.8299 65.5078 34.45C65.196 34.7373 64.8239 35.019 64.3917 35.2962C63.9613 35.5735 63.5245 35.7121 63.0822 35.7121ZM63.9467 27.2351C63.6129 27.2816 63.4251 27.071 63.3813 26.6041C63.3813 26.2056 63.5801 26.0059 63.9795 26.0059C64.3999 26.0059 64.6215 26.1837 64.6434 26.5384C64.6434 26.7162 64.5713 26.8767 64.4282 27.0199C64.2841 27.164 64.1236 27.2351 63.9467 27.2351Z" fill="#333431"/>
<path d="M70.0625 36.5783C69.798 36.5783 69.643 36.4233 69.5992 36.1114C69.5773 36.0458 69.5664 35.9026 69.5664 35.681C69.6321 35.1047 69.7433 34.5393 69.8983 33.9849C70.0543 33.4304 70.2211 32.8778 70.3981 32.3252C70.5513 31.9021 70.7054 31.4863 70.8613 31.0778C71.0163 30.6674 71.1723 30.2516 71.3282 29.8303C71.4814 29.4099 71.6355 28.995 71.7914 28.5865C71.9465 28.1761 72.1024 27.7603 72.2583 27.339C72.3677 27.184 72.4936 26.945 72.6377 26.6241C72.7836 26.3031 72.945 26.1426 73.1228 26.1426C73.1228 26.1426 73.1885 26.1645 73.3198 26.2082C73.5432 26.3423 73.5988 26.531 73.4876 26.7736L73.2869 27.1712C73.1337 27.5925 72.9732 28.0138 72.8055 28.4369C72.6395 28.8582 72.479 29.2786 72.324 29.699C72.168 30.1203 72.0075 30.547 71.8425 30.9793C71.6765 31.4097 71.5051 31.8355 71.3282 32.2559C71.3063 32.3462 71.278 32.441 71.2443 32.5404C71.2096 32.6407 71.1713 32.7447 71.1276 32.8541C71.04 33.0319 71.051 33.2426 71.1604 33.4852C71.2935 33.1988 71.537 32.7903 71.8899 32.2596C72.2446 31.727 72.6431 31.1726 73.0863 30.5963C73.5313 30.02 73.9745 29.533 74.4177 29.1336C74.86 28.7351 75.2475 28.5354 75.5813 28.5354C75.9579 28.5354 76.2014 28.6913 76.3108 29.0023C76.422 29.3114 76.5005 29.6096 76.5442 29.8959C76.5661 30.0519 76.5825 30.1969 76.5953 30.33C76.6071 30.4613 76.6245 30.5944 76.6464 30.7276C76.6464 30.8616 76.6509 30.9957 76.6609 31.1288C76.6728 31.2601 76.6901 31.3933 76.712 31.5264C76.7339 31.9039 76.8333 32.2468 77.0111 32.555C77.0768 32.7328 77.209 32.8213 77.4087 32.8213C77.4525 32.8213 77.4862 32.8104 77.5108 32.7885C77.5108 32.7885 77.5154 32.7885 77.5254 32.7885C77.5373 32.7885 77.5546 32.7885 77.5765 32.7885C77.7753 32.7228 77.964 32.6298 78.1419 32.5076C78.3188 32.3863 78.4957 32.2477 78.6708 32.0918C78.8258 31.9586 78.9708 31.8255 79.1048 31.6942C79.238 31.5611 79.382 31.4161 79.5352 31.2601C79.6684 31.127 79.807 30.9939 79.9511 30.8625C80.0942 30.7294 80.2438 30.5954 80.3997 30.4613C80.5766 30.3063 80.7262 30.1732 80.8484 30.0637C80.9696 29.9525 81.0535 29.8741 81.1 29.8303C81.1438 29.7865 81.1876 29.7427 81.2314 29.699C81.2751 29.6534 81.308 29.6187 81.3298 29.5968C81.3973 29.5312 81.4757 29.4984 81.5633 29.4984C81.6527 29.4984 81.7311 29.5312 81.7967 29.5968C81.9518 29.7309 81.9955 29.8868 81.928 30.0637C81.8624 30.2415 81.7621 30.3957 81.6289 30.527C81.5414 30.6172 81.37 30.7786 81.1146 31.0121C80.8593 31.2437 80.5821 31.4972 80.283 31.7744C79.9839 32.0517 79.7067 32.3015 79.4513 32.5222C79.1978 32.7438 79.0264 32.8997 78.937 32.9891C78.5376 33.3666 78.0954 33.5982 77.6093 33.6858C77.5874 33.6858 77.5655 33.6858 77.5437 33.6858C77.5218 33.6858 77.4981 33.6858 77.4744 33.6858C77.4306 33.7077 77.3759 33.7186 77.3102 33.7186C76.867 33.7186 76.5123 33.487 76.2451 33.0219C76.0454 32.6453 75.9241 32.2359 75.8804 31.7927C75.8585 31.6158 75.8412 31.4443 75.8293 31.2784C75.8193 31.1106 75.8038 30.9492 75.7819 30.7932C75.76 30.64 75.7363 30.4814 75.7126 30.3154C75.6907 30.1476 75.6688 29.9862 75.6469 29.8303C75.6031 29.6534 75.5247 29.564 75.4135 29.564C75.3259 29.564 75.2493 29.5987 75.1837 29.6661C74.3174 30.4422 73.5578 31.3176 72.9039 32.2924C72.2519 33.2654 71.6711 34.273 71.1604 35.3162C71.1166 35.4038 71.0665 35.4977 71.0108 35.5971C70.9543 35.6974 70.9051 35.8032 70.8613 35.9144C70.8175 36.0239 70.7564 36.1242 70.6789 36.2135C70.6005 36.3011 70.5075 36.3904 70.3981 36.4798C70.3078 36.5455 70.1965 36.5783 70.0625 36.5783Z" fill="#333431"/>
<path d="M83.2894 39.2718C82.8681 39.2718 82.5873 39.0383 82.4432 38.5714C82.2973 38.1064 82.2243 37.686 82.2243 37.3094C82.2243 36.247 82.3584 35.0679 82.6256 33.7712C82.89 32.4754 83.2165 31.196 83.6031 29.934C83.9916 28.6701 84.3636 27.5393 84.7193 26.5417C84.8287 26.2308 84.9326 25.938 85.033 25.6626C85.1324 25.3854 85.2381 25.1027 85.3503 24.8128C85.4378 24.5702 85.4643 24.3988 85.4305 24.2984C85.3986 24.199 85.2828 24.1489 85.084 24.1489H84.8177C84.5962 24.1708 84.3746 24.1927 84.1539 24.2146C83.9323 24.2364 83.7107 24.2711 83.49 24.3167C83.2684 24.3386 83.0414 24.3668 82.8079 24.4006C82.5745 24.4325 82.3474 24.4589 82.1258 24.4808C81.9927 24.5027 81.8541 24.5246 81.71 24.5465C81.5668 24.5684 81.4282 24.5793 81.2942 24.5793C81.1173 24.5793 80.9951 24.5684 80.9294 24.5465C80.82 24.5246 80.7425 24.4589 80.696 24.3495C80.6522 24.1288 80.7088 24.0057 80.8638 23.9811C80.9513 23.9592 81.0297 23.9373 81.0972 23.9155C81.1629 23.8936 81.2285 23.8717 81.2942 23.8498C81.3845 23.8279 81.4684 23.8124 81.5459 23.8024C81.6243 23.7905 81.7064 23.7732 81.7939 23.7513C82.1058 23.7057 82.4103 23.6601 82.7094 23.6163C83.0085 23.5726 83.3013 23.5398 83.5885 23.5179C83.8995 23.4741 84.1986 23.4358 84.4858 23.4011C84.7749 23.3674 85.063 23.3391 85.3503 23.3172C85.7488 23.2954 86.026 23.1075 86.1819 22.7519L87.0792 20.7603C87.1668 20.6272 87.2434 20.494 87.309 20.3627C87.3765 20.2296 87.4549 20.0955 87.5425 19.9615C87.61 19.8283 87.682 19.6952 87.7577 19.5639C87.8352 19.4308 87.9191 19.2967 88.0094 19.1627C88.2519 18.7642 88.4845 18.5645 88.7061 18.5645C88.8392 18.5645 88.9395 18.6429 89.0052 18.7979C89.0508 19.0195 88.996 19.263 88.841 19.5274C88.6632 19.9724 88.469 20.4165 88.2574 20.8588C88.0477 21.302 87.8325 21.7442 87.6118 22.1865C87.5872 22.233 87.5644 22.2886 87.5425 22.3543C87.5206 22.4199 87.4987 22.4765 87.4768 22.5221C87.4112 22.6534 87.3783 22.8084 87.3783 22.9853C87.4659 23.0072 87.5425 23.0245 87.6081 23.0364C87.6756 23.0464 87.7431 23.051 87.8088 23.051C87.8981 23.051 87.9656 23.04 88.0094 23.0181C88.0532 23.0181 88.086 23.0181 88.1079 23.0181C88.1297 23.0181 88.1516 23.0181 88.1735 23.0181C88.6404 22.9744 89.1228 22.9251 89.6216 22.8686C90.1195 22.813 90.6466 22.7628 91.201 22.719C91.7527 22.6753 92.278 22.6315 92.7768 22.5877C93.2774 22.544 93.7598 22.4993 94.2249 22.4528H95.4213C95.5763 22.4528 95.6656 22.564 95.6875 22.7847C95.6875 22.9625 95.6201 23.0747 95.4869 23.1203C95.3994 23.1422 95.3209 23.1595 95.2535 23.1713C95.1878 23.1814 95.1222 23.1859 95.0565 23.1859C94.9881 23.2078 94.9215 23.2188 94.8559 23.2188C94.7902 23.2188 94.7118 23.2297 94.6224 23.2516L87.4768 23.8826C86.9899 23.9264 86.6689 24.148 86.5139 24.5465C86.3142 24.9678 86.0762 25.5715 85.7989 26.3593C85.5217 27.1454 85.2336 27.9925 84.9345 28.9017C84.6354 29.8118 84.3636 30.6762 84.1211 31.4951C83.8776 32.3149 83.6998 32.9678 83.5885 33.4539C83.4545 34.0083 83.3487 34.5582 83.2712 35.1026C83.1955 35.6452 83.1344 36.2041 83.0888 36.7805C83.0669 37.023 83.0496 37.2838 83.0377 37.561C83.0277 37.8383 83.1444 38.0763 83.3879 38.276C83.6332 38.2513 83.8557 38.1392 84.0554 37.9404C84.1429 37.831 84.225 37.7261 84.3034 37.6267C84.381 37.5264 84.4639 37.4316 84.5515 37.3422C84.9062 36.8999 85.333 36.33 85.8318 35.6315C86.3297 34.9339 86.8394 34.2199 87.3601 33.4903C87.8799 32.759 88.3614 32.0933 88.8046 31.4951C89.2496 30.8969 89.5933 30.4756 89.8368 30.2294C89.8806 30.1638 89.9353 30.0981 90.001 30.0324C90.0684 29.965 90.125 29.8975 90.1687 29.8318C90.28 29.7224 90.414 29.6339 90.57 29.5655C90.5919 29.5655 90.6137 29.5546 90.6356 29.5327C90.6575 29.5327 90.6685 29.5327 90.6685 29.5327C90.6685 29.5327 90.6794 29.5327 90.7013 29.5327C90.7232 29.5327 90.8007 29.5546 90.9347 29.5984C91.1116 29.7324 91.1445 29.8993 91.0332 30.0981C91.0332 30.1638 91.0004 30.2312 90.9347 30.2987C90.601 30.6981 90.1633 31.2635 89.6216 31.9948C89.079 32.7244 88.5748 33.4101 88.1079 34.0521C87.5534 34.8062 86.9881 35.5658 86.4117 36.3318C85.8372 37.0951 85.2846 37.7872 84.7521 38.4073C84.5962 38.6061 84.38 38.7994 84.1028 38.9872C83.8256 39.1769 83.5539 39.2718 83.2894 39.2718Z" fill="#333431"/>
</svg>
