<svg width="122" height="40" viewBox="0 0 122 40" fill="none" xmlns="http://www.w3.org/2000/svg">
<path d="M0.473127 15.9482V15.6556C0.817137 15.55 1.0528 15.3252 1.18101 14.9802C1.30832 14.6335 1.37243 14.0033 1.37243 13.0877V3.94303C1.37243 3.08617 1.31916 2.42162 1.21352 1.9494C1.10968 1.47537 0.957088 1.13316 0.754836 0.923688C0.552583 0.714212 0.30067 0.564329 0 0.472232V0.179688H2.7268L8.60296 9.88781L14.3708 0.179688H16.917V0.472232C16.6154 0.564329 16.3644 0.714212 16.1622 0.923688C15.9599 1.13316 15.8055 1.47537 15.6999 1.9494C15.5933 2.42162 15.5409 3.08617 15.5409 3.94303V13.0877C15.5409 14.0033 15.6042 14.6335 15.7324 14.9802C15.8597 15.3252 16.0971 15.55 16.4439 15.6556V15.9482H12.7925V15.6556C13.1392 15.55 13.3758 15.3252 13.504 14.9802C13.6313 14.6335 13.6954 14.0033 13.6954 13.0877V2.00357L7.97453 11.6684H7.54475L1.78055 2.18416V12.1848C1.78055 13.0426 1.83923 13.7044 1.95752 14.1712C2.0776 14.6362 2.25006 14.9766 2.47398 15.1933C2.69971 15.41 2.97961 15.5644 3.31189 15.6556V15.9482H0.473127Z" fill="white"/>
<path d="M19.2148 15.9482V15.6556C19.5616 15.55 19.7981 15.3252 19.9263 14.9802C20.0537 14.6335 20.1178 14.0033 20.1178 13.0877V3.04012C20.1178 2.11102 20.0537 1.47808 19.9263 1.14039C19.7981 0.800892 19.5616 0.578775 19.2148 0.472232V0.179688H29.6886L29.9378 3.10874L29.6886 3.17736C29.2986 2.18596 28.7541 1.49433 28.0562 1.10427C27.3573 0.714212 26.4309 0.519183 25.2752 0.519183H21.9633V7.3416H24.8454C25.7023 7.3416 26.3668 7.28652 26.839 7.17546C27.3131 7.0626 27.6589 6.89014 27.8756 6.659C28.0941 6.42604 28.2485 6.14253 28.3379 5.81026H28.6088V9.21243H28.3379C28.2485 8.86842 28.0941 8.58401 27.8756 8.36008C27.6589 8.13436 27.3131 7.96461 26.839 7.85084C26.3668 7.73798 25.7023 7.68109 24.8454 7.68109H21.9633V14.5974C21.9633 15.2719 22.301 15.6087 22.9782 15.6087H25.9036C26.9871 15.6087 27.881 15.4227 28.5871 15.0489C29.2923 14.6733 29.8476 13.96 30.2521 12.9072L30.5013 12.9505L30.3207 15.9482H19.2148Z" fill="white"/>
<path d="M32.4595 15.9482V15.6556C32.8035 15.55 33.0391 15.3252 33.1673 14.9802C33.2946 14.6335 33.3588 14.0033 33.3588 13.0877V3.94303C33.3588 3.08617 33.3055 2.42162 33.1998 1.9494C33.096 1.47537 32.9434 1.13316 32.7412 0.923688C32.5389 0.714212 32.287 0.564329 31.9863 0.472232V0.179688H34.7131L40.5893 9.88781L46.3571 0.179688H48.9033V0.472232C48.6017 0.564329 48.3507 0.714212 48.1485 0.923688C47.9462 1.13316 47.7918 1.47537 47.6862 1.9494C47.5796 2.42162 47.5273 3.08617 47.5273 3.94303V13.0877C47.5273 14.0033 47.5905 14.6335 47.7187 14.9802C47.846 15.3252 48.0835 15.55 48.4302 15.6556V15.9482H44.7788V15.6556C45.1255 15.55 45.3621 15.3252 45.4903 14.9802C45.6176 14.6335 45.6817 14.0033 45.6817 13.0877V2.00357L39.9609 11.6684H39.5311L33.7669 2.18416V12.1848C33.7669 13.0426 33.8256 13.7044 33.9438 14.1712C34.0639 14.6362 34.2364 14.9766 34.4603 15.1933C34.686 15.41 34.9659 15.5644 35.2982 15.6556V15.9482H32.4595Z" fill="white"/>
<path d="M51.2012 15.9482V15.6556C51.5479 15.55 51.7845 15.3252 51.9127 14.9802C52.04 14.6335 52.1041 14.0033 52.1041 13.0877V3.04012C52.1041 2.11102 52.04 1.47808 51.9127 1.14039C51.7845 0.800892 51.5479 0.578775 51.2012 0.472232V0.179688H61.675L61.9242 3.10874L61.675 3.17736C61.2849 2.18596 60.7405 1.49433 60.0425 1.10427C59.3436 0.714212 58.4173 0.519183 57.2615 0.519183H53.9496V7.3416H56.8317C57.6886 7.3416 58.3532 7.28652 58.8254 7.17546C59.2994 7.0626 59.6452 6.89014 59.8619 6.659C60.0804 6.42604 60.2348 6.14253 60.3242 5.81026H60.5951V9.21243H60.3242C60.2348 8.86842 60.0804 8.58401 59.8619 8.36008C59.6452 8.13436 59.2994 7.96461 58.8254 7.85084C58.3532 7.73798 57.6886 7.68109 56.8317 7.68109H53.9496V14.5974C53.9496 15.2719 54.2873 15.6087 54.9645 15.6087H57.89C58.9735 15.6087 59.8673 15.4227 60.5734 15.0489C61.2786 14.6733 61.8339 13.96 62.2384 12.9072L62.4876 12.9505L62.307 15.9482H51.2012Z" fill="white"/>
<path d="M76.3631 16.1288L65.7557 2.3214V12.1848C65.7557 13.0426 65.8143 13.7044 65.9326 14.1712C66.0527 14.6362 66.2297 14.9766 66.4635 15.1933C66.6965 15.41 66.9782 15.5644 67.3087 15.6556V15.9482H64.4916V15.6556C64.8383 15.55 65.0749 15.3252 65.2031 14.9802C65.3304 14.6335 65.3945 14.0033 65.3945 13.0877V3.04012C65.3945 2.11102 65.3114 1.47808 65.1453 1.14039C64.981 0.800892 64.6731 0.578775 64.2207 0.472231V0.179688H66.431L76.2728 12.9288V3.94303C76.2728 3.08617 76.2123 2.42162 76.0922 1.9494C75.9712 1.47537 75.7979 1.13316 75.5721 0.923688C75.3482 0.714212 75.0638 0.564329 74.7198 0.472231V0.179688H77.5585V0.472231C77.2118 0.578775 76.9744 0.800892 76.847 1.14039C76.7188 1.47808 76.6556 2.11102 76.6556 3.04012V16.1288H76.3631Z" fill="white"/>
<path d="M82.9393 15.9482V15.6556C83.286 15.55 83.5225 15.3252 83.6508 14.9802C83.7781 14.6335 83.8422 14.0033 83.8422 13.0877V0.540853H82.737C81.7303 0.540853 80.9646 0.698863 80.44 1.01398C79.9145 1.33 79.4558 1.89342 79.064 2.70423L78.8184 2.65728L78.952 0.179688H90.5526L90.6899 2.65728L90.4407 2.70423C90.0651 1.89342 89.6145 1.33 89.0899 1.01398C88.5644 0.698863 87.7906 0.540853 86.7676 0.540853H85.7094V13.0877C85.7094 14.0033 85.7726 14.6335 85.9008 14.9802C86.0281 15.3252 86.2656 15.55 86.6123 15.6556V15.9482H82.9393Z" fill="white"/>
<path d="M100.264 16.173C99.303 16.173 98.3495 16.0114 97.4032 15.689C96.457 15.3667 95.592 14.8719 94.8101 14.2046C94.03 13.5356 93.406 12.6904 92.9392 11.6693C92.4742 10.649 92.2422 9.43996 92.2422 8.04315C92.2422 6.49556 92.5799 5.11681 93.2571 3.90781C93.9333 2.69971 94.8724 1.74623 96.0742 1.04738C97.275 0.349428 98.6718 0 100.264 0C101.21 0 102.154 0.166136 103.099 0.498408C104.045 0.828875 104.905 1.32819 105.678 1.99724C106.452 2.6645 107.073 3.50872 107.538 4.52901C108.004 5.55021 108.238 6.75199 108.238 8.13344C108.238 9.53025 108.004 10.732 107.538 11.7379C107.073 12.7446 106.449 13.578 105.667 14.2371C104.887 14.8972 104.027 15.3847 103.088 15.6999C102.151 16.015 101.21 16.173 100.264 16.173ZM94.0444 6.73573C94.0895 7.86257 94.2972 8.956 94.6656 10.0151C95.034 11.0724 95.5369 12.0223 96.1753 12.8647C96.8127 13.7053 97.5594 14.3735 98.4145 14.8692C99.2714 15.3631 100.203 15.6096 101.21 15.6096C102.411 15.6096 103.409 15.3477 104.204 14.8222C105 14.2976 105.591 13.5816 105.974 12.6733C106.357 11.7632 106.524 10.7447 106.479 9.61784C106.433 8.44766 106.227 7.31902 105.858 6.2301C105.492 5.14209 104.993 4.17056 104.363 3.3155C103.732 2.45863 102.988 1.77874 102.131 1.27491C101.276 0.771991 100.345 0.520078 99.3391 0.520078C98.1978 0.520078 97.2245 0.782826 96.4209 1.30742C95.6191 1.83291 95.0105 2.56066 94.597 3.49247C94.1853 4.42428 94.0011 5.50597 94.0444 6.73573Z" fill="white"/>
<path d="M115.807 16.1748C114.62 16.1748 113.554 16.0023 112.607 15.6583C111.661 15.3116 110.925 14.9522 110.401 14.5784L110.285 11.4471L110.534 11.4001C110.835 12.1803 111.229 12.9053 111.715 13.5744C112.204 14.2443 112.824 14.777 113.575 15.1743C114.327 15.5716 115.22 15.7703 116.255 15.7703C116.857 15.7703 117.413 15.6466 117.924 15.3982C118.434 15.1509 118.843 14.8014 119.152 14.3509C119.46 13.9012 119.614 13.3757 119.614 12.7762C119.614 12.2055 119.463 11.7098 119.163 11.2882C118.861 10.8674 118.47 10.499 117.989 10.183C117.509 9.8679 117.003 9.59432 116.468 9.36318C115.936 9.13022 115.43 8.91533 114.951 8.7203C114.065 8.35914 113.295 7.99616 112.64 7.62958C111.987 7.26119 111.484 6.81877 111.13 6.30049C110.778 5.78041 110.603 5.12309 110.603 4.32853C110.603 3.44277 110.831 2.68071 111.289 2.04235C111.746 1.4049 112.388 0.908293 113.214 0.554351C114.039 0.200409 115.002 0.0234375 116.1 0.0234375C117.12 0.0234375 117.998 0.137205 118.733 0.362933C119.47 0.589564 120.056 0.821613 120.492 1.05998L120.582 3.67482L120.354 3.74344C119.935 2.76649 119.323 1.96199 118.52 1.33086C117.715 0.700623 116.668 0.384603 115.378 0.384603C114.778 0.384603 114.218 0.501982 113.698 0.734933C113.18 0.968788 112.767 1.30377 112.459 1.73897C112.151 2.17237 111.997 2.71322 111.997 3.36061C111.997 3.8861 112.124 4.34298 112.38 4.73303C112.637 5.12309 112.976 5.46169 113.395 5.74791C113.816 6.03233 114.273 6.28424 114.767 6.50275C115.263 6.71944 115.751 6.92531 116.234 7.12034C117.073 7.4508 117.862 7.80294 118.599 8.17855C119.336 8.55416 119.933 9.01285 120.391 9.55459C120.847 10.0945 121.077 10.7925 121.077 11.6494C121.077 12.5794 120.821 13.3857 120.311 14.0692C119.8 14.7536 119.143 15.2755 118.339 15.6366C117.537 15.9951 116.693 16.1748 115.807 16.1748Z" fill="white"/>
<path d="M33.1307 40.0007C32.8679 40.0007 32.681 39.8364 32.5709 39.5095C32.5492 39.4201 32.532 39.3434 32.5203 39.2784C32.5104 39.2134 32.5167 39.1357 32.5384 39.0472C32.5384 38.8495 32.5275 38.7186 32.5059 38.6535C32.6377 36.9633 32.8959 35.2189 33.2788 33.4203C33.6634 31.6217 34.1293 29.8339 34.6765 28.057C35.2254 26.28 35.834 24.5356 36.504 22.8237C37.173 21.1117 37.8475 19.4991 38.5265 17.984C38.5933 17.8757 38.6601 17.7674 38.7251 17.659C38.7919 17.5488 38.8588 17.4378 38.9238 17.3267C38.9671 17.2834 39.0213 17.2617 39.0863 17.2617C39.3508 17.2617 39.4836 17.3719 39.4836 17.5904C39.4836 17.7448 39.4493 17.91 39.3824 18.0852C39.3391 18.2396 39.2849 18.3877 39.2199 18.5294C39.1549 18.6721 39.0881 18.8201 39.0213 18.9736C38.9563 19.128 38.8895 19.2824 38.8226 19.4359C38.7576 19.5876 38.6926 19.7411 38.6276 19.8946C38.057 21.212 37.4972 22.5997 36.9482 24.0589C36.3992 25.518 35.8945 26.9933 35.4349 28.4831C34.9744 29.9982 34.5735 31.5187 34.2322 33.0446C33.8927 34.5688 33.6453 36.055 33.4918 37.5014C33.4702 37.5448 33.4593 37.654 33.4593 37.8301C33.4593 37.9619 33.481 38.0504 33.5243 38.0937C33.5478 38.1154 33.5821 38.1262 33.6255 38.1262C33.6905 38.1262 33.7447 38.0703 33.788 37.9601C33.8982 37.7624 34.0083 37.5646 34.1167 37.3678C34.2268 37.1701 34.3379 36.9615 34.4489 36.743C34.8218 35.9755 35.3049 35.0094 35.8972 33.8464C37.1035 31.4989 38.5283 28.9662 40.1734 26.2475C41.0059 24.9311 41.8284 23.7121 42.6402 22.5925C43.4754 21.4973 44.288 20.561 45.078 19.7827C45.8672 19.0025 46.6021 18.5249 47.2811 18.3488C47.3913 18.3272 47.4906 18.3109 47.5773 18.2983C47.6658 18.2865 47.7326 18.2802 47.7759 18.2802C48.3466 18.2802 48.7628 18.5782 49.0256 19.1723C49.0924 19.3456 49.1529 19.5208 49.2061 19.696C49.2612 19.872 49.2784 20.0481 49.2567 20.2233C49.2567 20.3343 49.2567 20.4499 49.2567 20.57C49.2567 20.691 49.2675 20.8048 49.2892 20.9131C49.2892 21.0242 49.2829 21.1397 49.2712 21.2598C49.2612 21.3808 49.2459 21.4964 49.2242 21.6065C49.0265 23.0106 48.6861 24.3496 48.2021 25.6227C47.72 26.894 47.0626 28.1111 46.2301 29.2741C45.9213 29.6912 45.4934 30.1797 44.9444 30.7404C44.3972 31.2993 43.8112 31.7824 43.1855 32.1887C42.5589 32.5932 41.972 32.7954 41.423 32.7954C40.679 32.7954 40.2511 32.4442 40.1409 31.7408C39.9648 30.8217 40.1734 30.0208 40.7657 29.3391C40.9409 29.0989 41.1494 28.9012 41.3905 28.7468C41.6307 28.5933 41.8835 28.4506 42.149 28.3206C42.1706 28.2989 42.2031 28.2881 42.2465 28.2881H42.3801C42.5535 28.2881 42.6627 28.3423 42.7088 28.4506C42.8388 28.6484 42.8153 28.8136 42.6402 28.9454C42.5752 28.9888 42.5083 29.0384 42.4415 29.0935C42.3765 29.1495 42.3115 29.1982 42.2465 29.2416C42.1815 29.2849 42.1147 29.3283 42.0478 29.3716C41.9828 29.4149 41.9178 29.4601 41.8528 29.5052C41.5224 29.7246 41.2912 29.9928 41.1594 30.3106C41.0294 30.6285 40.9535 30.9743 40.9318 31.3472C40.9318 31.5882 40.9969 31.7472 41.1269 31.8239C41.2587 31.9016 41.4348 31.9395 41.6542 31.9395C41.8727 31.8961 42.0749 31.8203 42.2609 31.7119C42.4487 31.6018 42.6302 31.4907 42.8063 31.3797C43.9042 30.6772 44.836 29.7779 45.6017 28.6818C46.3692 27.5838 46.9832 26.3938 47.4437 25.1098C47.906 23.8268 48.2247 22.5709 48.4007 21.3429C48.4658 20.7939 48.4549 20.3226 48.3682 19.9271C48.2816 19.3998 48.073 19.1362 47.7434 19.1362C47.589 19.1362 47.3913 19.203 47.1511 19.3348C46.8423 19.4892 46.5191 19.7032 46.1796 19.9777C45.8401 20.2522 45.4834 20.5763 45.1105 20.9492C44.3855 21.6932 43.6605 22.5709 42.9363 23.5821C42.214 24.5916 41.5007 25.666 40.7982 26.8073C40.1192 27.9468 39.4619 29.0646 38.8263 30.1625C38.4958 30.7765 38.1382 31.4402 37.7536 32.1526C37.3708 32.8659 37.0204 33.5412 36.7026 34.1787C36.3848 34.8144 36.1157 35.3299 35.8972 35.7245C35.7645 35.9872 35.6317 36.2509 35.4999 36.5154C35.3699 36.7782 35.2381 37.04 35.1063 37.3028C34.9735 37.5673 34.8408 37.831 34.709 38.0937C34.5789 38.3556 34.4363 38.6075 34.2828 38.8486C34.2395 38.9371 34.1898 39.0255 34.1347 39.1122C34.0787 39.2007 34.03 39.2892 33.9866 39.3759C33.9 39.5294 33.7681 39.6729 33.593 39.8057C33.4602 39.9357 33.3058 40.0007 33.1307 40.0007Z" fill="white"/>
<path d="M50.5415 37.5018C50.5199 37.5018 50.5036 37.5018 50.491 37.5018C50.4792 37.5018 50.4621 37.5018 50.4404 37.5018C50.4404 37.4801 50.4187 37.4693 50.3754 37.4693C50.1569 37.4016 50.0251 37.2363 49.9817 36.9745C49.9817 36.9095 49.9817 36.8445 49.9817 36.7795C49.9817 36.7126 49.9709 36.635 49.9492 36.5483C49.9492 36.4815 49.9492 36.4147 49.9492 36.3497C49.9492 36.2847 49.9601 36.2079 49.9817 36.1185C50.2011 34.6504 50.5298 33.3231 50.9677 32.1385C51.4056 30.9539 51.9103 29.7033 52.481 28.386C52.5243 28.2975 52.5677 28.2153 52.611 28.1404C52.6562 28.0636 52.7013 27.9914 52.7446 27.9237C52.8115 27.8587 52.9108 27.8262 53.0408 27.8262H53.1419C53.3153 27.8912 53.3911 28.0013 53.3695 28.1548C53.3695 28.3526 53.3153 28.5946 53.2069 28.8808C53.0742 29.2085 52.937 29.5372 52.7952 29.8668C52.6525 30.1972 52.5045 30.5259 52.351 30.8527C52.1316 31.3584 51.9338 31.864 51.7587 32.3696C51.5826 32.8735 51.4282 33.3773 51.2964 33.8829C51.253 34.0563 51.2142 34.2314 51.1808 34.4066C51.1492 34.5827 51.1772 34.7587 51.2639 34.9339H51.2314L51.2639 34.9664L52.546 32.366C52.8106 31.8631 53.1401 31.3539 53.5356 30.8383C53.9302 30.3236 54.3789 29.9119 54.8827 29.6031C55.0146 29.5381 55.1473 29.5056 55.28 29.5056C55.5419 29.5056 55.7504 29.6374 55.9048 29.8993C55.9482 29.9426 55.9852 29.9986 56.0168 30.0654C56.0502 30.1304 56.0791 30.1954 56.1035 30.2604C56.1251 30.3932 56.1793 30.5259 56.266 30.6577C56.5062 31.0532 56.7698 31.25 57.057 31.25C57.2538 31.25 57.4949 31.1624 57.7793 30.9864C58.0655 30.8112 58.3571 30.6135 58.6533 30.3941C58.9495 30.1756 59.1851 29.9886 59.3612 29.8343C59.4912 29.7024 59.633 29.5923 59.7874 29.5056C59.809 29.4839 59.8533 29.4731 59.921 29.4731C60.0077 29.4731 60.0944 29.5056 60.181 29.5706C60.3129 29.7033 60.3472 29.8343 60.2822 29.9643C60.1928 30.1403 60.0944 30.2839 59.986 30.3941C59.7883 30.5918 59.5138 30.8275 59.1625 31.1019C58.8104 31.3764 58.4483 31.613 58.0754 31.8098C57.7016 32.0076 57.3621 32.106 57.057 32.106C56.508 32.106 56.0574 31.864 55.7062 31.38C55.6629 31.315 55.6195 31.25 55.5762 31.185C55.5328 31.1182 55.4877 31.0514 55.4425 30.9864C55.4209 30.9196 55.3884 30.8527 55.345 30.7877C55.3017 30.7227 55.2584 30.6568 55.215 30.5891C55.0606 30.5891 54.945 30.6234 54.8683 30.6902C54.7906 30.7552 54.7202 30.8329 54.6552 30.9214C54.3464 31.2274 54.0719 31.5624 53.8317 31.9254C53.5907 32.2866 53.3713 32.6541 53.1744 33.027C53.0417 33.2897 52.909 33.5534 52.7771 33.8179C52.6471 34.0807 52.5261 34.3434 52.416 34.6052C52.2833 34.868 52.1505 35.1316 52.0187 35.3962C51.8887 35.6589 51.746 35.9334 51.5925 36.2197C51.5058 36.393 51.4128 36.5628 51.3144 36.7289C51.2151 36.8932 51.1104 37.0621 51.0002 37.2381C50.8919 37.4133 50.7384 37.5018 50.5415 37.5018Z" fill="white"/>
<path d="M62.4548 35.7571C61.8408 35.7571 61.412 35.4393 61.1691 34.8036C61.1041 34.6285 61.0652 34.4479 61.0535 34.2619C61.0436 34.0741 61.0391 33.8601 61.0391 33.619C61.1257 33.135 61.2242 32.559 61.3352 31.889C61.4454 31.22 61.5935 30.5843 61.7795 29.9821C61.9645 29.378 62.2002 28.9338 62.4873 28.6494C62.5957 28.5825 62.6833 28.5482 62.751 28.5482C62.7727 28.5482 62.8494 28.5717 62.9821 28.6169C63.1338 28.6819 63.188 28.8029 63.1447 28.978C62.8602 29.7031 62.6074 30.466 62.3862 31.2678C62.1668 32.0678 62.0034 32.8515 61.895 33.619C61.8734 33.8601 61.895 34.1454 61.96 34.475C62.0034 34.6483 62.0792 34.7585 62.1876 34.8036C62.2977 34.847 62.4413 34.8686 62.6174 34.8686C62.8602 34.8253 63.0805 34.7494 63.2783 34.6411C63.4751 34.5309 63.6729 34.3982 63.8706 34.2438C64.3085 33.8709 64.7302 33.4872 65.1347 33.0917C65.541 32.6971 65.931 32.2809 66.3049 31.8421C66.4367 31.6886 66.5685 31.5342 66.6985 31.3798C66.8304 31.2263 66.9513 31.0728 67.0597 30.9211C67.1698 30.7676 67.2908 30.6132 67.4209 30.4588C67.5527 30.3053 67.6854 30.1509 67.8181 29.9965C67.8831 29.9098 67.9536 29.834 68.0312 29.769C68.108 29.7022 68.191 29.6353 68.2804 29.5703C68.3238 29.527 68.3779 29.5053 68.443 29.5053C68.5314 29.5053 68.6091 29.5378 68.6741 29.6028C68.8059 29.6895 68.8493 29.8213 68.8041 29.9965C68.7824 30.1292 68.7174 30.2511 68.6091 30.3613C68.0384 31.1053 67.4507 31.8294 66.8466 32.5319C66.2444 33.2353 65.5807 33.8935 64.8566 34.5075C64.5478 34.7919 64.1794 35.0709 63.7514 35.3454C63.3252 35.6199 62.8927 35.7571 62.4548 35.7571ZM63.3108 27.3636C62.9803 27.4097 62.7943 27.2011 62.751 26.7388C62.751 26.3442 62.9478 26.1465 63.3433 26.1465C63.7595 26.1465 63.9789 26.3226 64.0006 26.6738C64.0006 26.8499 63.9293 27.0088 63.7875 27.1505C63.6449 27.2932 63.486 27.3636 63.3108 27.3636Z" fill="white"/>
<path d="M69.3642 36.6122C69.1024 36.6122 68.9489 36.4587 68.9056 36.1499C68.8839 36.0849 68.873 35.9432 68.873 35.7238C68.9381 35.1531 69.0482 34.5933 69.2017 34.0444C69.3561 33.4954 69.5213 32.9482 69.6965 32.4011C69.8482 31.9821 70.0008 31.5704 70.1552 31.1659C70.3087 30.7596 70.4631 30.3478 70.6175 29.9307C70.7692 29.5144 70.9218 29.1036 71.0762 28.6991C71.2297 28.2928 71.384 27.8811 71.5384 27.4639C71.6468 27.3104 71.7714 27.0739 71.9141 26.756C72.0585 26.4382 72.2183 26.2793 72.3944 26.2793C72.3944 26.2793 72.4594 26.301 72.5894 26.3443C72.8107 26.477 72.8657 26.6639 72.7556 26.9041L72.5569 27.2978C72.4052 27.7149 72.2463 28.1321 72.0802 28.551C71.9159 28.9682 71.757 29.3844 71.6035 29.8007C71.4491 30.2178 71.2901 30.6404 71.1267 31.0684C70.9624 31.4945 70.7926 31.9162 70.6175 32.3324C70.5958 32.4218 70.5678 32.5157 70.5344 32.6141C70.5001 32.7135 70.4622 32.8164 70.4188 32.9247C70.3322 33.1008 70.343 33.3094 70.4513 33.5496C70.5832 33.266 70.8242 32.8615 71.1737 32.336C71.5249 31.8087 71.9195 31.2598 72.3583 30.6891C72.7989 30.1185 73.2377 29.6363 73.6765 29.2409C74.1145 28.8463 74.4982 28.6485 74.8287 28.6485C75.2016 28.6485 75.4426 28.8029 75.551 29.1108C75.6612 29.4169 75.7388 29.7122 75.7821 29.9957C75.8038 30.1501 75.8201 30.2937 75.8327 30.4255C75.8444 30.5555 75.8616 30.6873 75.8833 30.8191C75.8833 30.9519 75.8878 31.0846 75.8977 31.2164C75.9095 31.3464 75.9266 31.4783 75.9483 31.6101C75.9699 31.9839 76.0684 32.3234 76.2444 32.6286C76.3094 32.8047 76.4404 32.8922 76.6381 32.8922C76.6814 32.8922 76.7149 32.8814 76.7392 32.8597C76.7392 32.8597 76.7437 32.8597 76.7537 32.8597C76.7654 32.8597 76.7826 32.8597 76.8042 32.8597C77.0011 32.7947 77.188 32.7026 77.364 32.5816C77.5392 32.4615 77.7144 32.3243 77.8877 32.1699C78.0412 32.0381 78.1848 31.9063 78.3175 31.7762C78.4493 31.6444 78.592 31.5008 78.7437 31.3464C78.8755 31.2146 79.0128 31.0828 79.1554 30.9528C79.2972 30.821 79.4453 30.6882 79.5997 30.5555C79.7748 30.402 79.9229 30.2702 80.0439 30.1618C80.164 30.0517 80.247 29.974 80.2931 29.9307C80.3364 29.8873 80.3798 29.844 80.4231 29.8007C80.4665 29.7555 80.499 29.7212 80.5206 29.6995C80.5874 29.6345 80.6651 29.602 80.7518 29.602C80.8403 29.602 80.9179 29.6345 80.9829 29.6995C81.1364 29.8323 81.1798 29.9867 81.1129 30.1618C81.0479 30.3379 80.9486 30.4905 80.8168 30.6205C80.7301 30.7099 80.5604 30.8697 80.3075 31.1009C80.0547 31.3302 79.7802 31.5812 79.4841 31.8557C79.1879 32.1302 78.9134 32.3776 78.6606 32.5961C78.4096 32.8155 78.2399 32.9699 78.1514 33.0584C77.7559 33.4322 77.318 33.6615 76.8367 33.7482C76.8151 33.7482 76.7934 33.7482 76.7717 33.7482C76.7501 33.7482 76.7266 33.7482 76.7031 33.7482C76.6598 33.7699 76.6056 33.7807 76.5406 33.7807C76.1018 33.7807 75.7505 33.5514 75.486 33.0909C75.2882 32.718 75.1682 32.3126 75.1248 31.8737C75.1031 31.6986 75.086 31.5288 75.0743 31.3645C75.0643 31.1984 75.049 31.0386 75.0273 30.8842C75.0056 30.7325 74.9822 30.5754 74.9587 30.411C74.937 30.2449 74.9153 30.0851 74.8937 29.9307C74.8503 29.7555 74.7727 29.667 74.6625 29.667C74.5758 29.667 74.5 29.7013 74.435 29.7682C73.5772 30.5365 72.8251 31.4033 72.1777 32.3685C71.5321 33.332 70.957 34.3297 70.4513 35.3626C70.408 35.4493 70.3583 35.5423 70.3033 35.6407C70.2473 35.74 70.1985 35.8448 70.1552 35.9549C70.1118 36.0633 70.0513 36.1626 69.9746 36.2511C69.897 36.3378 69.8049 36.4262 69.6965 36.5147C69.6071 36.5797 69.497 36.6122 69.3642 36.6122Z" fill="white"/>
<path d="M82.461 39.2768C82.0438 39.2768 81.7658 39.0457 81.6231 38.5834C81.4786 38.1229 81.4064 37.7066 81.4064 37.3337C81.4064 36.2818 81.5391 35.1144 81.8037 33.8304C82.0655 32.5474 82.3888 31.2806 82.7716 30.031C83.1562 28.7795 83.5246 27.6599 83.8768 26.6721C83.9851 26.3642 84.088 26.0744 84.1874 25.8017C84.2858 25.5272 84.3905 25.2473 84.5016 24.9602C84.5883 24.72 84.6144 24.5503 84.581 24.451C84.5494 24.3525 84.4348 24.3029 84.2379 24.3029H83.9743C83.7549 24.3246 83.5355 24.3462 83.317 24.3679C83.0975 24.3896 82.8781 24.4239 82.6596 24.469C82.4402 24.4907 82.2154 24.5187 81.9843 24.5521C81.7531 24.5837 81.5283 24.6099 81.3089 24.6315C81.1771 24.6532 81.0398 24.6749 80.8971 24.6966C80.7554 24.7182 80.6181 24.7291 80.4854 24.7291C80.3103 24.7291 80.1893 24.7182 80.1243 24.6966C80.0159 24.6749 79.9392 24.6099 79.8931 24.5015C79.8498 24.283 79.9057 24.1611 80.0592 24.1367C80.1459 24.1151 80.2236 24.0934 80.2904 24.0717C80.3554 24.0501 80.4204 24.0284 80.4854 24.0067C80.5748 23.9851 80.6579 23.9697 80.7346 23.9598C80.8123 23.948 80.8935 23.9309 80.9802 23.9092C81.289 23.8641 81.5906 23.8189 81.8867 23.7756C82.1829 23.7322 82.4727 23.6997 82.7572 23.6781C83.065 23.6347 83.3612 23.5968 83.6456 23.5625C83.9318 23.5291 84.2172 23.5011 84.5016 23.4794C84.8962 23.4578 85.1706 23.2718 85.325 22.9196L86.2135 20.9477C86.3002 20.8158 86.376 20.684 86.441 20.554C86.5079 20.4222 86.5855 20.2894 86.6722 20.1567C86.739 20.0249 86.8103 19.8931 86.8853 19.763C86.962 19.6312 87.0451 19.4985 87.1345 19.3657C87.3747 18.9712 87.6049 18.7734 87.8243 18.7734C87.9561 18.7734 88.0554 18.8511 88.1205 19.0046C88.1656 19.224 88.1114 19.4651 87.9579 19.7269C87.7819 20.1675 87.5895 20.6073 87.3801 21.0452C87.1724 21.484 86.9593 21.9219 86.7408 22.3598C86.7164 22.4059 86.6939 22.4609 86.6722 22.5259C86.6505 22.591 86.6288 22.6469 86.6072 22.6921C86.5422 22.8221 86.5097 22.9756 86.5097 23.1508C86.5963 23.1724 86.6722 23.1896 86.7372 23.2013C86.804 23.2113 86.8708 23.2158 86.9358 23.2158C87.0243 23.2158 87.0911 23.2049 87.1345 23.1833C87.1778 23.1833 87.2103 23.1833 87.232 23.1833C87.2537 23.1833 87.2753 23.1833 87.297 23.1833C87.7593 23.1399 88.2369 23.0912 88.7308 23.0352C89.2238 22.9801 89.7457 22.9305 90.2947 22.8871C90.8409 22.8438 91.361 22.8004 91.8549 22.7571C92.3506 22.7138 92.8282 22.6695 93.2887 22.6235H94.4734C94.6269 22.6235 94.7153 22.7336 94.737 22.9521C94.737 23.1282 94.6702 23.2392 94.5384 23.2844C94.4517 23.3061 94.374 23.3232 94.3072 23.335C94.2422 23.3449 94.1772 23.3494 94.1122 23.3494C94.0445 23.3711 93.9786 23.3819 93.9135 23.3819C93.8485 23.3819 93.7709 23.3927 93.6824 23.4144L86.6072 24.0392C86.125 24.0826 85.8072 24.302 85.6537 24.6966C85.456 25.1137 85.2203 25.7114 84.9458 26.4915C84.6713 27.2699 84.386 28.1087 84.0899 29.0089C83.7937 29.91 83.5246 30.7659 83.2845 31.5768C83.0434 32.3885 82.8673 33.035 82.7572 33.5162C82.6244 34.0652 82.5197 34.6096 82.4429 35.1487C82.368 35.6859 82.3075 36.2394 82.2624 36.81C82.2407 37.0502 82.2235 37.3084 82.2118 37.5829C82.2019 37.8574 82.3174 38.0931 82.5585 38.2908C82.8014 38.2664 83.0217 38.1554 83.2194 37.9585C83.3061 37.8502 83.3874 37.7464 83.465 37.6479C83.5418 37.5486 83.6239 37.4547 83.7106 37.3662C84.0619 36.9283 84.4844 36.364 84.9783 35.6724C85.4713 34.9816 85.976 34.2747 86.4916 33.5523C87.0063 32.8282 87.483 32.1691 87.9218 31.5768C88.3624 30.9844 88.7028 30.5673 88.9439 30.3235C88.9873 30.2585 89.0414 30.1935 89.1064 30.1285C89.1733 30.0617 89.2292 29.9948 89.2726 29.9298C89.3827 29.8215 89.5155 29.7339 89.6699 29.6662C89.6915 29.6662 89.7132 29.6554 89.7349 29.6337C89.7565 29.6337 89.7674 29.6337 89.7674 29.6337C89.7674 29.6337 89.7782 29.6337 89.7999 29.6337C89.8215 29.6337 89.8983 29.6554 90.031 29.6987C90.2062 29.8314 90.2387 29.9967 90.1285 30.1935C90.1285 30.2585 90.096 30.3253 90.031 30.3921C89.7006 30.7876 89.2672 31.3474 88.7308 32.0715C88.1936 32.7939 87.6943 33.4729 87.232 34.1085C86.683 34.8552 86.1232 35.6074 85.5526 36.3658C84.9837 37.1215 84.4366 37.8069 83.9093 38.4208C83.7549 38.6177 83.5409 38.8091 83.2664 38.9951C82.9919 39.1829 82.7228 39.2768 82.461 39.2768Z" fill="white"/>
</svg>
