<svg width="343" height="24" viewBox="0 0 343 24" fill="none" xmlns="http://www.w3.org/2000/svg">
<path fill-rule="evenodd" clip-rule="evenodd" d="M7.25 12C7.25 6.615 11.615 2.25 17 2.25C22.385 2.25 26.75 6.615 26.75 12C26.75 17.385 22.385 21.75 17 21.75C11.615 21.75 7.25 17.385 7.25 12ZM20.61 10.186C20.67 10.1061 20.7134 10.0149 20.7377 9.91795C20.762 9.82098 20.7666 9.72014 20.7514 9.62135C20.7361 9.52257 20.7012 9.42782 20.6489 9.3427C20.5965 9.25757 20.5276 9.18378 20.4463 9.12565C20.3649 9.06753 20.2728 9.02624 20.1753 9.00423C20.0778 8.98221 19.9769 8.97991 19.8785 8.99746C19.7801 9.01501 19.6862 9.05205 19.6023 9.10641C19.5184 9.16077 19.4462 9.23135 19.39 9.314L16.154 13.844L14.53 12.22C14.3878 12.0875 14.1998 12.0154 14.0055 12.0188C13.8112 12.0223 13.6258 12.101 13.4884 12.2384C13.351 12.3758 13.2723 12.5612 13.2688 12.7555C13.2654 12.9498 13.3375 13.1378 13.47 13.28L15.72 15.53C15.797 15.6069 15.8898 15.6662 15.992 15.7036C16.0942 15.7411 16.2033 15.7559 16.3118 15.7469C16.4202 15.738 16.5255 15.7055 16.6201 15.6519C16.7148 15.5982 16.7967 15.5245 16.86 15.436L20.61 10.186Z" fill="#C9EC81"/>
<path d="M20.61 10.186C20.67 10.1061 20.7134 10.0149 20.7377 9.91795C20.762 9.82098 20.7666 9.72014 20.7514 9.62135C20.7361 9.52257 20.7012 9.42782 20.6489 9.3427C20.5965 9.25757 20.5276 9.18378 20.4463 9.12565C20.3649 9.06753 20.2728 9.02624 20.1753 9.00423C20.0778 8.98221 19.9769 8.97991 19.8785 8.99746C19.7801 9.01501 19.6862 9.05205 19.6023 9.10641C19.5184 9.16077 19.4462 9.23135 19.39 9.314L16.154 13.844L14.53 12.22C14.3878 12.0875 14.1998 12.0154 14.0055 12.0188C13.8112 12.0223 13.6258 12.101 13.4884 12.2384C13.351 12.3758 13.2723 12.5612 13.2688 12.7555C13.2654 12.9498 13.3375 13.1378 13.47 13.28L15.72 15.53C15.797 15.6069 15.8898 15.6662 15.992 15.7036C16.0942 15.7411 16.2033 15.7559 16.3118 15.7469C16.4202 15.738 16.5255 15.7055 16.6201 15.6519C16.7148 15.5982 16.7967 15.5245 16.86 15.436L20.61 10.186Z" fill="#333431"/>
<path d="M33.882 17V7.984H35.408V17H33.882ZM37.3769 17V10.364H38.7769L38.8469 11.064C39.1456 10.8307 39.5003 10.6347 39.9109 10.476C40.3309 10.308 40.7929 10.224 41.2969 10.224C42.1556 10.224 42.7809 10.4247 43.1729 10.826C43.5649 11.2273 43.7609 11.8527 43.7609 12.702V17H42.2489V12.772C42.2489 12.2587 42.1416 11.8993 41.9269 11.694C41.7216 11.4887 41.3296 11.386 40.7509 11.386C40.4056 11.386 40.0649 11.456 39.7289 11.596C39.4023 11.736 39.1269 11.918 38.9029 12.142V17H37.3769ZM46.0767 17V11.554H45.1107V10.364H46.0767V9.552C46.0767 8.88933 46.2587 8.35733 46.6227 7.956C46.996 7.54533 47.5467 7.34 48.2747 7.34C48.5453 7.34 48.7927 7.36333 49.0167 7.41C49.2407 7.44733 49.446 7.50333 49.6327 7.578V8.67C49.3433 8.56733 49.0493 8.516 48.7507 8.516C48.312 8.516 48.0087 8.59533 47.8407 8.754C47.6727 8.91267 47.5887 9.18333 47.5887 9.566V10.364H49.3247L49.2547 11.554H47.5887V17H46.0767ZM53.6014 17.14C52.4067 17.14 51.5294 16.8413 50.9694 16.244C50.4187 15.6467 50.1434 14.7927 50.1434 13.682C50.1434 12.5713 50.4234 11.7173 50.9834 11.12C51.5434 10.5227 52.4161 10.224 53.6014 10.224C54.7961 10.224 55.6734 10.5227 56.2334 11.12C56.7934 11.7173 57.0734 12.5713 57.0734 13.682C57.0734 14.7927 56.7934 15.6467 56.2334 16.244C55.6827 16.8413 54.8054 17.14 53.6014 17.14ZM53.6014 15.852C54.3014 15.852 54.7961 15.684 55.0854 15.348C55.3841 15.0027 55.5334 14.4473 55.5334 13.682C55.5334 12.9167 55.3841 12.366 55.0854 12.03C54.7961 11.694 54.3014 11.526 53.6014 11.526C52.9107 11.526 52.4161 11.694 52.1174 12.03C51.8281 12.366 51.6834 12.9167 51.6834 13.682C51.6834 14.4473 51.8281 15.0027 52.1174 15.348C52.4161 15.684 52.9107 15.852 53.6014 15.852ZM58.7582 17V10.364H60.1582L60.2422 11.134C60.5595 10.9287 60.9375 10.742 61.3762 10.574C61.8148 10.406 62.2488 10.2893 62.6782 10.224V11.386C62.4168 11.4327 62.1322 11.5027 61.8242 11.596C61.5255 11.68 61.2408 11.778 60.9702 11.89C60.6995 11.9927 60.4708 12.1 60.2842 12.212V17H58.7582ZM63.9894 17V10.364H65.3894L65.4594 11.064C65.7861 10.8027 66.1454 10.5973 66.5374 10.448C66.9294 10.2987 67.3494 10.224 67.7974 10.224C68.2734 10.224 68.6421 10.3033 68.9034 10.462C69.1741 10.6113 69.3794 10.8213 69.5194 11.092C69.8274 10.84 70.1821 10.6347 70.5834 10.476C70.9848 10.308 71.4654 10.224 72.0254 10.224C72.7908 10.224 73.3554 10.42 73.7194 10.812C74.0834 11.204 74.2654 11.806 74.2654 12.618V17H72.7674V12.772C72.7674 12.2587 72.6601 11.8993 72.4454 11.694C72.2308 11.4887 71.8808 11.386 71.3954 11.386C71.0781 11.386 70.7748 11.442 70.4854 11.554C70.2054 11.666 69.9628 11.834 69.7574 12.058C69.7854 12.1607 69.8041 12.268 69.8134 12.38C69.8228 12.492 69.8274 12.6133 69.8274 12.744V17H68.4134V12.786C68.4134 12.3007 68.3294 11.946 68.1614 11.722C67.9934 11.498 67.6761 11.386 67.2094 11.386C66.8828 11.386 66.5701 11.4653 66.2714 11.624C65.9821 11.7733 65.7208 11.9553 65.4874 12.17V17H63.9894ZM78.0466 17.14C77.6266 17.14 77.2346 17.0653 76.8706 16.916C76.5159 16.7667 76.2312 16.5427 76.0166 16.244C75.8019 15.936 75.6946 15.558 75.6946 15.11C75.6946 14.4753 75.9092 13.9667 76.3386 13.584C76.7772 13.192 77.4492 12.996 78.3546 12.996H80.4826V12.702C80.4826 12.3847 80.4312 12.1327 80.3286 11.946C80.2352 11.7593 80.0579 11.624 79.7966 11.54C79.5446 11.456 79.1712 11.414 78.6766 11.414C77.8926 11.414 77.1599 11.5307 76.4786 11.764V10.63C76.7772 10.5087 77.1412 10.4107 77.5706 10.336C77.9999 10.2613 78.4619 10.224 78.9566 10.224C79.9272 10.224 80.6646 10.42 81.1686 10.812C81.6819 11.204 81.9386 11.8433 81.9386 12.73V17H80.6366L80.5386 16.328C80.2679 16.5893 79.9319 16.79 79.5306 16.93C79.1386 17.07 78.6439 17.14 78.0466 17.14ZM78.4526 16.048C78.9099 16.048 79.3066 15.9733 79.6426 15.824C79.9879 15.6653 80.2679 15.4553 80.4826 15.194V14.032H78.3826C77.9346 14.032 77.6079 14.1207 77.4026 14.298C77.2066 14.466 77.1086 14.7273 77.1086 15.082C77.1086 15.4273 77.2252 15.6747 77.4586 15.824C77.6919 15.9733 78.0232 16.048 78.4526 16.048ZM86.3648 17.14C85.6555 17.14 85.1235 16.9533 84.7688 16.58C84.4235 16.1973 84.2508 15.6793 84.2508 15.026V11.554H83.2708V10.364H84.2508V8.838L85.7628 8.376V10.364H87.5268L87.4288 11.554H85.7628V14.942C85.7628 15.3247 85.8515 15.5953 86.0288 15.754C86.2062 15.9033 86.4955 15.978 86.8968 15.978C87.1488 15.978 87.4148 15.9313 87.6948 15.838V16.916C87.3308 17.0653 86.8875 17.14 86.3648 17.14ZM89.6221 8.978V7.718H91.2881V8.978H89.6221ZM89.7481 17V11.526H88.7401L88.8801 10.364H91.2741V17H89.7481ZM96.4323 17.14C95.2376 17.14 94.3603 16.8413 93.8003 16.244C93.2496 15.6467 92.9743 14.7927 92.9743 13.682C92.9743 12.5713 93.2543 11.7173 93.8143 11.12C94.3743 10.5227 95.2469 10.224 96.4323 10.224C97.6269 10.224 98.5043 10.5227 99.0643 11.12C99.6243 11.7173 99.9043 12.5713 99.9043 13.682C99.9043 14.7927 99.6243 15.6467 99.0643 16.244C98.5136 16.8413 97.6363 17.14 96.4323 17.14ZM96.4323 15.852C97.1323 15.852 97.6269 15.684 97.9163 15.348C98.2149 15.0027 98.3643 14.4473 98.3643 13.682C98.3643 12.9167 98.2149 12.366 97.9163 12.03C97.6269 11.694 97.1323 11.526 96.4323 11.526C95.7416 11.526 95.2469 11.694 94.9483 12.03C94.6589 12.366 94.5143 12.9167 94.5143 13.682C94.5143 14.4473 94.6589 15.0027 94.9483 15.348C95.2469 15.684 95.7416 15.852 96.4323 15.852ZM101.589 17V10.364H102.989L103.059 11.064C103.358 10.8307 103.712 10.6347 104.123 10.476C104.543 10.308 105.005 10.224 105.509 10.224C106.368 10.224 106.993 10.4247 107.385 10.826C107.777 11.2273 107.973 11.8527 107.973 12.702V17H106.461V12.772C106.461 12.2587 106.354 11.8993 106.139 11.694C105.934 11.4887 105.542 11.386 104.963 11.386C104.618 11.386 104.277 11.456 103.941 11.596C103.614 11.736 103.339 11.918 103.115 12.142V17H101.589Z" fill="#212121"/>
<path fill-rule="evenodd" clip-rule="evenodd" d="M143.25 12C143.25 6.615 147.615 2.25 153 2.25C158.385 2.25 162.75 6.615 162.75 12C162.75 17.385 158.385 21.75 153 21.75C147.615 21.75 143.25 17.385 143.25 12ZM156.61 10.186C156.67 10.1061 156.713 10.0149 156.738 9.91795C156.762 9.82098 156.767 9.72014 156.751 9.62135C156.736 9.52257 156.701 9.42782 156.649 9.3427C156.596 9.25757 156.528 9.18378 156.446 9.12565C156.365 9.06753 156.273 9.02624 156.175 9.00423C156.078 8.98221 155.977 8.97991 155.878 8.99746C155.78 9.01501 155.686 9.05205 155.602 9.10641C155.518 9.16077 155.446 9.23135 155.39 9.314L152.154 13.844L150.53 12.22C150.388 12.0875 150.2 12.0154 150.005 12.0188C149.811 12.0223 149.626 12.101 149.488 12.2384C149.351 12.3758 149.272 12.5612 149.269 12.7555C149.265 12.9498 149.338 13.1378 149.47 13.28L151.72 15.53C151.797 15.6069 151.89 15.6662 151.992 15.7036C152.094 15.7411 152.203 15.7559 152.312 15.7469C152.42 15.738 152.525 15.7055 152.62 15.6519C152.715 15.5982 152.797 15.5245 152.86 15.436L156.61 10.186Z" fill="#C9EC81"/>
<path d="M156.61 10.186C156.67 10.1061 156.713 10.0149 156.738 9.91795C156.762 9.82098 156.767 9.72014 156.751 9.62135C156.736 9.52257 156.701 9.42782 156.649 9.3427C156.596 9.25757 156.528 9.18378 156.446 9.12565C156.365 9.06753 156.273 9.02624 156.175 9.00423C156.078 8.98221 155.977 8.97991 155.878 8.99746C155.78 9.01501 155.686 9.05205 155.602 9.10641C155.518 9.16077 155.446 9.23135 155.39 9.314L152.154 13.844L150.53 12.22C150.388 12.0875 150.2 12.0154 150.005 12.0188C149.811 12.0223 149.626 12.101 149.488 12.2384C149.351 12.3758 149.272 12.5612 149.269 12.7555C149.265 12.9498 149.338 13.1378 149.47 13.28L151.72 15.53C151.797 15.6069 151.89 15.6662 151.992 15.7036C152.094 15.7411 152.203 15.7559 152.312 15.7469C152.42 15.738 152.525 15.7055 152.62 15.6519C152.715 15.5982 152.797 15.5245 152.86 15.436L156.61 10.186Z" fill="#333431"/>
<path d="M173.732 17.14C172.491 17.14 171.525 16.8413 170.834 16.244C170.153 15.6467 169.812 14.7833 169.812 13.654V7.984H171.338V13.598C171.338 14.354 171.543 14.9187 171.954 15.292C172.374 15.6653 172.967 15.852 173.732 15.852C174.488 15.852 175.071 15.6653 175.482 15.292C175.902 14.9187 176.112 14.354 176.112 13.598V7.984H177.624V13.654C177.624 14.7833 177.283 15.6467 176.602 16.244C175.921 16.8413 174.964 17.14 173.732 17.14ZM179.516 20.024V10.364H180.832L180.916 11.022C181.214 10.7513 181.541 10.5507 181.896 10.42C182.25 10.2893 182.67 10.224 183.156 10.224C184.108 10.224 184.85 10.4853 185.382 11.008C185.914 11.5213 186.18 12.3753 186.18 13.57C186.18 14.7647 185.904 15.6607 185.354 16.258C184.803 16.846 184.052 17.14 183.1 17.14C182.297 17.14 181.611 16.9533 181.042 16.58V20.024H179.516ZM182.708 15.992C183.996 15.992 184.64 15.18 184.64 13.556C184.64 12.772 184.495 12.2167 184.206 11.89C183.916 11.554 183.431 11.386 182.75 11.386C182.068 11.386 181.499 11.6193 181.042 12.086V15.404C181.256 15.5813 181.494 15.726 181.756 15.838C182.026 15.9407 182.344 15.992 182.708 15.992ZM189.516 17.14C188.975 17.14 188.564 17.0093 188.284 16.748C188.004 16.4773 187.864 16.034 187.864 15.418V7.564H189.39V15.278C189.39 15.5393 189.437 15.7167 189.53 15.81C189.623 15.9033 189.763 15.95 189.95 15.95C190.174 15.95 190.389 15.922 190.594 15.866V16.972C190.417 17.0373 190.244 17.0793 190.076 17.098C189.917 17.126 189.731 17.14 189.516 17.14ZM195.166 17.14C193.971 17.14 193.094 16.8413 192.534 16.244C191.983 15.6467 191.708 14.7927 191.708 13.682C191.708 12.5713 191.988 11.7173 192.548 11.12C193.108 10.5227 193.981 10.224 195.166 10.224C196.361 10.224 197.238 10.5227 197.798 11.12C198.358 11.7173 198.638 12.5713 198.638 13.682C198.638 14.7927 198.358 15.6467 197.798 16.244C197.247 16.8413 196.37 17.14 195.166 17.14ZM195.166 15.852C195.866 15.852 196.361 15.684 196.65 15.348C196.949 15.0027 197.098 14.4473 197.098 13.682C197.098 12.9167 196.949 12.366 196.65 12.03C196.361 11.694 195.866 11.526 195.166 11.526C194.475 11.526 193.981 11.694 193.682 12.03C193.393 12.366 193.248 12.9167 193.248 13.682C193.248 14.4473 193.393 15.0027 193.682 15.348C193.981 15.684 194.475 15.852 195.166 15.852ZM202.395 17.14C201.975 17.14 201.583 17.0653 201.219 16.916C200.864 16.7667 200.579 16.5427 200.365 16.244C200.15 15.936 200.043 15.558 200.043 15.11C200.043 14.4753 200.257 13.9667 200.687 13.584C201.125 13.192 201.797 12.996 202.703 12.996H204.831V12.702C204.831 12.3847 204.779 12.1327 204.677 11.946C204.583 11.7593 204.406 11.624 204.145 11.54C203.893 11.456 203.519 11.414 203.025 11.414C202.241 11.414 201.508 11.5307 200.827 11.764V10.63C201.125 10.5087 201.489 10.4107 201.919 10.336C202.348 10.2613 202.81 10.224 203.305 10.224C204.275 10.224 205.013 10.42 205.517 10.812C206.03 11.204 206.287 11.8433 206.287 12.73V17H204.985L204.887 16.328C204.616 16.5893 204.28 16.79 203.879 16.93C203.487 17.07 202.992 17.14 202.395 17.14ZM202.801 16.048C203.258 16.048 203.655 15.9733 203.991 15.824C204.336 15.6653 204.616 15.4553 204.831 15.194V14.032H202.731C202.283 14.032 201.956 14.1207 201.751 14.298C201.555 14.466 201.457 14.7273 201.457 15.082C201.457 15.4273 201.573 15.6747 201.807 15.824C202.04 15.9733 202.371 16.048 202.801 16.048ZM210.923 17.14C210.326 17.14 209.798 17.0373 209.341 16.832C208.884 16.6267 208.529 16.286 208.277 15.81C208.025 15.334 207.899 14.6947 207.899 13.892C207.899 13.0987 208.034 12.4313 208.305 11.89C208.576 11.3393 208.949 10.924 209.425 10.644C209.91 10.364 210.456 10.224 211.063 10.224C211.464 10.224 211.819 10.2707 212.127 10.364C212.444 10.4573 212.748 10.602 213.037 10.798V7.564H214.563V17H213.261L213.163 16.342C212.864 16.6127 212.538 16.8133 212.183 16.944C211.828 17.0747 211.408 17.14 210.923 17.14ZM211.329 15.992C212.01 15.992 212.58 15.7587 213.037 15.292V11.974C212.598 11.582 212.048 11.386 211.385 11.386C210.741 11.386 210.256 11.6007 209.929 12.03C209.602 12.4593 209.439 13.0847 209.439 13.906C209.439 14.6993 209.588 15.2453 209.887 15.544C210.195 15.8427 210.676 15.992 211.329 15.992Z" fill="#212121"/>
<path fill-rule="evenodd" clip-rule="evenodd" d="M250.25 12C250.25 6.615 254.615 2.25 260 2.25C265.385 2.25 269.75 6.615 269.75 12C269.75 17.385 265.385 21.75 260 21.75C254.615 21.75 250.25 17.385 250.25 12ZM263.61 10.186C263.67 10.1061 263.713 10.0149 263.738 9.91795C263.762 9.82098 263.767 9.72014 263.751 9.62135C263.736 9.52257 263.701 9.42782 263.649 9.3427C263.596 9.25757 263.528 9.18378 263.446 9.12565C263.365 9.06753 263.273 9.02624 263.175 9.00423C263.078 8.98221 262.977 8.97991 262.878 8.99746C262.78 9.01501 262.686 9.05205 262.602 9.10641C262.518 9.16077 262.446 9.23135 262.39 9.314L259.154 13.844L257.53 12.22C257.388 12.0875 257.2 12.0154 257.005 12.0188C256.811 12.0223 256.626 12.101 256.488 12.2384C256.351 12.3758 256.272 12.5612 256.269 12.7555C256.265 12.9498 256.338 13.1378 256.47 13.28L258.72 15.53C258.797 15.6069 258.89 15.6662 258.992 15.7036C259.094 15.7411 259.203 15.7559 259.312 15.7469C259.42 15.738 259.525 15.7055 259.62 15.6519C259.715 15.5982 259.797 15.5245 259.86 15.436L263.61 10.186Z" fill="#C9EC81"/>
<path d="M263.61 10.186C263.67 10.1061 263.713 10.0149 263.738 9.91795C263.762 9.82098 263.767 9.72014 263.751 9.62135C263.736 9.52257 263.701 9.42782 263.649 9.3427C263.596 9.25757 263.528 9.18378 263.446 9.12565C263.365 9.06753 263.273 9.02624 263.175 9.00423C263.078 8.98221 262.977 8.97991 262.878 8.99746C262.78 9.01501 262.686 9.05205 262.602 9.10641C262.518 9.16077 262.446 9.23135 262.39 9.314L259.154 13.844L257.53 12.22C257.388 12.0875 257.2 12.0154 257.005 12.0188C256.811 12.0223 256.626 12.101 256.488 12.2384C256.351 12.3758 256.272 12.5612 256.269 12.7555C256.265 12.9498 256.338 13.1378 256.47 13.28L258.72 15.53C258.797 15.6069 258.89 15.6662 258.992 15.7036C259.094 15.7411 259.203 15.7559 259.312 15.7469C259.42 15.738 259.525 15.7055 259.62 15.6519C259.715 15.5982 259.797 15.5245 259.86 15.436L263.61 10.186Z" fill="#333431"/>
<path d="M281.11 17.14C279.626 17.14 278.501 16.734 277.736 15.922C276.98 15.11 276.602 14.0133 276.602 12.632C276.602 11.6427 276.761 10.7933 277.078 10.084C277.405 9.36533 277.899 8.81467 278.562 8.432C279.225 8.04 280.069 7.844 281.096 7.844C281.619 7.844 282.095 7.886 282.524 7.97C282.963 8.04467 283.369 8.14733 283.742 8.278V9.608C283.369 9.45867 282.967 9.34667 282.538 9.272C282.118 9.188 281.675 9.146 281.208 9.146C280.088 9.146 279.295 9.44467 278.828 10.042C278.371 10.6393 278.142 11.5027 278.142 12.632C278.142 13.6867 278.394 14.4893 278.898 15.04C279.402 15.5813 280.181 15.852 281.236 15.852C281.665 15.852 282.095 15.8193 282.524 15.754C282.963 15.6793 283.373 15.5673 283.756 15.418V16.762C283.383 16.8833 282.977 16.9767 282.538 17.042C282.109 17.1073 281.633 17.14 281.11 17.14ZM288.573 17.14C287.378 17.14 286.5 16.8413 285.94 16.244C285.39 15.6467 285.114 14.7927 285.114 13.682C285.114 12.5713 285.394 11.7173 285.954 11.12C286.514 10.5227 287.387 10.224 288.573 10.224C289.767 10.224 290.644 10.5227 291.205 11.12C291.765 11.7173 292.045 12.5713 292.045 13.682C292.045 14.7927 291.765 15.6467 291.205 16.244C290.654 16.8413 289.777 17.14 288.573 17.14ZM288.573 15.852C289.272 15.852 289.767 15.684 290.057 15.348C290.355 15.0027 290.505 14.4473 290.505 13.682C290.505 12.9167 290.355 12.366 290.057 12.03C289.767 11.694 289.272 11.526 288.573 11.526C287.882 11.526 287.387 11.694 287.089 12.03C286.799 12.366 286.654 12.9167 286.654 13.682C286.654 14.4473 286.799 15.0027 287.089 15.348C287.387 15.684 287.882 15.852 288.573 15.852ZM293.729 17V10.364H295.129L295.199 11.064C295.526 10.8027 295.885 10.5973 296.277 10.448C296.669 10.2987 297.089 10.224 297.537 10.224C298.013 10.224 298.382 10.3033 298.643 10.462C298.914 10.6113 299.119 10.8213 299.259 11.092C299.567 10.84 299.922 10.6347 300.323 10.476C300.725 10.308 301.205 10.224 301.765 10.224C302.531 10.224 303.095 10.42 303.459 10.812C303.823 11.204 304.005 11.806 304.005 12.618V17H302.507V12.772C302.507 12.2587 302.4 11.8993 302.185 11.694C301.971 11.4887 301.621 11.386 301.135 11.386C300.818 11.386 300.515 11.442 300.225 11.554C299.945 11.666 299.703 11.834 299.497 12.058C299.525 12.1607 299.544 12.268 299.553 12.38C299.563 12.492 299.567 12.6133 299.567 12.744V17H298.153V12.786C298.153 12.3007 298.069 11.946 297.901 11.722C297.733 11.498 297.416 11.386 296.949 11.386C296.623 11.386 296.31 11.4653 296.011 11.624C295.722 11.7733 295.461 11.9553 295.227 12.17V17H293.729ZM305.92 20.024V10.364H307.236L307.32 11.022C307.618 10.7513 307.945 10.5507 308.3 10.42C308.654 10.2893 309.074 10.224 309.56 10.224C310.512 10.224 311.254 10.4853 311.786 11.008C312.318 11.5213 312.584 12.3753 312.584 13.57C312.584 14.7647 312.308 15.6607 311.758 16.258C311.207 16.846 310.456 17.14 309.504 17.14C308.701 17.14 308.015 16.9533 307.446 16.58V20.024H305.92ZM309.112 15.992C310.4 15.992 311.044 15.18 311.044 13.556C311.044 12.772 310.899 12.2167 310.61 11.89C310.32 11.554 309.835 11.386 309.154 11.386C308.472 11.386 307.903 11.6193 307.446 12.086V15.404C307.66 15.5813 307.898 15.726 308.16 15.838C308.43 15.9407 308.748 15.992 309.112 15.992ZM315.92 17.14C315.379 17.14 314.968 17.0093 314.688 16.748C314.408 16.4773 314.268 16.034 314.268 15.418V7.564H315.794V15.278C315.794 15.5393 315.841 15.7167 315.934 15.81C316.027 15.9033 316.167 15.95 316.354 15.95C316.578 15.95 316.793 15.922 316.998 15.866V16.972C316.821 17.0373 316.648 17.0793 316.48 17.098C316.321 17.126 316.135 17.14 315.92 17.14ZM321.752 17.14C320.594 17.14 319.698 16.8553 319.064 16.286C318.429 15.7167 318.112 14.844 318.112 13.668C318.112 12.604 318.382 11.764 318.924 11.148C319.465 10.532 320.286 10.224 321.388 10.224C322.396 10.224 323.152 10.49 323.656 11.022C324.169 11.5447 324.426 12.2213 324.426 13.052V14.284H319.568C319.642 14.928 319.876 15.3713 320.268 15.614C320.66 15.8567 321.257 15.978 322.06 15.978C322.396 15.978 322.741 15.9453 323.096 15.88C323.45 15.8147 323.758 15.7307 324.02 15.628V16.748C323.721 16.8787 323.376 16.9767 322.984 17.042C322.601 17.1073 322.19 17.14 321.752 17.14ZM319.568 13.29H323.082V12.828C323.082 12.3707 322.956 12.016 322.704 11.764C322.452 11.5027 322.027 11.372 321.43 11.372C320.72 11.372 320.23 11.526 319.96 11.834C319.698 12.142 319.568 12.6273 319.568 13.29ZM328.645 17.14C327.936 17.14 327.404 16.9533 327.049 16.58C326.704 16.1973 326.531 15.6793 326.531 15.026V11.554H325.551V10.364H326.531V8.838L328.043 8.376V10.364H329.807L329.709 11.554H328.043V14.942C328.043 15.3247 328.132 15.5953 328.309 15.754C328.487 15.9033 328.776 15.978 329.177 15.978C329.429 15.978 329.695 15.9313 329.975 15.838V16.916C329.611 17.0653 329.168 17.14 328.645 17.14ZM334.703 17.14C333.545 17.14 332.649 16.8553 332.015 16.286C331.38 15.7167 331.063 14.844 331.063 13.668C331.063 12.604 331.333 11.764 331.875 11.148C332.416 10.532 333.237 10.224 334.339 10.224C335.347 10.224 336.103 10.49 336.607 11.022C337.12 11.5447 337.377 12.2213 337.377 13.052V14.284H332.519C332.593 14.928 332.827 15.3713 333.219 15.614C333.611 15.8567 334.208 15.978 335.011 15.978C335.347 15.978 335.692 15.9453 336.047 15.88C336.401 15.8147 336.709 15.7307 336.971 15.628V16.748C336.672 16.8787 336.327 16.9767 335.935 17.042C335.552 17.1073 335.141 17.14 334.703 17.14ZM332.519 13.29H336.033V12.828C336.033 12.3707 335.907 12.016 335.655 11.764C335.403 11.5027 334.978 11.372 334.381 11.372C333.671 11.372 333.181 11.526 332.911 11.834C332.649 12.142 332.519 12.6273 332.519 13.29Z" fill="#212121"/>
</svg>
