<svg width="24" height="24" viewBox="0 0 24 24" fill="none" xmlns="http://www.w3.org/2000/svg">
<path fill-rule="evenodd" clip-rule="evenodd" d="M2.25 12C2.25 6.615 6.615 2.25 12 2.25C17.385 2.25 21.75 6.615 21.75 12C21.75 17.385 17.385 21.75 12 21.75C6.615 21.75 2.25 17.385 2.25 12ZM15.61 10.186C15.67 10.1061 15.7134 10.0149 15.7377 9.91795C15.762 9.82098 15.7666 9.72014 15.7514 9.62135C15.7361 9.52257 15.7012 9.42782 15.6489 9.3427C15.5965 9.25757 15.5276 9.18378 15.4463 9.12565C15.3649 9.06753 15.2728 9.02624 15.1753 9.00423C15.0778 8.98221 14.9769 8.97991 14.8785 8.99746C14.7801 9.01501 14.6862 9.05205 14.6023 9.10641C14.5184 9.16077 14.4462 9.23135 14.39 9.314L11.154 13.844L9.53 12.22C9.38783 12.0875 9.19978 12.0154 9.00548 12.0188C8.81118 12.0223 8.62579 12.101 8.48838 12.2384C8.35097 12.3758 8.27225 12.5612 8.26882 12.7555C8.2654 12.9498 8.33752 13.1378 8.47 13.28L10.72 15.53C10.797 15.6069 10.8898 15.6662 10.992 15.7036C11.0942 15.7411 11.2033 15.7559 11.3118 15.7469C11.4202 15.738 11.5255 15.7055 11.6201 15.6519C11.7148 15.5982 11.7967 15.5245 11.86 15.436L15.61 10.186Z" fill="#C9EC81"/>
<path d="M15.61 10.186C15.67 10.1061 15.7134 10.0149 15.7377 9.91795C15.762 9.82098 15.7666 9.72014 15.7514 9.62135C15.7361 9.52257 15.7012 9.42782 15.6489 9.3427C15.5965 9.25757 15.5276 9.18378 15.4463 9.12565C15.3649 9.06753 15.2728 9.02624 15.1753 9.00423C15.0778 8.98221 14.9769 8.97991 14.8785 8.99746C14.7801 9.01501 14.6862 9.05205 14.6023 9.10641C14.5184 9.16077 14.4462 9.23135 14.39 9.314L11.154 13.844L9.53 12.22C9.38783 12.0875 9.19978 12.0154 9.00548 12.0188C8.81118 12.0223 8.62579 12.101 8.48838 12.2384C8.35097 12.3758 8.27225 12.5612 8.26882 12.7555C8.2654 12.9498 8.33752 13.1378 8.47 13.28L10.72 15.53C10.797 15.6069 10.8898 15.6662 10.992 15.7036C11.0942 15.7411 11.2033 15.7559 11.3118 15.7469C11.4202 15.738 11.5255 15.7055 11.6201 15.6519C11.7148 15.5982 11.7967 15.5245 11.86 15.436L15.61 10.186Z" fill="#333431"/>
<path d="M15.41 10.0359L15.41 10.0359L15.4066 10.0407L11.6567 15.2905C11.6145 15.3495 11.5599 15.3986 11.4968 15.4344C11.4337 15.4702 11.3635 15.4918 11.2912 15.4978C11.2189 15.5037 11.1462 15.4939 11.078 15.4689C11.0099 15.444 10.9481 15.4045 10.8968 15.3532C10.8968 15.3532 10.8967 15.3532 10.8967 15.3532L8.65021 13.1067C8.56361 13.0122 8.51652 12.8881 8.51879 12.7599C8.52107 12.6304 8.57355 12.5068 8.66516 12.4152C8.75676 12.3235 8.88035 12.2711 9.00989 12.2688C9.1381 12.2665 9.26223 12.3136 9.35667 12.4002L10.9772 14.0208L11.1859 14.2294L11.3574 13.9893L14.5934 9.45932L14.5935 9.45936L14.5967 9.45461C14.6342 9.3995 14.6823 9.35245 14.7382 9.31621C14.7942 9.27997 14.8568 9.25528 14.9224 9.24358C14.988 9.23188 15.0553 9.23342 15.1203 9.24809C15.1853 9.26277 15.2467 9.29029 15.3009 9.32904C15.3551 9.36779 15.401 9.41699 15.4359 9.47374C15.4709 9.53049 15.4941 9.59365 15.5043 9.65951C15.5145 9.72537 15.5114 9.79259 15.4952 9.85724C15.479 9.92188 15.45 9.98264 15.41 10.0359ZM9.70678 12.0432L9.70689 12.0431L9.70043 12.0371C9.51086 11.8605 9.26014 11.7643 9.00107 11.7689C8.742 11.7734 8.49482 11.8784 8.3116 12.0616C8.12839 12.2448 8.02343 12.492 8.01886 12.7511C8.01429 13.0101 8.11046 13.2609 8.2871 13.4504L8.28698 13.4505L8.29322 13.4568L10.5432 15.7068L10.5433 15.7068C10.6459 15.8094 10.7697 15.8884 10.9059 15.9384C11.0422 15.9883 11.1877 16.008 11.3323 15.9961C11.4769 15.9842 11.6172 15.9409 11.7435 15.8693C11.8697 15.7977 11.9788 15.6995 12.0633 15.5815L12.0634 15.5813L15.8118 10.3335C15.8909 10.2275 15.9481 10.1069 15.9802 9.97866C16.0126 9.84937 16.0188 9.71492 15.9984 9.5832C15.9781 9.45148 15.9316 9.32516 15.8618 9.21166C15.7919 9.09816 15.7001 8.99976 15.5916 8.92226C15.4832 8.84476 15.3604 8.78972 15.2304 8.76037C15.1004 8.73101 14.9658 8.72795 14.8346 8.75134C14.7034 8.77474 14.5782 8.82413 14.4663 8.89661C14.3553 8.96853 14.2597 9.06175 14.185 9.17085L11.1221 13.4586L9.70678 12.0432ZM2.5 12C2.5 6.75307 6.75307 2.5 12 2.5C17.2469 2.5 21.5 6.75307 21.5 12C21.5 17.2469 17.2469 21.5 12 21.5C6.75307 21.5 2.5 17.2469 2.5 12Z" stroke="#333431" stroke-width="0.5"/>
</svg>
