<svg width="33" height="33" viewBox="0 0 33 33" fill="none" xmlns="http://www.w3.org/2000/svg">
<path d="M29.1148 13.2541C28.6288 12.7463 28.1261 12.2229 27.9366 11.7627C27.7612 11.3412 27.7509 10.6425 27.7406 9.96574C27.7213 8.70762 27.7007 7.28191 26.7094 6.29063C25.7181 5.29934 24.2924 5.27871 23.0343 5.25937C22.3575 5.24906 21.6588 5.23875 21.2373 5.06344C20.7784 4.87395 20.2537 4.37121 19.7459 3.88523C18.8564 3.03059 17.8458 2.0625 16.5 2.0625C15.1542 2.0625 14.1449 3.03059 13.2541 3.88523C12.7463 4.37121 12.2229 4.87395 11.7627 5.06344C11.3438 5.23875 10.6425 5.24906 9.96574 5.25937C8.70762 5.27871 7.28191 5.29934 6.29063 6.29063C5.29934 7.28191 5.28516 8.70762 5.25937 9.96574C5.24906 10.6425 5.23875 11.3412 5.06344 11.7627C4.87395 12.2216 4.37121 12.7463 3.88523 13.2541C3.03059 14.1436 2.0625 15.1542 2.0625 16.5C2.0625 17.8458 3.03059 18.8551 3.88523 19.7459C4.37121 20.2537 4.87395 20.7771 5.06344 21.2373C5.23875 21.6588 5.24906 22.3575 5.25937 23.0343C5.27871 24.2924 5.29934 25.7181 6.29063 26.7094C7.28191 27.7007 8.70762 27.7213 9.96574 27.7406C10.6425 27.7509 11.3412 27.7612 11.7627 27.9366C12.2216 28.1261 12.7463 28.6288 13.2541 29.1148C14.1436 29.9694 15.1542 30.9375 16.5 30.9375C17.8458 30.9375 18.8551 29.9694 19.7459 29.1148C20.2537 28.6288 20.7771 28.1261 21.2373 27.9366C21.6588 27.7612 22.3575 27.7509 23.0343 27.7406C24.2924 27.7213 25.7181 27.7007 26.7094 26.7094C27.7007 25.7181 27.7213 24.2924 27.7406 23.0343C27.7509 22.3575 27.7612 21.6588 27.9366 21.2373C28.1261 20.7784 28.6288 20.2537 29.1148 19.7459C29.9694 18.8564 30.9375 17.8458 30.9375 16.5C30.9375 15.1542 29.9694 14.1449 29.1148 13.2541ZM22.3859 14.1359L15.1671 21.3546C15.0713 21.4505 14.9576 21.5266 14.8324 21.5785C14.7072 21.6304 14.573 21.6571 14.4375 21.6571C14.302 21.6571 14.1678 21.6304 14.0426 21.5785C13.9174 21.5266 13.8037 21.4505 13.7079 21.3546L10.6141 18.2609C10.5183 18.165 10.4423 18.0513 10.3905 17.9261C10.3386 17.8009 10.3119 17.6668 10.3119 17.5312C10.3119 17.3957 10.3386 17.2616 10.3905 17.1364C10.4423 17.0112 10.5183 16.8975 10.6141 16.8016C10.8076 16.6081 11.0701 16.4994 11.3438 16.4994C11.4793 16.4994 11.6134 16.5261 11.7386 16.578C11.8638 16.6298 11.9775 16.7058 12.0734 16.8016L14.4375 19.1671L20.9266 12.6766C21.0225 12.5808 21.1362 12.5048 21.2614 12.453C21.3866 12.4011 21.5207 12.3744 21.6562 12.3744C21.7918 12.3744 21.9259 12.4011 22.0511 12.453C22.1763 12.5048 22.29 12.5808 22.3859 12.6766C22.4817 12.7725 22.5577 12.8862 22.6095 13.0114C22.6614 13.1366 22.6881 13.2707 22.6881 13.4062C22.6881 13.5418 22.6614 13.6759 22.6095 13.8011C22.5577 13.9263 22.4817 14.04 22.3859 14.1359Z" fill="black"/>
</svg>
