<svg width="206" height="29" viewBox="0 0 206 29" fill="none" xmlns="http://www.w3.org/2000/svg">
<rect width="206" height="29" rx="14.5" fill="#C9EC81"/>
<path d="M47.9436 21.7C46.1703 21.7 44.7903 21.2733 43.8036 20.42C42.8303 19.5667 42.3436 18.3333 42.3436 16.72V8.62H44.5236V16.64C44.5236 17.72 44.8169 18.5267 45.4036 19.06C46.0036 19.5933 46.8503 19.86 47.9436 19.86C49.0236 19.86 49.8569 19.5933 50.4436 19.06C51.0436 18.5267 51.3436 17.72 51.3436 16.64V8.62H53.5036V16.72C53.5036 18.3333 53.0169 19.5667 52.0436 20.42C51.0703 21.2733 49.7036 21.7 47.9436 21.7ZM55.9202 25.82V12.02H57.8002L57.9202 12.96C58.3468 12.5733 58.8135 12.2867 59.3202 12.1C59.8268 11.9133 60.4268 11.82 61.1202 11.82C62.4802 11.82 63.5402 12.1933 64.3002 12.94C65.0602 13.6733 65.4402 14.8933 65.4402 16.6C65.4402 18.3067 65.0468 19.5867 64.2602 20.44C63.4735 21.28 62.4002 21.7 61.0402 21.7C59.8935 21.7 58.9135 21.4333 58.1002 20.9V25.82H55.9202ZM60.4802 20.06C62.3202 20.06 63.2402 18.9 63.2402 16.58C63.2402 15.46 63.0335 14.6667 62.6202 14.2C62.2068 13.72 61.5135 13.48 60.5402 13.48C59.5668 13.48 58.7535 13.8133 58.1002 14.48V19.22C58.4068 19.4733 58.7468 19.68 59.1202 19.84C59.5068 19.9867 59.9602 20.06 60.4802 20.06ZM69.9208 21.7C69.1474 21.7 68.5608 21.5133 68.1608 21.14C67.7608 20.7533 67.5608 20.12 67.5608 19.24V8.02H69.7408V19.04C69.7408 19.4133 69.8074 19.6667 69.9408 19.8C70.0741 19.9333 70.2741 20 70.5408 20C70.8608 20 71.1674 19.96 71.4608 19.88V21.46C71.2074 21.5533 70.9608 21.6133 70.7208 21.64C70.4941 21.68 70.2274 21.7 69.9208 21.7ZM77.7063 21.7C75.9996 21.7 74.7463 21.2733 73.9463 20.42C73.1596 19.5667 72.7663 18.3467 72.7663 16.76C72.7663 15.1733 73.1663 13.9533 73.9663 13.1C74.7663 12.2467 76.0129 11.82 77.7063 11.82C79.4129 11.82 80.6663 12.2467 81.4663 13.1C82.2663 13.9533 82.6663 15.1733 82.6663 16.76C82.6663 18.3467 82.2663 19.5667 81.4663 20.42C80.6796 21.2733 79.4263 21.7 77.7063 21.7ZM77.7063 19.86C78.7063 19.86 79.4129 19.62 79.8263 19.14C80.2529 18.6467 80.4663 17.8533 80.4663 16.76C80.4663 15.6667 80.2529 14.88 79.8263 14.4C79.4129 13.92 78.7063 13.68 77.7063 13.68C76.7196 13.68 76.0129 13.92 75.5863 14.4C75.1729 14.88 74.9663 15.6667 74.9663 16.76C74.9663 17.8533 75.1729 18.6467 75.5863 19.14C76.0129 19.62 76.7196 19.86 77.7063 19.86ZM87.7473 21.7C87.1473 21.7 86.5873 21.5933 86.0673 21.38C85.5607 21.1667 85.154 20.8467 84.8473 20.42C84.5407 19.98 84.3873 19.44 84.3873 18.8C84.3873 17.8933 84.694 17.1667 85.3073 16.62C85.934 16.06 86.894 15.78 88.1873 15.78H91.2273V15.36C91.2273 14.9067 91.154 14.5467 91.0073 14.28C90.874 14.0133 90.6207 13.82 90.2473 13.7C89.8873 13.58 89.354 13.52 88.6473 13.52C87.5273 13.52 86.4807 13.6867 85.5073 14.02V12.4C85.934 12.2267 86.454 12.0867 87.0673 11.98C87.6807 11.8733 88.3407 11.82 89.0473 11.82C90.434 11.82 91.4873 12.1 92.2073 12.66C92.9407 13.22 93.3073 14.1333 93.3073 15.4V21.5H91.4473L91.3073 20.54C90.9207 20.9133 90.4407 21.2 89.8673 21.4C89.3073 21.6 88.6007 21.7 87.7473 21.7ZM88.3273 20.14C88.9807 20.14 89.5473 20.0333 90.0273 19.82C90.5207 19.5933 90.9207 19.2933 91.2273 18.92V17.26H88.2273C87.5873 17.26 87.1207 17.3867 86.8273 17.64C86.5473 17.88 86.4073 18.2533 86.4073 18.76C86.4073 19.2533 86.574 19.6067 86.9073 19.82C87.2407 20.0333 87.714 20.14 88.3273 20.14ZM99.6448 21.7C98.7915 21.7 98.0382 21.5533 97.3848 21.26C96.7315 20.9667 96.2248 20.48 95.8648 19.8C95.5048 19.12 95.3248 18.2067 95.3248 17.06C95.3248 15.9267 95.5182 14.9733 95.9048 14.2C96.2915 13.4133 96.8248 12.82 97.5048 12.42C98.1982 12.02 98.9782 11.82 99.8448 11.82C100.418 11.82 100.925 11.8867 101.365 12.02C101.818 12.1533 102.252 12.36 102.665 12.64V8.02H104.845V21.5H102.985L102.845 20.56C102.418 20.9467 101.952 21.2333 101.445 21.42C100.938 21.6067 100.338 21.7 99.6448 21.7ZM100.225 20.06C101.198 20.06 102.012 19.7267 102.665 19.06V14.32C102.038 13.76 101.252 13.48 100.305 13.48C99.3848 13.48 98.6915 13.7867 98.2248 14.4C97.7582 15.0133 97.5248 15.9067 97.5248 17.08C97.5248 18.2133 97.7382 18.9933 98.1648 19.42C98.6048 19.8467 99.2915 20.06 100.225 20.06ZM111.975 21.5V8.62H114.155V21.5H111.975ZM116.682 21.5V12.02H118.682L118.782 13.02C119.249 12.6467 119.762 12.3533 120.322 12.14C120.882 11.9267 121.482 11.82 122.122 11.82C122.802 11.82 123.329 11.9333 123.702 12.16C124.089 12.3733 124.382 12.6733 124.582 13.06C125.022 12.7 125.529 12.4067 126.102 12.18C126.675 11.94 127.362 11.82 128.162 11.82C129.255 11.82 130.062 12.1 130.582 12.66C131.102 13.22 131.362 14.08 131.362 15.24V21.5H129.222V15.46C129.222 14.7267 129.069 14.2133 128.762 13.92C128.455 13.6267 127.955 13.48 127.262 13.48C126.809 13.48 126.375 13.56 125.962 13.72C125.562 13.88 125.215 14.12 124.922 14.44C124.962 14.5867 124.989 14.74 125.002 14.9C125.015 15.06 125.022 15.2333 125.022 15.42V21.5H123.002V15.48C123.002 14.7867 122.882 14.28 122.642 13.96C122.402 13.64 121.949 13.48 121.282 13.48C120.815 13.48 120.369 13.5933 119.942 13.82C119.529 14.0333 119.155 14.2933 118.822 14.6V21.5H116.682ZM136.478 21.7C135.878 21.7 135.318 21.5933 134.798 21.38C134.291 21.1667 133.884 20.8467 133.578 20.42C133.271 19.98 133.118 19.44 133.118 18.8C133.118 17.8933 133.424 17.1667 134.038 16.62C134.664 16.06 135.624 15.78 136.918 15.78H139.958V15.36C139.958 14.9067 139.884 14.5467 139.738 14.28C139.604 14.0133 139.351 13.82 138.978 13.7C138.618 13.58 138.084 13.52 137.378 13.52C136.258 13.52 135.211 13.6867 134.238 14.02V12.4C134.664 12.2267 135.184 12.0867 135.798 11.98C136.411 11.8733 137.071 11.82 137.778 11.82C139.164 11.82 140.218 12.1 140.938 12.66C141.671 13.22 142.038 14.1333 142.038 15.4V21.5H140.178L140.038 20.54C139.651 20.9133 139.171 21.2 138.598 21.4C138.038 21.6 137.331 21.7 136.478 21.7ZM137.058 20.14C137.711 20.14 138.278 20.0333 138.758 19.82C139.251 19.5933 139.651 19.2933 139.958 18.92V17.26H136.958C136.318 17.26 135.851 17.3867 135.558 17.64C135.278 17.88 135.138 18.2533 135.138 18.76C135.138 19.2533 135.304 19.6067 135.638 19.82C135.971 20.0333 136.444 20.14 137.058 20.14ZM148.295 25.02C147.589 25.02 146.882 24.9733 146.175 24.88C145.469 24.8 144.869 24.6733 144.375 24.5V22.82C144.909 22.9933 145.522 23.1267 146.215 23.22C146.909 23.3133 147.569 23.36 148.195 23.36C149.155 23.36 149.855 23.3067 150.295 23.2C150.735 23.0933 150.955 22.8533 150.955 22.48C150.955 22.2 150.849 22 150.635 21.88C150.422 21.7733 150.015 21.72 149.415 21.72H146.855C145.135 21.72 144.275 21.1133 144.275 19.9C144.275 19.5133 144.389 19.1533 144.615 18.82C144.842 18.4867 145.202 18.2333 145.695 18.06C145.149 17.7933 144.742 17.4267 144.475 16.96C144.222 16.4933 144.095 15.9333 144.095 15.28C144.095 14.0667 144.455 13.1867 145.175 12.64C145.909 12.0933 147.002 11.82 148.455 11.82C148.762 11.82 149.082 11.8467 149.415 11.9C149.749 11.94 150.009 11.98 150.195 12.02H153.675L153.615 13.44H152.015C152.269 13.6533 152.455 13.92 152.575 14.24C152.695 14.56 152.755 14.9067 152.755 15.28C152.755 16.2933 152.449 17.0933 151.835 17.68C151.222 18.2533 150.295 18.54 149.055 18.54C148.842 18.54 148.642 18.5333 148.455 18.52C148.282 18.4933 148.089 18.4667 147.875 18.44C147.475 18.48 147.115 18.5867 146.795 18.76C146.475 18.9333 146.315 19.1667 146.315 19.46C146.315 19.66 146.395 19.8067 146.555 19.9C146.715 19.98 146.982 20.02 147.355 20.02H150.015C150.962 20.02 151.689 20.2267 152.195 20.64C152.715 21.04 152.975 21.6267 152.975 22.4C152.975 23.3333 152.569 24 151.755 24.4C150.955 24.8133 149.802 25.02 148.295 25.02ZM148.455 17.16C149.322 17.16 149.922 17.0133 150.255 16.72C150.602 16.4267 150.775 15.9267 150.775 15.22C150.775 14.5133 150.602 14 150.255 13.68C149.922 13.36 149.322 13.2 148.455 13.2C147.642 13.2 147.049 13.3533 146.675 13.66C146.302 13.9667 146.115 14.4867 146.115 15.22C146.115 15.9 146.289 16.3933 146.635 16.7C146.995 17.0067 147.602 17.16 148.455 17.16ZM160.134 21.7C158.481 21.7 157.201 21.2933 156.294 20.48C155.388 19.6667 154.934 18.42 154.934 16.74C154.934 15.22 155.321 14.02 156.094 13.14C156.868 12.26 158.041 11.82 159.614 11.82C161.054 11.82 162.134 12.2 162.854 12.96C163.588 13.7067 163.954 14.6733 163.954 15.86V17.62H157.014C157.121 18.54 157.454 19.1733 158.014 19.52C158.574 19.8667 159.428 20.04 160.574 20.04C161.054 20.04 161.548 19.9933 162.054 19.9C162.561 19.8067 163.001 19.6867 163.374 19.54V21.14C162.948 21.3267 162.454 21.4667 161.894 21.56C161.348 21.6533 160.761 21.7 160.134 21.7ZM157.014 16.2H162.034V15.54C162.034 14.8867 161.854 14.38 161.494 14.02C161.134 13.6467 160.528 13.46 159.674 13.46C158.661 13.46 157.961 13.68 157.574 14.12C157.201 14.56 157.014 15.2533 157.014 16.2Z" fill="#333431"/>
</svg>
