<svg width="311" height="52" viewBox="0 0 311 52" fill="none" xmlns="http://www.w3.org/2000/svg">
<rect width="311" height="52" rx="26" fill="#333431"/>
<path d="M89.26 33.2C87.4867 33.2 86.1067 32.7733 85.12 31.92C84.1467 31.0667 83.66 29.8333 83.66 28.22V20.12H85.84V28.14C85.84 29.22 86.1333 30.0267 86.72 30.56C87.32 31.0933 88.1667 31.36 89.26 31.36C90.34 31.36 91.1733 31.0933 91.76 30.56C92.36 30.0267 92.66 29.22 92.66 28.14V20.12H94.82V28.22C94.82 29.8333 94.3333 31.0667 93.36 31.92C92.3867 32.7733 91.02 33.2 89.26 33.2ZM97.2366 37.32V23.52H99.1166L99.2366 24.46C99.6632 24.0733 100.13 23.7867 100.637 23.6C101.143 23.4133 101.743 23.32 102.437 23.32C103.797 23.32 104.857 23.6933 105.617 24.44C106.377 25.1733 106.757 26.3933 106.757 28.1C106.757 29.8067 106.363 31.0867 105.577 31.94C104.79 32.78 103.717 33.2 102.357 33.2C101.21 33.2 100.23 32.9333 99.4166 32.4V37.32H97.2366ZM101.797 31.56C103.637 31.56 104.557 30.4 104.557 28.08C104.557 26.96 104.35 26.1667 103.937 25.7C103.523 25.22 102.83 24.98 101.857 24.98C100.883 24.98 100.07 25.3133 99.4166 25.98V30.72C99.7232 30.9733 100.063 31.18 100.437 31.34C100.823 31.4867 101.277 31.56 101.797 31.56ZM111.237 33.2C110.464 33.2 109.877 33.0133 109.477 32.64C109.077 32.2533 108.877 31.62 108.877 30.74V19.52H111.057V30.54C111.057 30.9133 111.124 31.1667 111.257 31.3C111.391 31.4333 111.591 31.5 111.857 31.5C112.177 31.5 112.484 31.46 112.777 31.38V32.96C112.524 33.0533 112.277 33.1133 112.037 33.14C111.811 33.18 111.544 33.2 111.237 33.2ZM119.023 33.2C117.316 33.2 116.063 32.7733 115.263 31.92C114.476 31.0667 114.083 29.8467 114.083 28.26C114.083 26.6733 114.483 25.4533 115.283 24.6C116.083 23.7467 117.329 23.32 119.023 23.32C120.729 23.32 121.983 23.7467 122.783 24.6C123.583 25.4533 123.983 26.6733 123.983 28.26C123.983 29.8467 123.583 31.0667 122.783 31.92C121.996 32.7733 120.743 33.2 119.023 33.2ZM119.023 31.36C120.023 31.36 120.729 31.12 121.143 30.64C121.569 30.1467 121.783 29.3533 121.783 28.26C121.783 27.1667 121.569 26.38 121.143 25.9C120.729 25.42 120.023 25.18 119.023 25.18C118.036 25.18 117.329 25.42 116.903 25.9C116.489 26.38 116.283 27.1667 116.283 28.26C116.283 29.3533 116.489 30.1467 116.903 30.64C117.329 31.12 118.036 31.36 119.023 31.36ZM129.064 33.2C128.464 33.2 127.904 33.0933 127.384 32.88C126.877 32.6667 126.47 32.3467 126.164 31.92C125.857 31.48 125.704 30.94 125.704 30.3C125.704 29.3933 126.01 28.6667 126.624 28.12C127.25 27.56 128.21 27.28 129.504 27.28H132.544V26.86C132.544 26.4067 132.47 26.0467 132.324 25.78C132.19 25.5133 131.937 25.32 131.564 25.2C131.204 25.08 130.67 25.02 129.964 25.02C128.844 25.02 127.797 25.1867 126.824 25.52V23.9C127.25 23.7267 127.77 23.5867 128.384 23.48C128.997 23.3733 129.657 23.32 130.364 23.32C131.75 23.32 132.804 23.6 133.524 24.16C134.257 24.72 134.624 25.6333 134.624 26.9V33H132.764L132.624 32.04C132.237 32.4133 131.757 32.7 131.184 32.9C130.624 33.1 129.917 33.2 129.064 33.2ZM129.644 31.64C130.297 31.64 130.864 31.5333 131.344 31.32C131.837 31.0933 132.237 30.7933 132.544 30.42V28.76H129.544C128.904 28.76 128.437 28.8867 128.144 29.14C127.864 29.38 127.724 29.7533 127.724 30.26C127.724 30.7533 127.89 31.1067 128.224 31.32C128.557 31.5333 129.03 31.64 129.644 31.64ZM140.961 33.2C140.108 33.2 139.355 33.0533 138.701 32.76C138.048 32.4667 137.541 31.98 137.181 31.3C136.821 30.62 136.641 29.7067 136.641 28.56C136.641 27.4267 136.835 26.4733 137.221 25.7C137.608 24.9133 138.141 24.32 138.821 23.92C139.515 23.52 140.295 23.32 141.161 23.32C141.735 23.32 142.241 23.3867 142.681 23.52C143.135 23.6533 143.568 23.86 143.981 24.14V19.52H146.161V33H144.301L144.161 32.06C143.735 32.4467 143.268 32.7333 142.761 32.92C142.255 33.1067 141.655 33.2 140.961 33.2ZM141.541 31.56C142.515 31.56 143.328 31.2267 143.981 30.56V25.82C143.355 25.26 142.568 24.98 141.621 24.98C140.701 24.98 140.008 25.2867 139.541 25.9C139.075 26.5133 138.841 27.4067 138.841 28.58C138.841 29.7133 139.055 30.4933 139.481 30.92C139.921 31.3467 140.608 31.56 141.541 31.56ZM153.291 33V20.12H155.471V33H153.291ZM157.998 33V23.52H159.998L160.098 24.52C160.565 24.1467 161.078 23.8533 161.638 23.64C162.198 23.4267 162.798 23.32 163.438 23.32C164.118 23.32 164.645 23.4333 165.018 23.66C165.405 23.8733 165.698 24.1733 165.898 24.56C166.338 24.2 166.845 23.9067 167.418 23.68C167.992 23.44 168.678 23.32 169.478 23.32C170.572 23.32 171.378 23.6 171.898 24.16C172.418 24.72 172.678 25.58 172.678 26.74V33H170.538V26.96C170.538 26.2267 170.385 25.7133 170.078 25.42C169.772 25.1267 169.272 24.98 168.578 24.98C168.125 24.98 167.692 25.06 167.278 25.22C166.878 25.38 166.532 25.62 166.238 25.94C166.278 26.0867 166.305 26.24 166.318 26.4C166.332 26.56 166.338 26.7333 166.338 26.92V33H164.318V26.98C164.318 26.2867 164.198 25.78 163.958 25.46C163.718 25.14 163.265 24.98 162.598 24.98C162.132 24.98 161.685 25.0933 161.258 25.32C160.845 25.5333 160.472 25.7933 160.138 26.1V33H157.998ZM177.794 33.2C177.194 33.2 176.634 33.0933 176.114 32.88C175.608 32.6667 175.201 32.3467 174.894 31.92C174.588 31.48 174.434 30.94 174.434 30.3C174.434 29.3933 174.741 28.6667 175.354 28.12C175.981 27.56 176.941 27.28 178.234 27.28H181.274V26.86C181.274 26.4067 181.201 26.0467 181.054 25.78C180.921 25.5133 180.668 25.32 180.294 25.2C179.934 25.08 179.401 25.02 178.694 25.02C177.574 25.02 176.528 25.1867 175.554 25.52V23.9C175.981 23.7267 176.501 23.5867 177.114 23.48C177.728 23.3733 178.388 23.32 179.094 23.32C180.481 23.32 181.534 23.6 182.254 24.16C182.988 24.72 183.354 25.6333 183.354 26.9V33H181.494L181.354 32.04C180.968 32.4133 180.488 32.7 179.914 32.9C179.354 33.1 178.648 33.2 177.794 33.2ZM178.374 31.64C179.028 31.64 179.594 31.5333 180.074 31.32C180.568 31.0933 180.968 30.7933 181.274 30.42V28.76H178.274C177.634 28.76 177.168 28.8867 176.874 29.14C176.594 29.38 176.454 29.7533 176.454 30.26C176.454 30.7533 176.621 31.1067 176.954 31.32C177.288 31.5333 177.761 31.64 178.374 31.64ZM189.612 36.52C188.905 36.52 188.198 36.4733 187.492 36.38C186.785 36.3 186.185 36.1733 185.692 36V34.32C186.225 34.4933 186.838 34.6267 187.532 34.72C188.225 34.8133 188.885 34.86 189.512 34.86C190.472 34.86 191.172 34.8067 191.612 34.7C192.052 34.5933 192.272 34.3533 192.272 33.98C192.272 33.7 192.165 33.5 191.952 33.38C191.738 33.2733 191.332 33.22 190.732 33.22H188.172C186.452 33.22 185.592 32.6133 185.592 31.4C185.592 31.0133 185.705 30.6533 185.932 30.32C186.158 29.9867 186.518 29.7333 187.012 29.56C186.465 29.2933 186.058 28.9267 185.792 28.46C185.538 27.9933 185.412 27.4333 185.412 26.78C185.412 25.5667 185.772 24.6867 186.492 24.14C187.225 23.5933 188.318 23.32 189.772 23.32C190.078 23.32 190.398 23.3467 190.732 23.4C191.065 23.44 191.325 23.48 191.512 23.52H194.992L194.932 24.94H193.332C193.585 25.1533 193.772 25.42 193.892 25.74C194.012 26.06 194.072 26.4067 194.072 26.78C194.072 27.7933 193.765 28.5933 193.152 29.18C192.538 29.7533 191.612 30.04 190.372 30.04C190.158 30.04 189.958 30.0333 189.772 30.02C189.598 29.9933 189.405 29.9667 189.192 29.94C188.792 29.98 188.432 30.0867 188.112 30.26C187.792 30.4333 187.632 30.6667 187.632 30.96C187.632 31.16 187.712 31.3067 187.872 31.4C188.032 31.48 188.298 31.52 188.672 31.52H191.332C192.278 31.52 193.005 31.7267 193.512 32.14C194.032 32.54 194.292 33.1267 194.292 33.9C194.292 34.8333 193.885 35.5 193.072 35.9C192.272 36.3133 191.118 36.52 189.612 36.52ZM189.772 28.66C190.638 28.66 191.238 28.5133 191.572 28.22C191.918 27.9267 192.092 27.4267 192.092 26.72C192.092 26.0133 191.918 25.5 191.572 25.18C191.238 24.86 190.638 24.7 189.772 24.7C188.958 24.7 188.365 24.8533 187.992 25.16C187.618 25.4667 187.432 25.9867 187.432 26.72C187.432 27.4 187.605 27.8933 187.952 28.2C188.312 28.5067 188.918 28.66 189.772 28.66ZM201.451 33.2C199.797 33.2 198.517 32.7933 197.611 31.98C196.704 31.1667 196.251 29.92 196.251 28.24C196.251 26.72 196.637 25.52 197.411 24.64C198.184 23.76 199.357 23.32 200.931 23.32C202.371 23.32 203.451 23.7 204.171 24.46C204.904 25.2067 205.271 26.1733 205.271 27.36V29.12H198.331C198.437 30.04 198.771 30.6733 199.331 31.02C199.891 31.3667 200.744 31.54 201.891 31.54C202.371 31.54 202.864 31.4933 203.371 31.4C203.877 31.3067 204.317 31.1867 204.691 31.04V32.64C204.264 32.8267 203.771 32.9667 203.211 33.06C202.664 33.1533 202.077 33.2 201.451 33.2ZM198.331 27.7H203.351V27.04C203.351 26.3867 203.171 25.88 202.811 25.52C202.451 25.1467 201.844 24.96 200.991 24.96C199.977 24.96 199.277 25.18 198.891 25.62C198.517 26.06 198.331 26.7533 198.331 27.7ZM209.693 34.44C209.039 33.8533 208.513 33.1533 208.113 32.34C207.713 31.5267 207.426 30.6533 207.253 29.72C207.079 28.7867 206.993 27.86 206.993 26.94C206.993 26.02 207.079 25.1 207.253 24.18C207.426 23.2467 207.713 22.3733 208.113 21.56C208.513 20.7333 209.039 20.0267 209.693 19.44H212.153C211.099 20.36 210.339 21.46 209.873 22.74C209.419 24.0067 209.193 25.4067 209.193 26.94C209.193 28.4733 209.419 29.88 209.873 31.16C210.339 32.4267 211.099 33.52 212.153 34.44H209.693ZM217.057 33.2C216.403 33.2 215.777 33.1533 215.177 33.06C214.59 32.9667 214.103 32.8533 213.717 32.72V30.88C214.17 31.0533 214.67 31.1867 215.217 31.28C215.763 31.3733 216.283 31.42 216.777 31.42C217.523 31.42 218.057 31.3533 218.377 31.22C218.697 31.0867 218.857 30.8267 218.857 30.44C218.857 30.16 218.757 29.94 218.557 29.78C218.37 29.62 218.083 29.4733 217.697 29.34C217.323 29.2067 216.843 29.0467 216.257 28.86C215.697 28.6733 215.21 28.4733 214.797 28.26C214.383 28.0333 214.063 27.7467 213.837 27.4C213.61 27.0533 213.497 26.6 213.497 26.04C213.497 25.1733 213.81 24.5067 214.437 24.04C215.063 23.56 216.07 23.32 217.457 23.32C218.003 23.32 218.523 23.36 219.017 23.44C219.51 23.52 219.93 23.62 220.277 23.74V25.56C219.903 25.4133 219.49 25.3 219.037 25.22C218.597 25.14 218.183 25.1 217.797 25.1C217.103 25.1 216.577 25.16 216.217 25.28C215.87 25.4 215.697 25.64 215.697 26C215.697 26.3733 215.877 26.64 216.237 26.8C216.61 26.9467 217.203 27.1533 218.017 27.42C218.763 27.6467 219.357 27.8867 219.797 28.14C220.237 28.3933 220.55 28.7 220.737 29.06C220.937 29.4067 221.037 29.86 221.037 30.42C221.037 31.3533 220.697 32.0533 220.017 32.52C219.337 32.9733 218.35 33.2 217.057 33.2ZM222.374 34.44C223.441 33.52 224.201 32.4267 224.654 31.16C225.107 29.88 225.334 28.4733 225.334 26.94C225.334 25.4067 225.107 24.0067 224.654 22.74C224.201 21.46 223.441 20.36 222.374 19.44H224.854C225.507 20.0267 226.027 20.7333 226.414 21.56C226.814 22.3733 227.101 23.2467 227.274 24.18C227.447 25.1 227.534 26.02 227.534 26.94C227.534 27.86 227.447 28.7867 227.274 29.72C227.101 30.6533 226.814 31.5267 226.414 32.34C226.027 33.1533 225.507 33.8533 224.854 34.44H222.374Z" fill="#FAFAFA"/>
</svg>
